<svg width="1440" height="840" viewBox="0 0 1440 840" fill="none" xmlns="http://www.w3.org/2000/svg">
<rect width="1440" height="840" fill="white"/>
<rect opacity="0.1" x="114" y="187" width="690" height="482" fill="url(#paint0_linear_117_6)"/>
<g filter="url(#filter0_i_117_6)">
<rect x="165" y="586" width="78" height="83" fill="url(#paint1_linear_117_6)"/>
</g>
<g filter="url(#filter1_i_117_6)">
<rect x="267" y="567" width="78" height="102" fill="url(#paint2_linear_117_6)"/>
</g>
<g filter="url(#filter2_i_117_6)">
<rect x="369" y="475" width="78" height="194" fill="url(#paint3_linear_117_6)"/>
</g>
<g filter="url(#filter3_i_117_6)">
<rect x="573" y="371" width="78" height="298" fill="url(#paint4_linear_117_6)"/>
</g>
<g filter="url(#filter4_i_117_6)">
<rect x="471" y="354" width="78" height="315" fill="url(#paint5_linear_117_6)"/>
</g>
<g filter="url(#filter5_i_117_6)">
<rect x="675" y="230" width="78" height="439" fill="url(#paint6_linear_117_6)"/>
</g>
<g style="mix-blend-mode:soft-light">
<path d="M753 638.056L739.002 638.056L739.002 667.203L725.802 667.203L690.986 638.853L690.986 620.072L724.651 620.072L724.651 612.01L739.002 612.01L739.002 620.072L753 620.072L753 638.056ZM724.651 649.041L724.651 638.056L711.716 638.056L724.651 649.041ZM753 608.685L739.357 608.685L726.068 593.359C722.879 589.638 720.28 587.098 718.272 585.74C716.264 584.322 714.315 583.614 712.425 583.614C710.712 583.614 709.383 584.263 708.438 585.563C707.493 586.862 707.021 588.575 707.021 590.701C707.021 595.898 709.029 601.125 713.045 606.382L694.352 606.382C691.281 601.657 689.745 595.751 689.745 588.663C689.745 582.403 691.576 576.851 695.238 572.008C698.9 567.106 703.832 564.655 710.033 564.655C714.581 564.655 718.597 565.6 722.081 567.49C725.507 569.321 729.257 572.687 733.333 577.589L737.142 582.196L737.142 562.794L753 562.794L753 608.685ZM754.24 545.282C754.24 548.235 753.177 550.804 751.051 552.989C748.925 555.115 746.356 556.178 743.343 556.178C740.331 556.178 737.792 555.115 735.725 552.989C733.598 550.863 732.535 548.294 732.535 545.282C732.535 542.27 733.598 539.73 735.725 537.663C737.792 535.537 740.331 534.473 743.343 534.473C746.356 534.473 748.925 535.537 751.051 537.663C753.177 539.73 754.24 542.27 754.24 545.282ZM711.007 501.622C711.007 495.953 712.838 491.287 716.5 487.625C720.162 483.904 725.212 482.044 731.649 482.044C738.441 482.044 743.905 484.318 748.039 488.865C752.173 493.413 754.24 499.112 754.24 505.963C754.24 514.232 751.612 520.64 746.356 525.188C741.099 529.677 734.041 531.921 725.182 531.921C721.638 531.921 718.242 531.596 714.994 530.946C711.687 530.238 708.497 529.115 705.426 527.58C702.296 526.044 699.609 524.154 697.364 521.91C695.061 519.666 693.23 516.831 691.872 513.405C690.454 509.98 689.745 506.2 689.745 502.065C689.745 495.628 690.986 490.667 693.466 487.182L710.033 487.182C707.375 490.844 706.046 495.037 706.046 499.762C706.046 503.129 706.844 506.023 708.438 508.444C709.974 510.866 712.277 512.313 715.348 512.785C712.454 510.068 711.007 506.347 711.007 501.622ZM738.737 507.292C738.737 505.107 738.087 503.453 736.788 502.331C735.488 501.15 733.805 500.559 731.738 500.559C729.966 500.559 728.431 501.15 727.131 502.331C725.773 503.512 725.094 505.107 725.094 507.115C725.094 508.533 725.477 509.891 726.245 511.19C727.013 512.49 728.076 513.464 729.435 514.114C732.506 514.114 734.839 513.435 736.433 512.076C737.969 510.659 738.737 509.064 738.737 507.292ZM753 477.008L739.357 477.008L726.068 461.682C722.879 457.961 720.28 455.422 718.272 454.063C716.264 452.646 714.315 451.937 712.425 451.937C710.712 451.937 709.383 452.587 708.438 453.886C707.493 455.185 707.021 456.898 707.021 459.024C707.021 464.222 709.029 469.449 713.045 474.705L694.352 474.705C691.281 469.98 689.745 464.074 689.745 456.987C689.745 450.726 691.576 445.174 695.238 440.331C698.9 435.429 703.832 432.978 710.033 432.978C714.581 432.978 718.597 433.923 722.081 435.813C725.507 437.644 729.257 441.011 733.333 445.913L737.142 450.52L737.142 431.118L753 431.118L753 477.008ZM753 414.007L710.83 414.007L715.88 426.321L697.896 426.321L690.986 411.792L690.986 395.402L753 395.402L753 414.007Z" fill="white"/>
</g>
<g style="mix-blend-mode:soft-light">
<path d="M651.973 650.493C651.973 656.236 650.676 661.168 648.082 665.291L638.564 665.291C641.529 660.983 643.011 656.236 643.011 651.049C643.011 648.223 642.293 645.838 640.857 643.893C639.421 641.901 637.43 640.906 634.882 640.906C632.52 640.906 630.621 641.762 629.186 643.476C627.703 645.19 626.962 647.552 626.962 650.562C626.962 652.878 627.402 655.171 628.282 657.44L621.682 657.44L610.984 645.838L610.984 663.762L602.369 663.762L602.369 633.055L609.872 633.055L619.946 644.032C620.594 640.558 622.192 637.501 624.739 634.861C627.287 632.221 630.668 630.901 634.882 630.901C640.07 630.901 644.215 632.777 647.318 636.529C650.421 640.28 651.973 644.935 651.973 650.493ZM651.973 610.397C651.973 616.14 650.676 621.072 648.082 625.194L638.564 625.194C641.529 620.887 643.011 616.14 643.011 610.952C643.011 608.127 642.293 605.742 640.857 603.797C639.421 601.805 637.43 600.809 634.882 600.809C632.52 600.809 630.621 601.666 629.186 603.38C627.703 605.094 626.962 607.456 626.962 610.466C626.962 612.782 627.402 615.075 628.282 617.344L621.682 617.344L610.984 605.742L610.984 623.666L602.369 623.666L602.369 592.959L609.872 592.959L619.946 603.936C620.594 600.462 622.192 597.405 624.739 594.765C627.287 592.125 630.668 590.805 634.882 590.805C640.07 590.805 644.215 592.681 647.318 596.433C650.421 600.184 651.973 604.839 651.973 610.397ZM651.764 578.637C651.764 580.351 651.185 581.787 650.027 582.945C648.823 584.102 647.364 584.681 645.651 584.681C643.983 584.681 642.571 584.102 641.413 582.945C640.255 581.787 639.676 580.351 639.676 578.637C639.676 576.97 640.255 575.557 641.413 574.399C642.571 573.195 643.983 572.593 645.651 572.593C647.364 572.593 648.823 573.195 650.027 574.399C651.185 575.557 651.764 576.97 651.764 578.637ZM651 543.575L638.842 543.575L638.842 567.96L631.617 567.96L602.369 543.714L602.369 533.848L630.783 533.848L630.783 526.693L638.842 526.693L638.842 533.848L651 533.848L651 543.575ZM630.783 556.913L630.783 543.575L614.944 543.575L630.783 556.913ZM651.973 507.961C651.973 513.102 650.815 517.71 648.499 521.786L639.12 521.786C641.714 517.71 643.011 513.241 643.011 508.378C643.011 505.275 642.316 502.704 640.926 500.666C639.537 498.629 637.522 497.61 634.882 497.61C632.474 497.61 630.529 498.582 629.047 500.528C627.564 502.426 626.823 505.066 626.823 508.447C626.823 512.292 627.518 516.182 628.908 520.119L602.369 516.923L602.369 490.94L610.984 490.94L610.984 509.559L619.251 510.601C618.927 509.073 618.765 507.521 618.765 505.946C618.765 500.62 620.247 496.243 623.211 492.816C626.175 489.342 630.066 487.606 634.882 487.606C640.209 487.606 644.4 489.574 647.457 493.511C650.467 497.401 651.973 502.218 651.973 507.961ZM651.973 459.753C651.973 464.06 650.768 467.835 648.36 471.077C645.952 474.319 642.872 476.751 639.12 478.372C635.322 479.946 631.177 480.734 626.684 480.734C622.192 480.734 618.07 479.946 614.318 478.372C610.52 476.751 607.417 474.319 605.009 471.077C602.601 467.835 601.396 464.06 601.396 459.753C601.396 453.361 603.874 448.29 608.83 444.538C613.786 440.741 619.737 438.842 626.684 438.842C633.632 438.842 639.583 440.741 644.539 444.538C649.495 448.29 651.973 453.361 651.973 459.753ZM638.009 467.742C641.065 465.751 642.594 463.088 642.594 459.753C642.594 456.418 641.065 453.778 638.009 451.833C634.905 449.841 631.131 448.846 626.684 448.846C622.238 448.846 618.487 449.841 615.43 451.833C612.327 453.778 610.775 456.418 610.775 459.753C610.775 463.088 612.327 465.751 615.43 467.742C618.487 469.734 622.238 470.73 626.684 470.73C631.131 470.73 634.905 469.734 638.009 467.742Z" fill="white"/>
</g>
<g style="mix-blend-mode:soft-light">
<path d="M550.13 647.332C550.13 653.952 548.569 659.819 545.448 664.932L531.965 664.932C535.571 659.335 537.374 653.71 537.374 648.059C537.374 645.314 536.702 643.026 535.356 641.196C534.01 639.367 532.154 638.452 529.785 638.452C527.633 638.452 525.883 639.259 524.538 640.874C523.192 642.434 522.519 644.641 522.519 647.494C522.519 650.831 523.165 653.791 524.457 656.374L515.011 656.374L504.677 644.426L504.677 663.398L492.487 663.398L492.487 626.503L503.386 626.503L513.074 637.483C513.45 636.083 514.016 634.684 514.769 633.285C515.523 631.831 516.545 630.378 517.837 628.925C519.129 627.418 520.824 626.207 522.923 625.292C524.968 624.323 527.256 623.839 529.785 623.839C536.029 623.839 540.98 626.099 544.64 630.62C548.3 635.088 550.13 640.658 550.13 647.332ZM549 592.35L535.598 592.35L535.598 619.557L525.426 619.557L492.487 592.592L492.487 578.222L524.296 578.222L524.296 570.391L535.598 570.391L535.598 578.222L549 578.222L549 592.35ZM524.296 604.218L524.296 592.35L510.086 592.35L524.296 604.218ZM547.628 551.462C549.296 553.077 550.13 555.068 550.13 557.436C550.13 559.804 549.296 561.823 547.628 563.491C545.959 565.106 543.941 565.913 541.573 565.913C539.204 565.913 537.213 565.106 535.598 563.491C533.93 561.823 533.096 559.804 533.096 557.436C533.096 555.068 533.93 553.077 535.598 551.462C537.213 549.793 539.204 548.959 541.573 548.959C543.941 548.959 545.959 549.793 547.628 551.462ZM549 541.084L538.505 541.084L524.941 525.825C521.658 522.219 519.048 519.743 517.11 518.398C515.119 517.052 513.101 516.379 511.055 516.379C509.118 516.379 507.584 517.106 506.453 518.559C505.269 520.012 504.677 521.95 504.677 524.372C504.677 529.378 506.669 534.302 510.652 539.146L496.12 539.146C492.944 534.679 491.356 529.243 491.356 522.838C491.356 517.241 492.998 512.343 496.281 508.145C499.564 503.947 503.897 501.847 509.279 501.847C513.316 501.847 516.868 502.736 519.936 504.512C522.95 506.234 526.475 509.329 530.512 513.796L536.648 520.658L536.648 500.071L549 500.071L549 541.084ZM549 484.003L507.826 484.003L513.154 495.548L499.187 495.548L492.487 482.307L492.487 469.713L549 469.713L549 484.003ZM549 461.691L538.505 461.691L524.941 446.432C521.658 442.826 519.048 440.35 517.11 439.005C515.119 437.659 513.101 436.986 511.055 436.986C509.118 436.986 507.584 437.713 506.453 439.166C505.269 440.619 504.677 442.557 504.677 444.979C504.677 449.984 506.669 454.909 510.652 459.753L496.12 459.753C492.944 455.286 491.356 449.85 491.356 443.445C491.356 437.848 492.998 432.95 496.281 428.752C499.564 424.553 503.897 422.454 509.279 422.454C513.316 422.454 516.868 423.342 519.936 425.119C522.95 426.841 526.475 429.936 530.512 434.403L536.648 441.265L536.648 420.678L549 420.678L549 461.691Z" fill="white"/>
</g>
<g style="mix-blend-mode:soft-light">
<path d="M447 665.591L442.182 665.591L429.774 652.34C427.004 649.369 424.755 647.301 423.029 646.137C421.262 644.932 419.334 644.33 417.247 644.33C415.118 644.33 413.412 645.093 412.127 646.618C410.802 648.144 410.139 650.172 410.139 652.702C410.139 656.878 411.886 660.813 415.379 664.507L408.453 664.507C405.522 661.013 404.056 656.858 404.056 652.039C404.056 648.064 405.201 644.691 407.489 641.921C409.778 639.11 412.769 637.704 416.464 637.704C419.355 637.704 421.944 638.407 424.233 639.813C426.482 641.178 429.212 643.547 432.424 646.92L441.097 656.014L441.097 636.259L447 636.259L447 665.591ZM447 622.457L411.946 622.457L416.885 631.673L410.441 631.673L404.839 621.735L404.839 615.953L447 615.953L447 622.457ZM447.482 602.652C447.482 603.856 447.08 604.88 446.277 605.723C445.434 606.526 444.41 606.928 443.206 606.928C442.041 606.928 441.057 606.526 440.254 605.723C439.411 604.88 438.989 603.856 438.989 602.652C438.989 601.487 439.411 600.504 440.254 599.7C441.057 598.857 442.041 598.436 443.206 598.436C444.41 598.436 445.434 598.857 446.277 599.7C447.08 600.504 447.482 601.487 447.482 602.652ZM447 590.939L410.802 572.689L410.802 593.95L404.839 593.95L404.839 565.161L409.959 565.161L447 583.832L447 590.939ZM447.783 544.365C447.783 549.505 446.036 553.54 442.543 556.471C439.05 559.362 434.211 560.808 428.028 560.808C421.242 560.808 415.56 559.141 410.983 555.809C406.365 552.476 404.056 547.858 404.056 541.956C404.056 538.342 404.94 535.25 406.706 532.68L412.729 532.68C410.963 535.29 410.079 538.141 410.079 541.233C410.079 545.288 411.485 548.4 414.295 550.569C417.106 552.697 420.519 553.841 424.534 554.002C421.362 551.552 419.776 547.918 419.776 543.1C419.776 539.245 421.021 536.033 423.51 533.463C425.96 530.853 429.192 529.548 433.207 529.548C437.504 529.548 441.017 530.954 443.748 533.764C446.438 536.575 447.783 540.109 447.783 544.365ZM441.941 544.787C441.941 542.297 441.138 540.229 439.532 538.583C437.925 536.937 435.858 536.113 433.328 536.113C430.879 536.113 428.911 536.937 427.425 538.583C425.9 540.229 425.137 542.317 425.137 544.847C425.137 546.895 425.779 548.842 427.064 550.689C428.349 552.496 429.935 553.66 431.822 554.182C434.954 553.941 437.423 553.018 439.23 551.412C441.037 549.765 441.941 547.557 441.941 544.787ZM447.783 510.837C447.783 515.374 446.819 519.329 444.892 522.702L438.688 522.702C440.816 519.249 441.88 515.394 441.88 511.138C441.88 508.086 441.118 505.537 439.592 503.489C438.026 501.401 435.958 500.357 433.388 500.357C430.939 500.357 428.931 501.32 427.365 503.248C425.799 505.175 425.016 507.745 425.016 510.957C425.016 514.169 425.618 517.542 426.823 521.076L404.839 518.305L404.839 496.623L410.621 496.623L410.621 513.487L420.318 514.691C419.877 513.125 419.656 511.359 419.656 509.391C419.656 504.814 420.941 501.059 423.51 498.128C426.04 495.157 429.333 493.671 433.388 493.671C437.765 493.671 441.258 495.318 443.868 498.61C446.478 501.862 447.783 505.938 447.783 510.837Z" fill="white"/>
</g>
<g style="mix-blend-mode:soft-light">
<path d="M345 664.432L322.666 653.158L322.666 666.43L320.026 666.43L320.026 649.84L322.202 649.84L345 661.364L345 664.432ZM344.643 649.99C344.263 650.37 343.799 650.561 343.252 650.561C342.705 650.561 342.241 650.37 341.86 649.99C341.456 649.609 341.254 649.134 341.254 648.563C341.254 648.016 341.456 647.552 341.86 647.171C342.241 646.791 342.705 646.6 343.252 646.6C343.799 646.6 344.263 646.791 344.643 647.171C345.024 647.552 345.214 648.016 345.214 648.563C345.214 649.134 345.024 649.609 344.643 649.99ZM345 629.752L338.186 629.752L338.186 643.059L335.902 643.059L320.026 629.716L320.026 626.933L335.617 626.933L335.617 622.83L338.186 622.83L338.186 626.933L345 626.933L345 629.752ZM335.617 639.741L335.617 629.752L323.843 629.752L335.617 639.741ZM341.718 601.645C344.191 603.548 345.428 606.022 345.428 609.066C345.428 612.111 344.191 614.596 341.718 616.523C339.22 618.426 336.152 619.377 332.513 619.377C328.874 619.377 325.817 618.426 323.344 616.523C320.846 614.596 319.598 612.111 319.598 609.066C319.598 606.022 320.846 603.548 323.344 601.645C325.817 599.742 328.874 598.791 332.513 598.791C336.152 598.791 339.22 599.742 341.718 601.645ZM339.791 614.382C341.741 613.003 342.717 611.231 342.717 609.066C342.717 606.902 341.741 605.13 339.791 603.75C337.841 602.371 335.415 601.681 332.513 601.681C329.611 601.681 327.185 602.371 325.235 603.75C323.284 605.13 322.309 606.902 322.309 609.066C322.309 611.231 323.284 613.003 325.235 614.382C327.185 615.762 329.611 616.451 332.513 616.451C335.415 616.451 337.841 615.762 339.791 614.382ZM345.428 587.374C345.428 590.085 344.881 592.393 343.787 594.295L340.897 594.295C342.11 592.321 342.717 590.038 342.717 587.445C342.717 585.4 342.193 583.711 341.147 582.379C340.1 581.023 338.745 580.345 337.08 580.345C335.462 580.345 334.13 580.976 333.084 582.236C332.037 583.497 331.514 585.174 331.514 587.267C331.514 589.265 331.859 591.263 332.549 593.261L320.026 591.62L320.026 579.168L322.666 579.168L322.666 589.443L329.516 590.407C329.231 589.289 329.088 588.016 329.088 586.589C329.088 583.949 329.837 581.761 331.336 580.024C332.834 578.288 334.749 577.42 337.08 577.42C339.577 577.42 341.599 578.371 343.145 580.274C344.667 582.177 345.428 584.544 345.428 587.374Z" fill="white"/>
</g>
<g style="mix-blend-mode:soft-light">
<path d="M243.326 661.025C243.326 663.033 242.91 664.77 242.077 666.236L240.666 666.236C241.589 664.734 242.05 663.006 242.05 661.052C242.05 659.315 241.58 657.877 240.639 656.737C239.698 655.579 238.522 655 237.111 655C235.753 655 234.632 655.533 233.745 656.601C232.858 657.668 232.415 659.08 232.415 660.835C232.415 662.518 232.669 664.037 233.175 665.395L224.002 664.146L224.002 654.973L225.25 654.973L225.25 663.088L231.547 663.956C231.275 663.088 231.14 661.948 231.14 660.536C231.14 658.564 231.71 656.927 232.849 655.624C233.971 654.303 235.392 653.643 237.111 653.643C238.902 653.643 240.385 654.348 241.562 655.76C242.738 657.153 243.326 658.908 243.326 661.025ZM242.783 650.004C242.566 650.203 242.303 650.302 241.996 650.302C241.688 650.302 241.435 650.203 241.236 650.004C241.019 649.787 240.91 649.524 240.91 649.217C240.91 648.909 241.019 648.656 241.236 648.457C241.435 648.24 241.688 648.131 241.996 648.131C242.303 648.131 242.566 648.24 242.783 648.457C242.982 648.656 243.081 648.909 243.081 649.217C243.081 649.524 242.982 649.787 242.783 650.004ZM243.326 639.212C243.326 641.22 242.91 642.957 242.077 644.423L240.666 644.423C241.589 642.921 242.05 641.193 242.05 639.239C242.05 637.502 241.58 636.063 240.639 634.924C239.698 633.766 238.522 633.187 237.111 633.187C235.753 633.187 234.632 633.72 233.745 634.788C232.858 635.855 232.415 637.267 232.415 639.022C232.415 640.704 232.668 642.224 233.175 643.581L224.002 642.333L224.002 633.159L225.25 633.159L225.25 641.274L231.547 642.143C231.275 641.274 231.14 640.135 231.14 638.723C231.14 636.751 231.71 635.114 232.849 633.811C233.971 632.49 235.392 631.83 237.111 631.83C238.902 631.83 240.385 632.535 241.562 633.946C242.738 635.34 243.326 637.095 243.326 639.212ZM243.326 623.425C243.326 625.596 242.864 627.414 241.942 628.88L240.476 628.88C241.525 627.469 242.05 625.686 242.05 623.533C242.05 621.959 241.607 620.593 240.72 619.435C239.816 618.277 238.603 617.698 237.083 617.698C235.672 617.698 234.532 618.214 233.664 619.245C232.777 620.258 232.334 621.624 232.334 623.343C232.334 623.958 232.406 624.601 232.551 625.27L231.601 625.27L225.25 618.892L225.25 628.011L224.002 628.011L224.002 617.019L225.006 617.019L231.194 623.208C231.194 621.362 231.719 619.761 232.768 618.404C233.817 617.029 235.256 616.341 237.083 616.341C238.929 616.341 240.431 617.019 241.589 618.376C242.747 619.715 243.326 621.398 243.326 623.425ZM240.503 599.503C242.385 600.933 243.326 602.769 243.326 605.013C243.326 607.257 242.394 609.093 240.53 610.522C238.648 611.952 236.305 612.667 233.501 612.667C230.696 612.667 228.362 611.952 226.499 610.522C224.617 609.093 223.676 607.257 223.676 605.013C223.676 602.769 224.617 600.933 226.499 599.503C228.38 598.074 230.714 597.359 233.501 597.359C236.287 597.359 238.621 598.074 240.503 599.503ZM242.05 605.013C242.05 603.185 241.245 601.684 239.635 600.508C238.006 599.313 235.962 598.716 233.501 598.716C231.058 598.716 229.032 599.313 227.421 600.508C225.793 601.684 224.979 603.185 224.979 605.013C224.979 606.822 225.793 608.324 227.421 609.518C229.05 610.712 231.076 611.31 233.501 611.31C235.943 611.31 237.979 610.712 239.607 609.518C241.236 608.324 242.05 606.822 242.05 605.013Z" fill="white"/>
</g>
<line x1="115" y1="389.5" x2="804" y2="389.5" stroke="black" stroke-dasharray="8 8"/>
<line x1="114" y1="667" x2="804" y2="667" stroke="black" stroke-width="4"/>
<path d="M697.92 695.688C699.394 694.17 701.233 693.411 703.437 693.411C705.641 693.411 707.481 694.17 708.955 695.688C710.444 697.192 711.188 699.074 711.188 701.337C711.188 703.599 710.444 705.49 708.955 707.008C707.481 708.511 705.641 709.263 703.437 709.263C701.233 709.263 699.394 708.511 697.92 707.008C696.446 705.49 695.709 703.599 695.709 701.337C695.709 699.074 696.446 697.192 697.92 695.688ZM703.437 707.599C705.116 707.599 706.524 707 707.663 705.803C708.802 704.606 709.371 703.118 709.371 701.337C709.371 699.556 708.802 698.067 707.663 696.87C706.524 695.674 705.116 695.075 703.437 695.075C701.773 695.075 700.372 695.674 699.234 696.87C698.095 698.067 697.526 699.556 697.526 701.337C697.526 703.118 698.095 704.606 699.234 705.803C700.372 707 701.773 707.599 703.437 707.599ZM716.262 698.381V702.694L721.123 698.381H723.443L717.97 703.176L724.232 709H721.78L716.262 703.855V709H714.511V698.381H716.262ZM728.724 709V699.892H724.936V698.381H734.241V699.892H730.454V709H728.724ZM702.623 737V735.686L707.725 730.848C708.849 729.782 709.637 728.914 710.089 728.242C710.542 727.571 710.768 726.826 710.768 726.009C710.768 725.119 710.462 724.411 709.849 723.885C709.235 723.345 708.411 723.075 707.374 723.075C705.798 723.075 704.338 723.747 702.996 725.089V723.119C704.236 721.98 705.754 721.411 707.55 721.411C708.965 721.411 710.155 721.82 711.118 722.637C712.082 723.44 712.563 724.491 712.563 725.79C712.563 726.826 712.308 727.761 711.797 728.593C711.286 729.41 710.41 730.41 709.17 731.592L705.207 735.38H713.111V737H702.623ZM719.837 737.263C718.173 737.263 716.757 736.927 715.589 736.256V734.482C716.801 735.227 718.202 735.599 719.793 735.599C721.048 735.599 722.085 735.278 722.902 734.635C723.734 733.993 724.15 733.161 724.15 732.139C724.15 731.147 723.763 730.329 722.99 729.687C722.216 729.045 721.187 728.724 719.902 728.724C718.676 728.724 717.45 728.936 716.224 729.359L717.231 721.674H724.872V723.294H718.567L717.976 727.498C718.662 727.323 719.443 727.235 720.318 727.235C721.939 727.235 723.281 727.695 724.347 728.614C725.413 729.534 725.945 730.709 725.945 732.139C725.945 733.672 725.361 734.913 724.194 735.861C723.026 736.796 721.574 737.263 719.837 737.263Z" fill="black"/>
<path d="M595.85 709.263C593.602 709.263 591.719 708.518 590.201 707.029C588.698 705.541 587.946 703.643 587.946 701.337C587.946 699.045 588.698 697.155 590.201 695.666C591.705 694.163 593.588 693.411 595.85 693.411C597.5 693.411 598.923 693.783 600.12 694.528V696.345C598.835 695.498 597.419 695.075 595.872 695.075C594.15 695.075 592.697 695.674 591.515 696.87C590.347 698.053 589.764 699.542 589.764 701.337C589.764 703.161 590.347 704.665 591.515 705.847C592.697 707.015 594.172 707.599 595.938 707.599C597.689 707.599 599.193 707.102 600.448 706.11V707.927C599.207 708.818 597.675 709.263 595.85 709.263ZM608.45 709.263C606.8 709.263 605.413 708.745 604.29 707.708C603.166 706.657 602.604 705.322 602.604 703.702C602.604 702.096 603.1 700.768 604.093 699.717C605.1 698.651 606.406 698.118 608.012 698.118C608.844 698.118 609.588 698.294 610.245 698.644C610.916 698.98 611.442 699.425 611.821 699.979C612.201 700.534 612.485 701.125 612.675 701.753C612.88 702.381 612.982 703.015 612.982 703.658V704.139H604.377C604.494 705.234 604.946 706.103 605.735 706.745C606.537 707.387 607.559 707.708 608.8 707.708C610.026 707.708 611.164 707.38 612.215 706.723V708.256C611.325 708.927 610.07 709.263 608.45 709.263ZM604.399 702.738H611.23C611.186 701.965 610.887 701.264 610.332 700.636C609.792 699.994 608.99 699.673 607.924 699.673C606.902 699.673 606.07 699.979 605.428 700.593C604.8 701.191 604.457 701.906 604.399 702.738ZM616.541 709V698.381H618.292V702.782H624.576V698.381H626.306V709H624.576V704.336H618.292V709H616.541ZM632.486 709V699.892H628.699V698.381H638.004V699.892H634.216V709H632.486ZM600.623 737V735.686L605.725 730.848C606.849 729.782 607.637 728.914 608.089 728.242C608.542 727.571 608.768 726.826 608.768 726.009C608.768 725.119 608.462 724.411 607.849 723.885C607.235 723.345 606.411 723.075 605.374 723.075C603.798 723.075 602.338 723.747 600.996 725.089V723.119C602.236 721.98 603.754 721.411 605.55 721.411C606.965 721.411 608.155 721.82 609.118 722.637C610.082 723.44 610.563 724.491 610.563 725.79C610.563 726.826 610.308 727.761 609.797 728.593C609.286 729.41 608.41 730.41 607.17 731.592L603.207 735.38H611.111V737H600.623ZM617.837 737.263C616.173 737.263 614.757 736.927 613.589 736.256V734.482C614.801 735.227 616.202 735.599 617.793 735.599C619.048 735.599 620.085 735.278 620.902 734.635C621.734 733.993 622.15 733.161 622.15 732.139C622.15 731.147 621.763 730.329 620.99 729.687C620.216 729.045 619.187 728.724 617.902 728.724C616.676 728.724 615.45 728.936 614.224 729.359L615.231 721.674H622.872V723.294H616.567L615.976 727.498C616.662 727.323 617.443 727.235 618.318 727.235C619.939 727.235 621.281 727.695 622.347 728.614C623.413 729.534 623.945 730.709 623.945 732.139C623.945 733.672 623.361 734.913 622.194 735.861C621.026 736.796 619.574 737.263 617.837 737.263Z" fill="black"/>
<path d="M490.718 709L497.527 693.586H499.213L506.022 709H504.139L502.278 704.862H494.396L492.579 709H490.718ZM495.009 703.286H501.709L498.359 695.819L495.009 703.286ZM508.45 709V698.381H514.077C515.128 698.381 515.93 698.629 516.485 699.126C517.04 699.622 517.317 700.279 517.317 701.096C517.317 702.235 516.872 703.008 515.981 703.417C517.339 703.826 518.018 704.731 518.018 706.132C518.018 707.022 517.711 707.723 517.098 708.234C516.485 708.745 515.602 709 514.449 709H508.45ZM510.201 707.511H514.098C515.544 707.511 516.266 706.978 516.266 705.913C516.266 704.818 515.544 704.271 514.098 704.271H510.201V707.511ZM510.201 702.848H513.617C514.244 702.848 514.733 702.724 515.084 702.475C515.434 702.213 515.609 701.84 515.609 701.359C515.609 700.366 514.945 699.87 513.617 699.87H510.201V702.848ZM521.107 709V698.381H529.143V699.892H522.859V709H521.107ZM498.123 737V735.686L503.225 730.848C504.349 729.782 505.137 728.914 505.589 728.242C506.042 727.571 506.268 726.826 506.268 726.009C506.268 725.119 505.962 724.411 505.349 723.885C504.735 723.345 503.911 723.075 502.874 723.075C501.298 723.075 499.838 723.747 498.496 725.089V723.119C499.736 721.98 501.254 721.411 503.05 721.411C504.465 721.411 505.655 721.82 506.618 722.637C507.582 723.44 508.063 724.491 508.063 725.79C508.063 726.826 507.808 727.761 507.297 728.593C506.786 729.41 505.91 730.41 504.67 731.592L500.707 735.38H508.611V737H498.123ZM515.337 737.263C513.673 737.263 512.257 736.927 511.089 736.256V734.482C512.301 735.227 513.702 735.599 515.293 735.599C516.548 735.599 517.585 735.278 518.402 734.635C519.234 733.993 519.65 733.161 519.65 732.139C519.65 731.147 519.263 730.329 518.49 729.687C517.716 729.045 516.687 728.724 515.402 728.724C514.176 728.724 512.95 728.936 511.724 729.359L512.731 721.674H520.372V723.294H514.067L513.476 727.498C514.162 727.323 514.943 727.235 515.818 727.235C517.439 727.235 518.781 727.695 519.847 728.614C520.913 729.534 521.445 730.709 521.445 732.139C521.445 733.672 520.861 734.913 519.694 735.861C518.526 736.796 517.074 737.263 515.337 737.263Z" fill="black"/>
<path d="M380.297 709V693.674H382.048V706.022L391.353 693.674H392.908V709H391.156V696.608L381.786 709H380.297ZM406.298 709.263C404.896 709.263 403.7 708.81 402.707 707.905C401.729 706.986 401.182 705.825 401.065 704.424H398.569V709H396.817V698.381H398.569V702.87H401.109C401.225 701.512 401.773 700.381 402.751 699.476C403.743 698.571 404.926 698.118 406.298 698.118C407.845 698.118 409.122 698.651 410.129 699.717C411.136 700.782 411.64 702.111 411.64 703.702C411.64 705.278 411.136 706.599 410.129 707.664C409.122 708.73 407.845 709.263 406.298 709.263ZM406.298 707.708C407.363 707.708 408.232 707.329 408.903 706.57C409.589 705.796 409.932 704.84 409.932 703.702C409.932 702.548 409.589 701.592 408.903 700.833C408.232 700.06 407.363 699.673 406.298 699.673C405.247 699.673 404.378 700.06 403.692 700.833C403.021 701.592 402.685 702.548 402.685 703.702C402.685 704.84 403.021 705.796 403.692 706.57C404.378 707.329 405.247 707.708 406.298 707.708ZM412.8 709V707.424C412.873 707.453 413.019 707.467 413.238 707.467C413.676 707.467 414.048 707.329 414.355 707.051C414.676 706.759 414.917 706.343 415.077 705.803C415.238 705.263 415.355 704.679 415.428 704.052C415.515 703.41 415.566 702.658 415.581 701.797L415.668 698.381H423.726V709H421.996V699.892H417.332L417.267 701.84C417.252 702.497 417.223 703.067 417.179 703.548C417.135 704.03 417.062 704.577 416.96 705.19C416.873 705.789 416.734 706.3 416.544 706.723C416.369 707.132 416.143 707.526 415.865 707.905C415.588 708.27 415.23 708.548 414.793 708.737C414.369 708.927 413.88 709.022 413.326 709.022C413.092 709.022 412.917 709.015 412.8 709ZM427.371 709V698.381H429.123V701.862H432.692C433.962 701.862 434.961 702.184 435.691 702.826C436.421 703.468 436.786 704.336 436.786 705.431C436.786 706.482 436.428 707.343 435.713 708.015C435.013 708.672 434.027 709 432.757 709H427.371ZM429.123 707.489H432.473C433.276 707.489 433.903 707.314 434.356 706.964C434.808 706.613 435.034 706.11 435.034 705.453C435.034 704.767 434.808 704.249 434.356 703.899C433.918 703.548 433.29 703.373 432.473 703.373H429.123V707.489ZM396.123 737V735.686L401.225 730.848C402.349 729.782 403.137 728.914 403.589 728.242C404.042 727.571 404.268 726.826 404.268 726.009C404.268 725.119 403.962 724.411 403.349 723.885C402.735 723.345 401.911 723.075 400.874 723.075C399.298 723.075 397.838 723.747 396.496 725.089V723.119C397.736 721.98 399.254 721.411 401.05 721.411C402.465 721.411 403.655 721.82 404.618 722.637C405.582 723.44 406.063 724.491 406.063 725.79C406.063 726.826 405.808 727.761 405.297 728.593C404.786 729.41 403.91 730.41 402.67 731.592L398.707 735.38H406.611V737H396.123ZM413.337 737.263C411.673 737.263 410.257 736.927 409.089 736.256V734.482C410.301 735.227 411.702 735.599 413.293 735.599C414.548 735.599 415.585 735.278 416.402 734.635C417.234 733.993 417.65 733.161 417.65 732.139C417.65 731.147 417.263 730.329 416.49 729.687C415.716 729.045 414.687 728.724 413.402 728.724C412.176 728.724 410.95 728.936 409.724 729.359L410.731 721.674H418.372V723.294H412.067L411.476 727.498C412.162 727.323 412.943 727.235 413.818 727.235C415.439 727.235 416.781 727.695 417.847 728.614C418.913 729.534 419.445 730.709 419.445 732.139C419.445 733.672 418.861 734.913 417.694 735.861C416.526 736.796 415.074 737.263 413.337 737.263Z" fill="black"/>
<path d="M278.198 709V693.674H279.95V706.022L289.255 693.674H290.809V709H289.058V696.608L279.687 709H278.198ZM304.199 709.263C302.798 709.263 301.601 708.81 300.608 707.905C299.63 706.986 299.083 705.825 298.966 704.424H296.47V709H294.719V698.381H296.47V702.87H299.01C299.127 701.512 299.674 700.381 300.652 699.476C301.645 698.571 302.827 698.118 304.199 698.118C305.746 698.118 307.023 698.651 308.031 699.717C309.038 700.782 309.541 702.111 309.541 703.702C309.541 705.278 309.038 706.599 308.031 707.664C307.023 708.73 305.746 709.263 304.199 709.263ZM304.199 707.708C305.265 707.708 306.133 707.329 306.804 706.57C307.49 705.796 307.834 704.84 307.834 703.702C307.834 702.548 307.49 701.592 306.804 700.833C306.133 700.06 305.265 699.673 304.199 699.673C303.148 699.673 302.28 700.06 301.594 700.833C300.922 701.592 300.586 702.548 300.586 703.702C300.586 704.84 300.922 705.796 301.594 706.57C302.28 707.329 303.148 707.708 304.199 707.708ZM313.043 709V698.381H314.794V702.782H321.078V698.381H322.807V709H321.078V704.336H314.794V709H313.043ZM326.47 709V698.381H328.222V701.862H331.79C333.06 701.862 334.06 702.184 334.79 702.826C335.52 703.468 335.885 704.336 335.885 705.431C335.885 706.482 335.527 707.343 334.812 708.015C334.111 708.672 333.126 709 331.856 709H326.47ZM328.222 707.489H331.571C332.374 707.489 333.002 707.314 333.454 706.964C333.907 706.613 334.133 706.11 334.133 705.453C334.133 704.767 333.907 704.249 333.454 703.899C333.016 703.548 332.389 703.373 331.571 703.373H328.222V707.489ZM294.623 737V735.686L299.725 730.848C300.849 729.782 301.637 728.914 302.089 728.242C302.542 727.571 302.768 726.826 302.768 726.009C302.768 725.119 302.462 724.411 301.849 723.885C301.235 723.345 300.411 723.075 299.374 723.075C297.798 723.075 296.338 723.747 294.996 725.089V723.119C296.236 721.98 297.754 721.411 299.55 721.411C300.965 721.411 302.155 721.82 303.118 722.637C304.082 723.44 304.563 724.491 304.563 725.79C304.563 726.826 304.308 727.761 303.797 728.593C303.286 729.41 302.41 730.41 301.17 731.592L297.207 735.38H305.111V737H294.623ZM311.837 737.263C310.173 737.263 308.757 736.927 307.589 736.256V734.482C308.801 735.227 310.202 735.599 311.793 735.599C313.048 735.599 314.085 735.278 314.902 734.635C315.734 733.993 316.15 733.161 316.15 732.139C316.15 731.147 315.763 730.329 314.99 729.687C314.216 729.045 313.187 728.724 311.902 728.724C310.676 728.724 309.45 728.936 308.224 729.359L309.231 721.674H316.872V723.294H310.567L309.976 727.498C310.662 727.323 311.443 727.235 312.318 727.235C313.939 727.235 315.281 727.695 316.347 728.614C317.413 729.534 317.945 730.709 317.945 732.139C317.945 733.672 317.361 734.913 316.194 735.861C315.026 736.796 313.574 737.263 311.837 737.263Z" fill="black"/>
<path d="M183.534 709V693.674H185.286L190.716 700.987L196.146 693.674H197.875V709H196.124V696.367L191.263 702.891H190.19L185.286 696.367V709H183.534ZM205.399 707.708C206.144 707.708 206.83 707.548 207.458 707.227C208.1 706.905 208.603 706.511 208.968 706.044V704.599C207.976 703.942 206.866 703.614 205.64 703.614C204.706 703.614 203.969 703.796 203.429 704.161C202.903 704.512 202.641 705.008 202.641 705.65C202.641 706.336 202.903 706.854 203.429 707.205C203.954 707.54 204.611 707.708 205.399 707.708ZM204.918 709.263C203.794 709.263 202.838 708.949 202.05 708.321C201.276 707.694 200.889 706.832 200.889 705.738C200.889 704.643 201.298 703.789 202.115 703.176C202.947 702.548 203.984 702.235 205.224 702.235C206.669 702.235 207.917 702.563 208.968 703.22V702.256C208.968 700.534 207.83 699.673 205.553 699.673C204.312 699.673 203.159 700.023 202.093 700.724V699.082C203.159 698.44 204.436 698.118 205.925 698.118C207.355 698.118 208.508 698.454 209.384 699.126C210.26 699.797 210.698 700.782 210.698 702.081V706.263C210.698 707.183 211.026 707.643 211.683 707.643C211.946 707.643 212.15 707.591 212.296 707.489V708.847C212.033 709.022 211.661 709.109 211.18 709.109C210.056 709.109 209.377 708.555 209.143 707.445C208.063 708.657 206.655 709.263 204.918 709.263ZM214.808 709V698.381H216.56V706.46L223.128 698.381H224.748V709H222.997V700.943L216.428 709H214.808ZM219.778 696.673C218.713 696.673 217.844 696.367 217.173 695.754C216.501 695.141 216.166 694.316 216.166 693.28H217.676C217.676 693.893 217.859 694.382 218.224 694.747C218.603 695.112 219.114 695.294 219.756 695.294C220.399 695.294 220.902 695.112 221.267 694.747C221.647 694.382 221.844 693.893 221.858 693.28H223.369C223.369 694.301 223.026 695.126 222.34 695.754C221.668 696.367 220.815 696.673 219.778 696.673ZM192.123 737V735.686L197.225 730.848C198.349 729.782 199.137 728.914 199.589 728.242C200.042 727.571 200.268 726.826 200.268 726.009C200.268 725.119 199.962 724.411 199.349 723.885C198.735 723.345 197.911 723.075 196.874 723.075C195.298 723.075 193.838 723.747 192.496 725.089V723.119C193.736 721.98 195.254 721.411 197.05 721.411C198.465 721.411 199.655 721.82 200.618 722.637C201.582 723.44 202.063 724.491 202.063 725.79C202.063 726.826 201.808 727.761 201.297 728.593C200.786 729.41 199.91 730.41 198.67 731.592L194.707 735.38H202.611V737H192.123ZM209.337 737.263C207.673 737.263 206.257 736.927 205.089 736.256V734.482C206.301 735.227 207.702 735.599 209.293 735.599C210.548 735.599 211.585 735.278 212.402 734.635C213.234 733.993 213.65 733.161 213.65 732.139C213.65 731.147 213.263 730.329 212.49 729.687C211.716 729.045 210.687 728.724 209.402 728.724C208.176 728.724 206.95 728.936 205.724 729.359L206.731 721.674H214.372V723.294H208.067L207.476 727.498C208.162 727.323 208.943 727.235 209.818 727.235C211.439 727.235 212.781 727.695 213.847 728.614C214.913 729.534 215.445 730.709 215.445 732.139C215.445 733.672 214.861 734.913 213.694 735.861C212.526 736.796 211.074 737.263 209.337 737.263Z" fill="black"/>
<defs>
<filter id="filter0_i_117_6" x="165" y="586" width="78" height="86" filterUnits="userSpaceOnUse" color-interpolation-filters="sRGB">
<feFlood flood-opacity="0" result="BackgroundImageFix"/>
<feBlend mode="normal" in="SourceGraphic" in2="BackgroundImageFix" result="shape"/>
<feColorMatrix in="SourceAlpha" type="matrix" values="0 0 0 0 0 0 0 0 0 0 0 0 0 0 0 0 0 0 127 0" result="hardAlpha"/>
<feOffset dy="3"/>
<feGaussianBlur stdDeviation="2"/>
<feComposite in2="hardAlpha" operator="arithmetic" k2="-1" k3="1"/>
<feColorMatrix type="matrix" values="0 0 0 0 1 0 0 0 0 1 0 0 0 0 1 0 0 0 0.4 0"/>
<feBlend mode="normal" in2="shape" result="effect1_innerShadow_117_6"/>
</filter>
<filter id="filter1_i_117_6" x="267" y="567" width="78" height="105" filterUnits="userSpaceOnUse" color-interpolation-filters="sRGB">
<feFlood flood-opacity="0" result="BackgroundImageFix"/>
<feBlend mode="normal" in="SourceGraphic" in2="BackgroundImageFix" result="shape"/>
<feColorMatrix in="SourceAlpha" type="matrix" values="0 0 0 0 0 0 0 0 0 0 0 0 0 0 0 0 0 0 127 0" result="hardAlpha"/>
<feOffset dy="3"/>
<feGaussianBlur stdDeviation="2"/>
<feComposite in2="hardAlpha" operator="arithmetic" k2="-1" k3="1"/>
<feColorMatrix type="matrix" values="0 0 0 0 1 0 0 0 0 1 0 0 0 0 1 0 0 0 0.4 0"/>
<feBlend mode="normal" in2="shape" result="effect1_innerShadow_117_6"/>
</filter>
<filter id="filter2_i_117_6" x="369" y="475" width="78" height="197" filterUnits="userSpaceOnUse" color-interpolation-filters="sRGB">
<feFlood flood-opacity="0" result="BackgroundImageFix"/>
<feBlend mode="normal" in="SourceGraphic" in2="BackgroundImageFix" result="shape"/>
<feColorMatrix in="SourceAlpha" type="matrix" values="0 0 0 0 0 0 0 0 0 0 0 0 0 0 0 0 0 0 127 0" result="hardAlpha"/>
<feOffset dy="3"/>
<feGaussianBlur stdDeviation="2"/>
<feComposite in2="hardAlpha" operator="arithmetic" k2="-1" k3="1"/>
<feColorMatrix type="matrix" values="0 0 0 0 1 0 0 0 0 1 0 0 0 0 1 0 0 0 0.4 0"/>
<feBlend mode="normal" in2="shape" result="effect1_innerShadow_117_6"/>
</filter>
<filter id="filter3_i_117_6" x="573" y="371" width="78" height="301" filterUnits="userSpaceOnUse" color-interpolation-filters="sRGB">
<feFlood flood-opacity="0" result="BackgroundImageFix"/>
<feBlend mode="normal" in="SourceGraphic" in2="BackgroundImageFix" result="shape"/>
<feColorMatrix in="SourceAlpha" type="matrix" values="0 0 0 0 0 0 0 0 0 0 0 0 0 0 0 0 0 0 127 0" result="hardAlpha"/>
<feOffset dy="3"/>
<feGaussianBlur stdDeviation="2"/>
<feComposite in2="hardAlpha" operator="arithmetic" k2="-1" k3="1"/>
<feColorMatrix type="matrix" values="0 0 0 0 1 0 0 0 0 1 0 0 0 0 1 0 0 0 0.4 0"/>
<feBlend mode="normal" in2="shape" result="effect1_innerShadow_117_6"/>
</filter>
<filter id="filter4_i_117_6" x="471" y="354" width="78" height="318" filterUnits="userSpaceOnUse" color-interpolation-filters="sRGB">
<feFlood flood-opacity="0" result="BackgroundImageFix"/>
<feBlend mode="normal" in="SourceGraphic" in2="BackgroundImageFix" result="shape"/>
<feColorMatrix in="SourceAlpha" type="matrix" values="0 0 0 0 0 0 0 0 0 0 0 0 0 0 0 0 0 0 127 0" result="hardAlpha"/>
<feOffset dy="3"/>
<feGaussianBlur stdDeviation="2"/>
<feComposite in2="hardAlpha" operator="arithmetic" k2="-1" k3="1"/>
<feColorMatrix type="matrix" values="0 0 0 0 1 0 0 0 0 1 0 0 0 0 1 0 0 0 0.4 0"/>
<feBlend mode="normal" in2="shape" result="effect1_innerShadow_117_6"/>
</filter>
<filter id="filter5_i_117_6" x="675" y="230" width="78" height="442" filterUnits="userSpaceOnUse" color-interpolation-filters="sRGB">
<feFlood flood-opacity="0" result="BackgroundImageFix"/>
<feBlend mode="normal" in="SourceGraphic" in2="BackgroundImageFix" result="shape"/>
<feColorMatrix in="SourceAlpha" type="matrix" values="0 0 0 0 0 0 0 0 0 0 0 0 0 0 0 0 0 0 127 0" result="hardAlpha"/>
<feOffset dy="3"/>
<feGaussianBlur stdDeviation="2"/>
<feComposite in2="hardAlpha" operator="arithmetic" k2="-1" k3="1"/>
<feColorMatrix type="matrix" values="0 0 0 0 1 0 0 0 0 1 0 0 0 0 1 0 0 0 0.4 0"/>
<feBlend mode="normal" in2="shape" result="effect1_innerShadow_117_6"/>
</filter>
<linearGradient id="paint0_linear_117_6" x1="114" y1="288.119" x2="804" y2="289.881" gradientUnits="userSpaceOnUse">
<stop stop-color="#029CE4" stop-opacity="0"/>
<stop offset="0.245192" stop-color="#029CE4"/>
<stop offset="0.55" stop-color="#1F52A8"/>
<stop offset="0.75" stop-color="#312684"/>
<stop offset="1" stop-color="#312684" stop-opacity="0"/>
</linearGradient>
<linearGradient id="paint1_linear_117_6" x1="205.526" y1="585.527" x2="179.485" y2="659.88" gradientUnits="userSpaceOnUse">
<stop stop-color="#029CE4"/>
<stop offset="1" stop-color="#312684"/>
</linearGradient>
<linearGradient id="paint2_linear_117_6" x1="307.526" y1="566.419" x2="270.275" y2="652.968" gradientUnits="userSpaceOnUse">
<stop stop-color="#029CE4"/>
<stop offset="1" stop-color="#312684"/>
</linearGradient>
<linearGradient id="paint3_linear_117_6" x1="409.526" y1="473.895" x2="313.895" y2="590.717" gradientUnits="userSpaceOnUse">
<stop stop-color="#029CE4"/>
<stop offset="1" stop-color="#312684"/>
</linearGradient>
<linearGradient id="paint4_linear_117_6" x1="613.526" y1="369.303" x2="467.525" y2="485.413" gradientUnits="userSpaceOnUse">
<stop stop-color="#029CE4"/>
<stop offset="1" stop-color="#312684"/>
</linearGradient>
<linearGradient id="paint5_linear_117_6" x1="511.526" y1="352.206" x2="359.332" y2="466.709" gradientUnits="userSpaceOnUse">
<stop stop-color="#029CE4"/>
<stop offset="1" stop-color="#312684"/>
</linearGradient>
<linearGradient id="paint6_linear_117_6" x1="715.526" y1="227.5" x2="530.971" y2="327.13" gradientUnits="userSpaceOnUse">
<stop stop-color="#029CE4"/>
<stop offset="1" stop-color="#312684"/>
</linearGradient>
</defs>
</svg>
