<svg width="1440" height="840" viewBox="0 0 1440 840" fill="none" xmlns="http://www.w3.org/2000/svg">
<rect width="1440" height="840" fill="white"/>
<rect opacity="0.1" x="114" y="187" width="690" height="482" fill="url(#paint0_linear_118_795)"/>
<g filter="url(#filter0_i_118_795)">
<rect x="165" y="586" width="78" height="83" fill="url(#paint1_linear_118_795)"/>
</g>
<g filter="url(#filter1_i_118_795)">
<rect x="267" y="567" width="78" height="102" fill="url(#paint2_linear_118_795)"/>
</g>
<g filter="url(#filter2_i_118_795)">
<rect x="369" y="475" width="78" height="194" fill="url(#paint3_linear_118_795)"/>
</g>
<g filter="url(#filter3_i_118_795)">
<rect x="573" y="371" width="78" height="298" fill="url(#paint4_linear_118_795)"/>
</g>
<g filter="url(#filter4_i_118_795)">
<rect x="471" y="354" width="78" height="315" fill="url(#paint5_linear_118_795)"/>
</g>
<g filter="url(#filter5_i_118_795)">
<rect x="675" y="230" width="78" height="439" fill="url(#paint6_linear_118_795)"/>
</g>
<g style="mix-blend-mode:soft-light">
<path d="M753 638.056L739.002 638.056L739.002 667.203L725.802 667.203L690.986 638.853L690.986 620.072L724.651 620.072L724.651 612.01L739.002 612.01L739.002 620.072L753 620.072L753 638.056ZM724.651 649.041L724.651 638.056L711.716 638.056L724.651 649.041ZM753 608.685L739.357 608.685L726.068 593.359C722.879 589.638 720.28 587.098 718.272 585.74C716.264 584.322 714.315 583.614 712.425 583.614C710.712 583.614 709.383 584.263 708.438 585.563C707.493 586.862 707.021 588.575 707.021 590.701C707.021 595.898 709.029 601.125 713.045 606.382L694.352 606.382C691.281 601.657 689.745 595.751 689.745 588.663C689.745 582.403 691.576 576.851 695.238 572.008C698.9 567.106 703.832 564.655 710.033 564.655C714.581 564.655 718.597 565.6 722.081 567.49C725.507 569.321 729.257 572.687 733.333 577.589L737.142 582.196L737.142 562.794L753 562.794L753 608.685ZM754.24 545.282C754.24 548.235 753.177 550.804 751.051 552.989C748.925 555.115 746.356 556.178 743.343 556.178C740.331 556.178 737.792 555.115 735.725 552.989C733.598 550.863 732.535 548.294 732.535 545.282C732.535 542.27 733.598 539.73 735.725 537.663C737.792 535.537 740.331 534.473 743.343 534.473C746.356 534.473 748.925 535.537 751.051 537.663C753.177 539.73 754.24 542.27 754.24 545.282ZM711.007 501.622C711.007 495.953 712.838 491.287 716.5 487.625C720.162 483.904 725.212 482.044 731.649 482.044C738.441 482.044 743.905 484.318 748.039 488.865C752.173 493.413 754.24 499.112 754.24 505.963C754.24 514.232 751.612 520.64 746.356 525.188C741.099 529.677 734.041 531.921 725.182 531.921C721.638 531.921 718.242 531.596 714.994 530.946C711.687 530.238 708.497 529.115 705.426 527.58C702.296 526.044 699.609 524.154 697.364 521.91C695.061 519.666 693.23 516.831 691.872 513.405C690.454 509.98 689.745 506.2 689.745 502.065C689.745 495.628 690.986 490.667 693.466 487.182L710.033 487.182C707.375 490.844 706.046 495.037 706.046 499.762C706.046 503.129 706.844 506.023 708.438 508.444C709.974 510.866 712.277 512.313 715.348 512.785C712.454 510.068 711.007 506.347 711.007 501.622ZM738.737 507.292C738.737 505.107 738.087 503.453 736.788 502.331C735.488 501.15 733.805 500.559 731.738 500.559C729.966 500.559 728.431 501.15 727.131 502.331C725.773 503.512 725.094 505.107 725.094 507.115C725.094 508.533 725.477 509.891 726.245 511.19C727.013 512.49 728.076 513.464 729.435 514.114C732.506 514.114 734.839 513.435 736.433 512.076C737.969 510.659 738.737 509.064 738.737 507.292ZM753 477.008L739.357 477.008L726.068 461.682C722.879 457.961 720.28 455.422 718.272 454.063C716.264 452.646 714.315 451.937 712.425 451.937C710.712 451.937 709.383 452.587 708.438 453.886C707.493 455.185 707.021 456.898 707.021 459.024C707.021 464.222 709.029 469.449 713.045 474.705L694.352 474.705C691.281 469.98 689.745 464.074 689.745 456.987C689.745 450.726 691.576 445.174 695.238 440.331C698.9 435.429 703.832 432.978 710.033 432.978C714.581 432.978 718.597 433.923 722.081 435.813C725.507 437.644 729.257 441.011 733.333 445.913L737.142 450.52L737.142 431.118L753 431.118L753 477.008ZM753 414.007L710.83 414.007L715.88 426.321L697.896 426.321L690.986 411.792L690.986 395.402L753 395.402L753 414.007Z" fill="white"/>
</g>
<g style="mix-blend-mode:soft-light">
<path d="M651.973 650.493C651.973 656.236 650.676 661.168 648.082 665.291L638.564 665.291C641.529 660.983 643.011 656.236 643.011 651.049C643.011 648.223 642.293 645.838 640.857 643.893C639.421 641.901 637.43 640.906 634.882 640.906C632.52 640.906 630.621 641.762 629.186 643.476C627.703 645.19 626.962 647.552 626.962 650.562C626.962 652.878 627.402 655.171 628.282 657.44L621.682 657.44L610.984 645.838L610.984 663.762L602.369 663.762L602.369 633.055L609.872 633.055L619.946 644.032C620.594 640.558 622.192 637.501 624.739 634.861C627.287 632.221 630.668 630.901 634.882 630.901C640.07 630.901 644.215 632.777 647.318 636.529C650.421 640.28 651.973 644.935 651.973 650.493ZM651.973 610.397C651.973 616.14 650.676 621.072 648.082 625.194L638.564 625.194C641.529 620.887 643.011 616.14 643.011 610.952C643.011 608.127 642.293 605.742 640.857 603.797C639.421 601.805 637.43 600.809 634.882 600.809C632.52 600.809 630.621 601.666 629.186 603.38C627.703 605.094 626.962 607.456 626.962 610.466C626.962 612.782 627.402 615.075 628.282 617.344L621.682 617.344L610.984 605.742L610.984 623.666L602.369 623.666L602.369 592.959L609.872 592.959L619.946 603.936C620.594 600.462 622.192 597.405 624.739 594.765C627.287 592.125 630.668 590.805 634.882 590.805C640.07 590.805 644.215 592.681 647.318 596.433C650.421 600.184 651.973 604.839 651.973 610.397ZM651.764 578.637C651.764 580.351 651.185 581.787 650.027 582.945C648.823 584.102 647.364 584.681 645.651 584.681C643.983 584.681 642.571 584.102 641.413 582.945C640.255 581.787 639.676 580.351 639.676 578.637C639.676 576.97 640.255 575.557 641.413 574.399C642.571 573.195 643.983 572.593 645.651 572.593C647.364 572.593 648.823 573.195 650.027 574.399C651.185 575.557 651.764 576.97 651.764 578.637ZM651 543.575L638.842 543.575L638.842 567.96L631.617 567.96L602.369 543.714L602.369 533.848L630.783 533.848L630.783 526.693L638.842 526.693L638.842 533.848L651 533.848L651 543.575ZM630.783 556.913L630.783 543.575L614.944 543.575L630.783 556.913ZM651.973 507.961C651.973 513.102 650.815 517.71 648.499 521.786L639.12 521.786C641.714 517.71 643.011 513.241 643.011 508.378C643.011 505.275 642.316 502.704 640.926 500.666C639.537 498.629 637.522 497.61 634.882 497.61C632.474 497.61 630.529 498.582 629.047 500.528C627.564 502.426 626.823 505.066 626.823 508.447C626.823 512.292 627.518 516.182 628.908 520.119L602.369 516.923L602.369 490.94L610.984 490.94L610.984 509.559L619.251 510.601C618.927 509.073 618.765 507.521 618.765 505.946C618.765 500.62 620.247 496.243 623.211 492.816C626.175 489.342 630.066 487.606 634.882 487.606C640.209 487.606 644.4 489.574 647.457 493.511C650.467 497.401 651.973 502.218 651.973 507.961ZM651.973 459.753C651.973 464.06 650.768 467.835 648.36 471.077C645.952 474.319 642.872 476.751 639.12 478.372C635.322 479.946 631.177 480.734 626.684 480.734C622.192 480.734 618.07 479.946 614.318 478.372C610.52 476.751 607.417 474.319 605.009 471.077C602.601 467.835 601.396 464.06 601.396 459.753C601.396 453.361 603.874 448.29 608.83 444.538C613.786 440.741 619.737 438.842 626.684 438.842C633.632 438.842 639.583 440.741 644.539 444.538C649.495 448.29 651.973 453.361 651.973 459.753ZM638.009 467.742C641.065 465.751 642.594 463.088 642.594 459.753C642.594 456.418 641.065 453.778 638.009 451.833C634.905 449.841 631.131 448.846 626.684 448.846C622.238 448.846 618.487 449.841 615.43 451.833C612.327 453.778 610.775 456.418 610.775 459.753C610.775 463.088 612.327 465.751 615.43 467.742C618.487 469.734 622.238 470.73 626.684 470.73C631.131 470.73 634.905 469.734 638.009 467.742Z" fill="white"/>
</g>
<g style="mix-blend-mode:soft-light">
<path d="M550.13 647.332C550.13 653.952 548.569 659.819 545.448 664.932L531.965 664.932C535.571 659.335 537.374 653.71 537.374 648.059C537.374 645.314 536.702 643.026 535.356 641.196C534.01 639.367 532.154 638.452 529.785 638.452C527.633 638.452 525.883 639.259 524.538 640.874C523.192 642.434 522.519 644.641 522.519 647.494C522.519 650.831 523.165 653.791 524.457 656.374L515.011 656.374L504.677 644.426L504.677 663.398L492.487 663.398L492.487 626.503L503.386 626.503L513.074 637.483C513.45 636.083 514.016 634.684 514.769 633.285C515.523 631.831 516.545 630.378 517.837 628.925C519.129 627.418 520.824 626.207 522.923 625.292C524.968 624.323 527.256 623.839 529.785 623.839C536.029 623.839 540.98 626.099 544.64 630.62C548.3 635.088 550.13 640.658 550.13 647.332ZM549 592.35L535.598 592.35L535.598 619.557L525.426 619.557L492.487 592.592L492.487 578.222L524.296 578.222L524.296 570.391L535.598 570.391L535.598 578.222L549 578.222L549 592.35ZM524.296 604.218L524.296 592.35L510.086 592.35L524.296 604.218ZM547.628 551.462C549.296 553.077 550.13 555.068 550.13 557.436C550.13 559.804 549.296 561.823 547.628 563.491C545.959 565.106 543.941 565.913 541.573 565.913C539.204 565.913 537.213 565.106 535.598 563.491C533.93 561.823 533.096 559.804 533.096 557.436C533.096 555.068 533.93 553.077 535.598 551.462C537.213 549.793 539.204 548.959 541.573 548.959C543.941 548.959 545.959 549.793 547.628 551.462ZM549 541.084L538.505 541.084L524.941 525.825C521.658 522.219 519.048 519.743 517.11 518.398C515.119 517.052 513.101 516.379 511.055 516.379C509.118 516.379 507.584 517.106 506.453 518.559C505.269 520.012 504.677 521.95 504.677 524.372C504.677 529.378 506.669 534.302 510.652 539.146L496.12 539.146C492.944 534.679 491.356 529.243 491.356 522.838C491.356 517.241 492.998 512.343 496.281 508.145C499.564 503.947 503.897 501.847 509.279 501.847C513.316 501.847 516.868 502.736 519.936 504.512C522.95 506.234 526.475 509.329 530.512 513.796L536.648 520.658L536.648 500.071L549 500.071L549 541.084ZM549 484.003L507.826 484.003L513.154 495.548L499.187 495.548L492.487 482.307L492.487 469.713L549 469.713L549 484.003ZM549 461.691L538.505 461.691L524.941 446.432C521.658 442.826 519.048 440.35 517.11 439.005C515.119 437.659 513.101 436.986 511.055 436.986C509.118 436.986 507.584 437.713 506.453 439.166C505.269 440.619 504.677 442.557 504.677 444.979C504.677 449.984 506.669 454.909 510.652 459.753L496.12 459.753C492.944 455.286 491.356 449.85 491.356 443.445C491.356 437.848 492.998 432.95 496.281 428.752C499.564 424.553 503.897 422.454 509.279 422.454C513.316 422.454 516.868 423.342 519.936 425.119C522.95 426.841 526.475 429.936 530.512 434.403L536.648 441.265L536.648 420.678L549 420.678L549 461.691Z" fill="white"/>
</g>
<g style="mix-blend-mode:soft-light">
<path d="M447 665.591L442.182 665.591L429.774 652.34C427.004 649.369 424.755 647.301 423.029 646.137C421.262 644.932 419.334 644.33 417.247 644.33C415.118 644.33 413.412 645.093 412.127 646.618C410.802 648.144 410.139 650.172 410.139 652.702C410.139 656.878 411.886 660.813 415.379 664.507L408.453 664.507C405.522 661.013 404.056 656.858 404.056 652.039C404.056 648.064 405.201 644.691 407.489 641.921C409.778 639.11 412.769 637.704 416.464 637.704C419.355 637.704 421.944 638.407 424.233 639.813C426.482 641.178 429.212 643.547 432.424 646.92L441.097 656.014L441.097 636.259L447 636.259L447 665.591ZM447 622.457L411.946 622.457L416.885 631.673L410.441 631.673L404.839 621.735L404.839 615.953L447 615.953L447 622.457ZM447.482 602.652C447.482 603.856 447.08 604.88 446.277 605.723C445.434 606.526 444.41 606.928 443.206 606.928C442.041 606.928 441.057 606.526 440.254 605.723C439.411 604.88 438.989 603.856 438.989 602.652C438.989 601.487 439.411 600.504 440.254 599.7C441.057 598.857 442.041 598.436 443.206 598.436C444.41 598.436 445.434 598.857 446.277 599.7C447.08 600.504 447.482 601.487 447.482 602.652ZM447 590.939L410.802 572.689L410.802 593.95L404.839 593.95L404.839 565.161L409.959 565.161L447 583.832L447 590.939ZM447.783 544.365C447.783 549.505 446.036 553.54 442.543 556.471C439.05 559.362 434.211 560.808 428.028 560.808C421.242 560.808 415.56 559.141 410.983 555.809C406.365 552.476 404.056 547.858 404.056 541.956C404.056 538.342 404.94 535.25 406.706 532.68L412.729 532.68C410.963 535.29 410.079 538.141 410.079 541.233C410.079 545.288 411.485 548.4 414.295 550.569C417.106 552.697 420.519 553.841 424.534 554.002C421.362 551.552 419.776 547.918 419.776 543.1C419.776 539.245 421.021 536.033 423.51 533.463C425.96 530.853 429.192 529.548 433.207 529.548C437.504 529.548 441.017 530.954 443.748 533.764C446.438 536.575 447.783 540.109 447.783 544.365ZM441.941 544.787C441.941 542.297 441.138 540.229 439.532 538.583C437.925 536.937 435.858 536.113 433.328 536.113C430.879 536.113 428.911 536.937 427.425 538.583C425.9 540.229 425.137 542.317 425.137 544.847C425.137 546.895 425.779 548.842 427.064 550.689C428.349 552.496 429.935 553.66 431.822 554.182C434.954 553.941 437.423 553.018 439.23 551.412C441.037 549.765 441.941 547.557 441.941 544.787ZM447.783 510.837C447.783 515.374 446.819 519.329 444.892 522.702L438.688 522.702C440.816 519.249 441.88 515.394 441.88 511.138C441.88 508.086 441.118 505.537 439.592 503.489C438.026 501.401 435.958 500.357 433.388 500.357C430.939 500.357 428.931 501.32 427.365 503.248C425.799 505.175 425.016 507.745 425.016 510.957C425.016 514.169 425.618 517.542 426.823 521.076L404.839 518.305L404.839 496.623L410.621 496.623L410.621 513.487L420.318 514.691C419.877 513.125 419.656 511.359 419.656 509.391C419.656 504.814 420.941 501.059 423.51 498.128C426.04 495.157 429.333 493.671 433.388 493.671C437.765 493.671 441.258 495.318 443.868 498.61C446.478 501.862 447.783 505.938 447.783 510.837Z" fill="white"/>
</g>
<g style="mix-blend-mode:soft-light">
<path d="M345 664.432L322.666 653.158L322.666 666.43L320.026 666.43L320.026 649.84L322.202 649.84L345 661.364L345 664.432ZM344.643 649.99C344.263 650.37 343.799 650.561 343.252 650.561C342.705 650.561 342.241 650.37 341.86 649.99C341.456 649.609 341.254 649.134 341.254 648.563C341.254 648.016 341.456 647.552 341.86 647.171C342.241 646.791 342.705 646.6 343.252 646.6C343.799 646.6 344.263 646.791 344.643 647.171C345.024 647.552 345.214 648.016 345.214 648.563C345.214 649.134 345.024 649.609 344.643 649.99ZM345 629.752L338.186 629.752L338.186 643.059L335.902 643.059L320.026 629.716L320.026 626.933L335.617 626.933L335.617 622.83L338.186 622.83L338.186 626.933L345 626.933L345 629.752ZM335.617 639.741L335.617 629.752L323.843 629.752L335.617 639.741ZM341.718 601.645C344.191 603.548 345.428 606.022 345.428 609.066C345.428 612.111 344.191 614.596 341.718 616.523C339.22 618.426 336.152 619.377 332.513 619.377C328.874 619.377 325.817 618.426 323.344 616.523C320.846 614.596 319.598 612.111 319.598 609.066C319.598 606.022 320.846 603.548 323.344 601.645C325.817 599.742 328.874 598.791 332.513 598.791C336.152 598.791 339.22 599.742 341.718 601.645ZM339.791 614.382C341.741 613.003 342.717 611.231 342.717 609.066C342.717 606.902 341.741 605.13 339.791 603.75C337.841 602.371 335.415 601.681 332.513 601.681C329.611 601.681 327.185 602.371 325.235 603.75C323.284 605.13 322.309 606.902 322.309 609.066C322.309 611.231 323.284 613.003 325.235 614.382C327.185 615.762 329.611 616.451 332.513 616.451C335.415 616.451 337.841 615.762 339.791 614.382ZM345.428 587.374C345.428 590.085 344.881 592.393 343.787 594.295L340.897 594.295C342.11 592.321 342.717 590.038 342.717 587.445C342.717 585.4 342.193 583.711 341.147 582.379C340.1 581.023 338.745 580.345 337.08 580.345C335.462 580.345 334.13 580.976 333.084 582.236C332.037 583.497 331.514 585.174 331.514 587.267C331.514 589.265 331.859 591.263 332.549 593.261L320.026 591.62L320.026 579.168L322.666 579.168L322.666 589.443L329.516 590.407C329.231 589.289 329.088 588.016 329.088 586.589C329.088 583.949 329.837 581.761 331.336 580.024C332.834 578.288 334.749 577.42 337.08 577.42C339.577 577.42 341.599 578.371 343.145 580.274C344.667 582.177 345.428 584.544 345.428 587.374Z" fill="white"/>
</g>
<g style="mix-blend-mode:soft-light">
<path d="M243.326 661.025C243.326 663.033 242.91 664.77 242.077 666.236L240.666 666.236C241.589 664.734 242.05 663.006 242.05 661.052C242.05 659.315 241.58 657.877 240.639 656.737C239.698 655.579 238.522 655 237.111 655C235.753 655 234.632 655.533 233.745 656.601C232.858 657.668 232.415 659.08 232.415 660.835C232.415 662.518 232.669 664.037 233.175 665.395L224.002 664.146L224.002 654.973L225.25 654.973L225.25 663.088L231.547 663.956C231.275 663.088 231.14 661.948 231.14 660.536C231.14 658.564 231.71 656.927 232.849 655.624C233.971 654.303 235.392 653.643 237.111 653.643C238.902 653.643 240.385 654.348 241.562 655.76C242.738 657.153 243.326 658.908 243.326 661.025ZM242.783 650.004C242.566 650.203 242.303 650.302 241.996 650.302C241.688 650.302 241.435 650.203 241.236 650.004C241.019 649.787 240.91 649.524 240.91 649.217C240.91 648.909 241.019 648.656 241.236 648.457C241.435 648.24 241.688 648.131 241.996 648.131C242.303 648.131 242.566 648.24 242.783 648.457C242.982 648.656 243.081 648.909 243.081 649.217C243.081 649.524 242.982 649.787 242.783 650.004ZM243.326 639.212C243.326 641.22 242.91 642.957 242.077 644.423L240.666 644.423C241.589 642.921 242.05 641.193 242.05 639.239C242.05 637.502 241.58 636.063 240.639 634.924C239.698 633.766 238.522 633.187 237.111 633.187C235.753 633.187 234.632 633.72 233.745 634.788C232.858 635.855 232.415 637.267 232.415 639.022C232.415 640.704 232.668 642.224 233.175 643.581L224.002 642.333L224.002 633.159L225.25 633.159L225.25 641.274L231.547 642.143C231.275 641.274 231.14 640.135 231.14 638.723C231.14 636.751 231.71 635.114 232.849 633.811C233.971 632.49 235.392 631.83 237.111 631.83C238.902 631.83 240.385 632.535 241.562 633.946C242.738 635.34 243.326 637.095 243.326 639.212ZM243.326 623.425C243.326 625.596 242.864 627.414 241.942 628.88L240.476 628.88C241.525 627.469 242.05 625.686 242.05 623.533C242.05 621.959 241.607 620.593 240.72 619.435C239.816 618.277 238.603 617.698 237.083 617.698C235.672 617.698 234.532 618.214 233.664 619.245C232.777 620.258 232.334 621.624 232.334 623.343C232.334 623.958 232.406 624.601 232.551 625.27L231.601 625.27L225.25 618.892L225.25 628.011L224.002 628.011L224.002 617.019L225.006 617.019L231.194 623.208C231.194 621.362 231.719 619.761 232.768 618.404C233.817 617.029 235.256 616.341 237.083 616.341C238.929 616.341 240.431 617.019 241.589 618.376C242.747 619.715 243.326 621.398 243.326 623.425ZM240.503 599.503C242.385 600.933 243.326 602.769 243.326 605.013C243.326 607.257 242.394 609.093 240.53 610.522C238.648 611.952 236.305 612.667 233.501 612.667C230.696 612.667 228.362 611.952 226.499 610.522C224.617 609.093 223.676 607.257 223.676 605.013C223.676 602.769 224.617 600.933 226.499 599.503C228.38 598.074 230.714 597.359 233.501 597.359C236.287 597.359 238.621 598.074 240.503 599.503ZM242.05 605.013C242.05 603.185 241.245 601.684 239.635 600.508C238.006 599.313 235.962 598.716 233.501 598.716C231.058 598.716 229.032 599.313 227.421 600.508C225.793 601.684 224.979 603.185 224.979 605.013C224.979 606.822 225.793 608.324 227.421 609.518C229.05 610.712 231.076 611.31 233.501 611.31C235.943 611.31 237.979 610.712 239.607 609.518C241.236 608.324 242.05 606.822 242.05 605.013Z" fill="white"/>
</g>
<line x1="115" y1="389.5" x2="804" y2="389.5" stroke="black" stroke-dasharray="8 8"/>
<line x1="114" y1="667" x2="804" y2="667" stroke="black" stroke-width="4"/>
<path d="M710.211 701.162C710.211 702.373 710.058 703.475 709.751 704.468C709.444 705.446 708.985 706.292 708.372 707.008C707.773 707.723 707.021 708.27 706.117 708.65C705.226 709.029 704.19 709.219 703.007 709.219C701.781 709.219 700.716 709.029 699.811 708.65C698.906 708.256 698.154 707.708 697.556 707.008C696.957 706.292 696.512 705.438 696.22 704.446C695.928 703.453 695.782 702.351 695.782 701.14C695.782 699.534 696.045 698.133 696.571 696.936C697.096 695.739 697.891 694.805 698.957 694.134C700.037 693.462 701.395 693.126 703.029 693.126C704.591 693.126 705.905 693.462 706.97 694.134C708.036 694.79 708.839 695.725 709.379 696.936C709.933 698.133 710.211 699.542 710.211 701.162ZM697.862 701.162C697.862 702.475 698.045 703.607 698.41 704.555C698.775 705.504 699.337 706.234 700.096 706.745C700.869 707.256 701.84 707.511 703.007 707.511C704.19 707.511 705.153 707.256 705.898 706.745C706.657 706.234 707.219 705.504 707.583 704.555C707.948 703.607 708.131 702.475 708.131 701.162C708.131 699.191 707.722 697.651 706.905 696.542C706.087 695.418 704.796 694.856 703.029 694.856C701.847 694.856 700.869 695.112 700.096 695.622C699.337 696.119 698.775 696.841 698.41 697.79C698.045 698.724 697.862 699.848 697.862 701.162ZM720.353 697.265H722.455L717.441 702.913L722.871 709H720.638L715.34 703.045V709H713.413V697.265H715.34V702.957L720.353 697.265ZM733.103 698.885H729.271V709H727.366V698.885H723.578V697.265H733.103V698.885ZM709.179 721.644C708.23 721.644 707.084 721.965 705.741 722.608L705.194 721.579C705.588 721.36 706.165 721.112 706.924 720.834C707.697 720.557 708.412 720.418 709.069 720.418C710.383 720.418 711.397 720.696 712.113 721.25C713.003 721.922 713.448 722.951 713.448 724.337C713.448 725.257 713.229 726.133 712.791 726.965C712.368 727.797 711.828 728.607 711.171 729.395C710.514 730.169 709.784 730.92 708.982 731.65C708.179 732.38 707.405 733.095 706.661 733.796H713.798L713.93 735H704.997L704.756 733.796C705.836 732.745 706.821 731.789 707.712 730.928C708.602 730.066 709.361 729.264 709.989 728.519C710.631 727.76 711.12 727.045 711.456 726.374C711.806 725.688 711.981 724.994 711.981 724.294C711.981 723.184 711.529 722.396 710.624 721.929C710.259 721.739 709.777 721.644 709.179 721.644ZM718.02 733.861C721.041 733.861 722.552 732.796 722.552 730.665C722.552 728.972 721.428 728.067 719.18 727.95C718.582 727.921 718.005 727.906 717.451 727.906H717.21L717.648 720.506H723.909V721.71H719.027L718.72 726.921C720.326 726.921 721.53 727.118 722.333 727.512C723.472 728.096 724.041 729.125 724.041 730.599C724.041 732.847 722.88 734.248 720.56 734.803C719.844 734.978 719.02 735.066 718.085 735.066C717.151 735.066 716.261 734.949 715.414 734.715L715.765 733.577C716.305 733.767 717.056 733.861 718.02 733.861Z" fill="black"/>
<path d="M594.101 709.263C591.809 709.263 589.912 708.723 588.408 707.643V705.672C588.992 706.183 589.795 706.635 590.817 707.029C591.853 707.409 592.911 707.599 593.991 707.599C595.159 707.599 596.123 707.351 596.882 706.854C597.641 706.358 598.02 705.687 598.02 704.84C598.02 704.475 597.94 704.154 597.779 703.877C597.633 703.585 597.458 703.344 597.254 703.154C597.064 702.964 596.75 702.782 596.312 702.607C595.889 702.417 595.517 702.271 595.196 702.169C594.889 702.067 594.422 701.928 593.794 701.753C592.948 701.519 592.276 701.315 591.78 701.14C591.284 700.95 590.766 700.695 590.226 700.374C589.7 700.038 589.313 699.629 589.065 699.147C588.817 698.666 588.693 698.089 588.693 697.418C588.693 696.25 589.167 695.294 590.116 694.55C591.065 693.791 592.379 693.411 594.057 693.411C595.896 693.411 597.495 693.834 598.852 694.681V696.498C597.349 695.549 595.765 695.075 594.101 695.075C592.904 695.075 592.006 695.301 591.408 695.754C590.809 696.206 590.51 696.776 590.51 697.462C590.51 697.651 590.532 697.834 590.576 698.009C590.62 698.17 590.693 698.323 590.795 698.469C590.912 698.6 591.014 698.717 591.101 698.819C591.189 698.921 591.342 699.031 591.561 699.147C591.78 699.25 591.948 699.337 592.065 699.41C592.182 699.469 592.386 699.549 592.678 699.651C592.984 699.739 593.196 699.804 593.313 699.848C593.444 699.877 593.685 699.943 594.035 700.045C594.4 700.147 594.641 700.213 594.758 700.242C595.385 700.432 595.882 700.6 596.247 700.746C596.626 700.877 597.071 701.074 597.582 701.337C598.093 701.6 598.487 701.877 598.765 702.169C599.056 702.461 599.305 702.84 599.509 703.307C599.728 703.76 599.837 704.263 599.837 704.818C599.837 706.205 599.283 707.292 598.173 708.08C597.079 708.869 595.721 709.263 594.101 709.263ZM608.024 709.263C606.375 709.263 604.988 708.745 603.864 707.708C602.74 706.657 602.179 705.322 602.179 703.702C602.179 702.096 602.675 700.768 603.667 699.717C604.674 698.651 605.981 698.118 607.586 698.118C608.418 698.118 609.163 698.294 609.82 698.644C610.491 698.98 611.017 699.425 611.396 699.979C611.776 700.534 612.06 701.125 612.25 701.753C612.454 702.381 612.557 703.015 612.557 703.658V704.139H603.952C604.069 705.234 604.521 706.103 605.309 706.745C606.112 707.387 607.134 707.708 608.375 707.708C609.601 707.708 610.739 707.38 611.79 706.723V708.256C610.9 708.927 609.645 709.263 608.024 709.263ZM603.974 702.738H610.805C610.761 701.965 610.462 701.264 609.907 700.636C609.367 699.994 608.564 699.673 607.499 699.673C606.477 699.673 605.645 699.979 605.003 700.593C604.375 701.191 604.032 701.906 603.974 702.738ZM617.204 713.379H615.453V698.381H617.204V700.023C618.182 698.753 619.525 698.118 621.233 698.118C622.78 698.118 624.05 698.666 625.043 699.761C626.035 700.841 626.532 702.147 626.532 703.68C626.532 705.227 626.035 706.548 625.043 707.643C624.05 708.723 622.78 709.263 621.233 709.263C619.496 709.263 618.153 708.628 617.204 707.358V713.379ZM617.204 701.972V705.431C617.511 706.103 617.985 706.65 618.628 707.073C619.27 707.497 620 707.708 620.817 707.708C621.956 707.708 622.897 707.321 623.641 706.548C624.386 705.774 624.758 704.818 624.758 703.68C624.758 702.541 624.386 701.592 623.641 700.833C622.897 700.06 621.956 699.673 620.817 699.673C620.043 699.673 619.321 699.892 618.65 700.33C617.993 700.768 617.511 701.315 617.204 701.972ZM633.256 709.263C632.249 709.263 631.49 708.971 630.979 708.387C630.468 707.803 630.213 707.015 630.213 706.022V699.892H627.761V698.381H630.213V695.163H631.964V698.381H635.599V699.892H631.964V705.519C631.964 706.307 632.103 706.862 632.38 707.183C632.658 707.504 633.118 707.664 633.76 707.664C634.446 707.664 635.015 707.518 635.468 707.227V708.781C634.971 709.102 634.234 709.263 633.256 709.263ZM600.123 737V735.686L605.225 730.848C606.349 729.782 607.137 728.914 607.589 728.242C608.042 727.571 608.268 726.826 608.268 726.009C608.268 725.119 607.962 724.411 607.349 723.885C606.735 723.345 605.911 723.075 604.874 723.075C603.298 723.075 601.838 723.747 600.496 725.089V723.119C601.736 721.98 603.254 721.411 605.05 721.411C606.465 721.411 607.655 721.82 608.618 722.637C609.582 723.44 610.063 724.491 610.063 725.79C610.063 726.826 609.808 727.761 609.297 728.593C608.786 729.41 607.91 730.41 606.67 731.592L602.707 735.38H610.611V737H600.123ZM617.337 737.263C615.673 737.263 614.257 736.927 613.089 736.256V734.482C614.301 735.227 615.702 735.599 617.293 735.599C618.548 735.599 619.585 735.278 620.402 734.635C621.234 733.993 621.65 733.161 621.65 732.139C621.65 731.147 621.263 730.329 620.49 729.687C619.716 729.045 618.687 728.724 617.402 728.724C616.176 728.724 614.95 728.936 613.724 729.359L614.731 721.674H622.372V723.294H616.067L615.476 727.498C616.162 727.323 616.943 727.235 617.818 727.235C619.439 727.235 620.781 727.695 621.847 728.614C622.913 729.534 623.445 730.709 623.445 732.139C623.445 733.672 622.861 734.913 621.694 735.861C620.526 736.796 619.074 737.263 617.337 737.263Z" fill="black"/>
<path d="M488.686 709L495.496 693.586H497.182L503.991 709H502.108L500.247 704.862H492.365L490.547 709H488.686ZM492.978 703.286H499.678L496.328 695.819L492.978 703.286ZM514.41 698.381H516.162V709H514.41V707.402C513.315 708.642 511.929 709.263 510.25 709.263C508.922 709.263 507.915 708.876 507.229 708.102C506.557 707.329 506.221 706.241 506.221 704.84V698.381H507.973V704.468C507.973 706.57 508.936 707.621 510.863 707.621C511.564 707.621 512.242 707.409 512.899 706.986C513.556 706.562 514.06 706.066 514.41 705.497V698.381ZM528.407 708.277V707.227C527.488 708.453 526.137 709.066 524.357 709.066C522.81 709.066 521.54 708.533 520.547 707.467C519.555 706.402 519.058 705.11 519.058 703.592C519.058 702.074 519.555 700.782 520.547 699.717C521.54 698.651 522.81 698.118 524.357 698.118C526.137 698.118 527.488 698.731 528.407 699.958V698.381H530.137V708.256C530.137 709.949 529.582 711.241 528.473 712.131C527.364 713.021 525.984 713.466 524.335 713.466C522.715 713.466 521.343 713.145 520.219 712.503V710.839C521.401 711.554 522.715 711.912 524.16 711.912C525.415 711.912 526.437 711.613 527.225 711.014C528.013 710.43 528.407 709.518 528.407 708.277ZM528.407 705.278V701.906C528.101 701.235 527.619 700.695 526.962 700.286C526.32 699.877 525.597 699.673 524.795 699.673C523.656 699.673 522.707 700.052 521.948 700.811C521.204 701.57 520.832 702.497 520.832 703.592C520.832 704.716 521.204 705.65 521.948 706.395C522.707 707.139 523.656 707.511 524.795 707.511C525.597 707.511 526.32 707.307 526.962 706.898C527.619 706.489 528.101 705.949 528.407 705.278ZM498.123 737V735.686L503.225 730.848C504.349 729.782 505.137 728.914 505.589 728.242C506.042 727.571 506.268 726.826 506.268 726.009C506.268 725.119 505.962 724.411 505.349 723.885C504.735 723.345 503.911 723.075 502.874 723.075C501.298 723.075 499.838 723.747 498.496 725.089V723.119C499.736 721.98 501.254 721.411 503.05 721.411C504.465 721.411 505.655 721.82 506.618 722.637C507.582 723.44 508.063 724.491 508.063 725.79C508.063 726.826 507.808 727.761 507.297 728.593C506.786 729.41 505.91 730.41 504.67 731.592L500.707 735.38H508.611V737H498.123ZM515.337 737.263C513.673 737.263 512.257 736.927 511.089 736.256V734.482C512.301 735.227 513.702 735.599 515.293 735.599C516.548 735.599 517.585 735.278 518.402 734.635C519.234 733.993 519.65 733.161 519.65 732.139C519.65 731.147 519.263 730.329 518.49 729.687C517.716 729.045 516.687 728.724 515.402 728.724C514.176 728.724 512.95 728.936 511.724 729.359L512.731 721.674H520.372V723.294H514.067L513.476 727.498C514.162 727.323 514.943 727.235 515.818 727.235C517.439 727.235 518.781 727.695 519.847 728.614C520.913 729.534 521.445 730.709 521.445 732.139C521.445 733.672 520.861 734.913 519.694 735.861C518.526 736.796 517.074 737.263 515.337 737.263Z" fill="black"/>
<path d="M390.707 709.263C389.262 709.263 388.087 708.942 387.182 708.299V706.46C388.028 707.219 389.094 707.599 390.378 707.599C391.561 707.599 392.429 707.314 392.984 706.745C393.553 706.161 393.838 705.241 393.838 703.986V693.674H395.611V704.293C395.611 705.971 395.173 707.219 394.298 708.037C393.422 708.854 392.225 709.263 390.707 709.263ZM407.321 698.381H409.073V709H407.321V707.402C406.226 708.642 404.84 709.263 403.161 709.263C401.833 709.263 400.826 708.876 400.14 708.102C399.468 707.329 399.133 706.241 399.133 704.84V698.381H400.884V704.468C400.884 706.57 401.848 707.621 403.774 707.621C404.475 707.621 405.154 707.409 405.81 706.986C406.467 706.562 406.971 706.066 407.321 705.497V698.381ZM415.232 709.263C414.531 709.263 413.94 709.058 413.458 708.65C412.977 708.241 412.736 707.562 412.736 706.613V693.674H414.487V706.176C414.487 707.168 414.933 707.664 415.823 707.664C416.202 707.664 416.538 707.577 416.83 707.402V708.956C416.436 709.161 415.903 709.263 415.232 709.263ZM419.894 713.466C419.062 713.466 418.485 713.364 418.164 713.16V711.562C418.587 711.795 419.076 711.912 419.631 711.912C420.288 711.912 420.835 711.649 421.273 711.124C421.725 710.613 422.193 709.774 422.674 708.606L417.967 698.381H419.894L423.55 706.57L427.075 698.381H428.958L423.747 710.182C423.251 711.277 422.696 712.094 422.083 712.634C421.485 713.189 420.755 713.466 419.894 713.466ZM396.123 737V735.686L401.225 730.848C402.349 729.782 403.137 728.914 403.589 728.242C404.042 727.571 404.268 726.826 404.268 726.009C404.268 725.119 403.962 724.411 403.349 723.885C402.735 723.345 401.911 723.075 400.874 723.075C399.298 723.075 397.838 723.747 396.496 725.089V723.119C397.736 721.98 399.254 721.411 401.05 721.411C402.465 721.411 403.655 721.82 404.618 722.637C405.582 723.44 406.063 724.491 406.063 725.79C406.063 726.826 405.808 727.761 405.297 728.593C404.786 729.41 403.91 730.41 402.67 731.592L398.707 735.38H406.611V737H396.123ZM413.337 737.263C411.673 737.263 410.257 736.927 409.089 736.256V734.482C410.301 735.227 411.702 735.599 413.293 735.599C414.548 735.599 415.585 735.278 416.402 734.635C417.234 733.993 417.65 733.161 417.65 732.139C417.65 731.147 417.263 730.329 416.49 729.687C415.716 729.045 414.687 728.724 413.402 728.724C412.176 728.724 410.95 728.936 409.724 729.359L410.731 721.674H418.372V723.294H412.067L411.476 727.498C412.162 727.323 412.943 727.235 413.818 727.235C415.439 727.235 416.781 727.695 417.847 728.614C418.913 729.534 419.445 730.709 419.445 732.139C419.445 733.672 418.861 734.913 417.694 735.861C416.526 736.796 415.074 737.263 413.337 737.263Z" fill="black"/>
<path d="M285.593 709.263C284.148 709.263 282.973 708.942 282.068 708.299V706.46C282.915 707.219 283.98 707.599 285.265 707.599C286.447 707.599 287.316 707.314 287.87 706.745C288.44 706.161 288.724 705.241 288.724 703.986V693.674H290.498V704.293C290.498 705.971 290.06 707.219 289.184 708.037C288.308 708.854 287.111 709.263 285.593 709.263ZM302.208 698.381H303.959V709H302.208V707.402C301.113 708.642 299.726 709.263 298.048 709.263C296.72 709.263 295.712 708.876 295.026 708.102C294.355 707.329 294.019 706.241 294.019 704.84V698.381H295.771V704.468C295.771 706.57 296.734 707.621 298.661 707.621C299.361 707.621 300.04 707.409 300.697 706.986C301.354 706.562 301.857 706.066 302.208 705.497V698.381ZM309.374 709H307.622V698.381H309.374V699.979C309.797 699.454 310.366 699.016 311.082 698.666C311.812 698.301 312.629 698.118 313.534 698.118C314.862 698.118 315.862 698.505 316.533 699.279C317.219 700.052 317.562 701.14 317.562 702.541V709H315.811V702.913C315.811 702.286 315.716 701.753 315.526 701.315C315.351 700.863 315.11 700.534 314.804 700.33C314.497 700.125 314.191 699.979 313.884 699.892C313.592 699.804 313.271 699.761 312.921 699.761C312.235 699.761 311.549 699.979 310.863 700.417C310.177 700.841 309.68 701.33 309.374 701.884V709ZM326.087 709.263C324.437 709.263 323.051 708.745 321.927 707.708C320.803 706.657 320.241 705.322 320.241 703.702C320.241 702.096 320.737 700.768 321.73 699.717C322.737 698.651 324.043 698.118 325.649 698.118C326.481 698.118 327.225 698.294 327.882 698.644C328.553 698.98 329.079 699.425 329.458 699.979C329.838 700.534 330.123 701.125 330.312 701.753C330.517 702.381 330.619 703.015 330.619 703.658V704.139H322.014C322.131 705.234 322.583 706.103 323.372 706.745C324.174 707.387 325.196 707.708 326.437 707.708C327.663 707.708 328.802 707.38 329.852 706.723V708.256C328.962 708.927 327.707 709.263 326.087 709.263ZM322.036 702.738H328.867C328.823 701.965 328.524 701.264 327.97 700.636C327.429 699.994 326.627 699.673 325.561 699.673C324.539 699.673 323.707 699.979 323.065 700.593C322.438 701.191 322.095 701.906 322.036 702.738ZM294.623 737V735.686L299.725 730.848C300.849 729.782 301.637 728.914 302.089 728.242C302.542 727.571 302.768 726.826 302.768 726.009C302.768 725.119 302.462 724.411 301.849 723.885C301.235 723.345 300.411 723.075 299.374 723.075C297.798 723.075 296.338 723.747 294.996 725.089V723.119C296.236 721.98 297.754 721.411 299.55 721.411C300.965 721.411 302.155 721.82 303.118 722.637C304.082 723.44 304.563 724.491 304.563 725.79C304.563 726.826 304.308 727.761 303.797 728.593C303.286 729.41 302.41 730.41 301.17 731.592L297.207 735.38H305.111V737H294.623ZM311.837 737.263C310.173 737.263 308.757 736.927 307.589 736.256V734.482C308.801 735.227 310.202 735.599 311.793 735.599C313.048 735.599 314.085 735.278 314.902 734.635C315.734 733.993 316.15 733.161 316.15 732.139C316.15 731.147 315.763 730.329 314.99 729.687C314.216 729.045 313.187 728.724 311.902 728.724C310.676 728.724 309.45 728.936 308.224 729.359L309.231 721.674H316.872V723.294H310.567L309.976 727.498C310.662 727.323 311.443 727.235 312.318 727.235C313.939 727.235 315.281 727.695 316.347 728.614C317.413 729.534 317.945 730.709 317.945 732.139C317.945 733.672 317.361 734.913 316.194 735.861C315.026 736.796 313.574 737.263 311.837 737.263Z" fill="black"/>
<path d="M184.304 709V693.674H186.056L191.485 700.987L196.915 693.674H198.645V709H196.893V696.367L192.033 702.891H190.96L186.056 696.367V709H184.304ZM206.169 707.708C206.914 707.708 207.6 707.548 208.227 707.227C208.87 706.905 209.373 706.511 209.738 706.044V704.599C208.745 703.942 207.636 703.614 206.41 703.614C205.476 703.614 204.739 703.796 204.199 704.161C203.673 704.512 203.41 705.008 203.41 705.65C203.41 706.336 203.673 706.854 204.199 707.205C204.724 707.54 205.381 707.708 206.169 707.708ZM205.688 709.263C204.564 709.263 203.608 708.949 202.819 708.321C202.046 707.694 201.659 706.832 201.659 705.738C201.659 704.643 202.068 703.789 202.885 703.176C203.717 702.548 204.753 702.235 205.994 702.235C207.439 702.235 208.687 702.563 209.738 703.22V702.256C209.738 700.534 208.599 699.673 206.322 699.673C205.082 699.673 203.929 700.023 202.863 700.724V699.082C203.929 698.44 205.206 698.118 206.695 698.118C208.125 698.118 209.278 698.454 210.154 699.126C211.03 699.797 211.468 700.782 211.468 702.081V706.263C211.468 707.183 211.796 707.643 212.453 707.643C212.716 707.643 212.92 707.591 213.066 707.489V708.847C212.803 709.022 212.431 709.109 211.949 709.109C210.825 709.109 210.147 708.555 209.913 707.445C208.833 708.657 207.424 709.263 205.688 709.263ZM216.129 713.466C215.297 713.466 214.72 713.364 214.399 713.16V711.562C214.822 711.795 215.311 711.912 215.866 711.912C216.523 711.912 217.07 711.649 217.508 711.124C217.961 710.613 218.428 709.774 218.909 708.606L214.202 698.381H216.129L219.785 706.57L223.31 698.381H225.193L219.982 710.182C219.486 711.277 218.931 712.094 218.318 712.634C217.72 713.189 216.99 713.466 216.129 713.466ZM192.123 737V735.686L197.225 730.848C198.349 729.782 199.137 728.914 199.589 728.242C200.042 727.571 200.268 726.826 200.268 726.009C200.268 725.119 199.962 724.411 199.349 723.885C198.735 723.345 197.911 723.075 196.874 723.075C195.298 723.075 193.838 723.747 192.496 725.089V723.119C193.736 721.98 195.254 721.411 197.05 721.411C198.465 721.411 199.655 721.82 200.618 722.637C201.582 723.44 202.063 724.491 202.063 725.79C202.063 726.826 201.808 727.761 201.297 728.593C200.786 729.41 199.91 730.41 198.67 731.592L194.707 735.38H202.611V737H192.123ZM209.337 737.263C207.673 737.263 206.257 736.927 205.089 736.256V734.482C206.301 735.227 207.702 735.599 209.293 735.599C210.548 735.599 211.585 735.278 212.402 734.635C213.234 733.993 213.65 733.161 213.65 732.139C213.65 731.147 213.263 730.329 212.49 729.687C211.716 729.045 210.687 728.724 209.402 728.724C208.176 728.724 206.95 728.936 205.724 729.359L206.731 721.674H214.372V723.294H208.067L207.476 727.498C208.162 727.323 208.943 727.235 209.818 727.235C211.439 727.235 212.781 727.695 213.847 728.614C214.913 729.534 215.445 730.709 215.445 732.139C215.445 733.672 214.861 734.913 213.694 735.861C212.526 736.796 211.074 737.263 209.337 737.263Z" fill="black"/>
<defs>
<filter id="filter0_i_118_795" x="165" y="586" width="78" height="86" filterUnits="userSpaceOnUse" color-interpolation-filters="sRGB">
<feFlood flood-opacity="0" result="BackgroundImageFix"/>
<feBlend mode="normal" in="SourceGraphic" in2="BackgroundImageFix" result="shape"/>
<feColorMatrix in="SourceAlpha" type="matrix" values="0 0 0 0 0 0 0 0 0 0 0 0 0 0 0 0 0 0 127 0" result="hardAlpha"/>
<feOffset dy="3"/>
<feGaussianBlur stdDeviation="2"/>
<feComposite in2="hardAlpha" operator="arithmetic" k2="-1" k3="1"/>
<feColorMatrix type="matrix" values="0 0 0 0 1 0 0 0 0 1 0 0 0 0 1 0 0 0 0.4 0"/>
<feBlend mode="normal" in2="shape" result="effect1_innerShadow_118_795"/>
</filter>
<filter id="filter1_i_118_795" x="267" y="567" width="78" height="105" filterUnits="userSpaceOnUse" color-interpolation-filters="sRGB">
<feFlood flood-opacity="0" result="BackgroundImageFix"/>
<feBlend mode="normal" in="SourceGraphic" in2="BackgroundImageFix" result="shape"/>
<feColorMatrix in="SourceAlpha" type="matrix" values="0 0 0 0 0 0 0 0 0 0 0 0 0 0 0 0 0 0 127 0" result="hardAlpha"/>
<feOffset dy="3"/>
<feGaussianBlur stdDeviation="2"/>
<feComposite in2="hardAlpha" operator="arithmetic" k2="-1" k3="1"/>
<feColorMatrix type="matrix" values="0 0 0 0 1 0 0 0 0 1 0 0 0 0 1 0 0 0 0.4 0"/>
<feBlend mode="normal" in2="shape" result="effect1_innerShadow_118_795"/>
</filter>
<filter id="filter2_i_118_795" x="369" y="475" width="78" height="197" filterUnits="userSpaceOnUse" color-interpolation-filters="sRGB">
<feFlood flood-opacity="0" result="BackgroundImageFix"/>
<feBlend mode="normal" in="SourceGraphic" in2="BackgroundImageFix" result="shape"/>
<feColorMatrix in="SourceAlpha" type="matrix" values="0 0 0 0 0 0 0 0 0 0 0 0 0 0 0 0 0 0 127 0" result="hardAlpha"/>
<feOffset dy="3"/>
<feGaussianBlur stdDeviation="2"/>
<feComposite in2="hardAlpha" operator="arithmetic" k2="-1" k3="1"/>
<feColorMatrix type="matrix" values="0 0 0 0 1 0 0 0 0 1 0 0 0 0 1 0 0 0 0.4 0"/>
<feBlend mode="normal" in2="shape" result="effect1_innerShadow_118_795"/>
</filter>
<filter id="filter3_i_118_795" x="573" y="371" width="78" height="301" filterUnits="userSpaceOnUse" color-interpolation-filters="sRGB">
<feFlood flood-opacity="0" result="BackgroundImageFix"/>
<feBlend mode="normal" in="SourceGraphic" in2="BackgroundImageFix" result="shape"/>
<feColorMatrix in="SourceAlpha" type="matrix" values="0 0 0 0 0 0 0 0 0 0 0 0 0 0 0 0 0 0 127 0" result="hardAlpha"/>
<feOffset dy="3"/>
<feGaussianBlur stdDeviation="2"/>
<feComposite in2="hardAlpha" operator="arithmetic" k2="-1" k3="1"/>
<feColorMatrix type="matrix" values="0 0 0 0 1 0 0 0 0 1 0 0 0 0 1 0 0 0 0.4 0"/>
<feBlend mode="normal" in2="shape" result="effect1_innerShadow_118_795"/>
</filter>
<filter id="filter4_i_118_795" x="471" y="354" width="78" height="318" filterUnits="userSpaceOnUse" color-interpolation-filters="sRGB">
<feFlood flood-opacity="0" result="BackgroundImageFix"/>
<feBlend mode="normal" in="SourceGraphic" in2="BackgroundImageFix" result="shape"/>
<feColorMatrix in="SourceAlpha" type="matrix" values="0 0 0 0 0 0 0 0 0 0 0 0 0 0 0 0 0 0 127 0" result="hardAlpha"/>
<feOffset dy="3"/>
<feGaussianBlur stdDeviation="2"/>
<feComposite in2="hardAlpha" operator="arithmetic" k2="-1" k3="1"/>
<feColorMatrix type="matrix" values="0 0 0 0 1 0 0 0 0 1 0 0 0 0 1 0 0 0 0.4 0"/>
<feBlend mode="normal" in2="shape" result="effect1_innerShadow_118_795"/>
</filter>
<filter id="filter5_i_118_795" x="675" y="230" width="78" height="442" filterUnits="userSpaceOnUse" color-interpolation-filters="sRGB">
<feFlood flood-opacity="0" result="BackgroundImageFix"/>
<feBlend mode="normal" in="SourceGraphic" in2="BackgroundImageFix" result="shape"/>
<feColorMatrix in="SourceAlpha" type="matrix" values="0 0 0 0 0 0 0 0 0 0 0 0 0 0 0 0 0 0 127 0" result="hardAlpha"/>
<feOffset dy="3"/>
<feGaussianBlur stdDeviation="2"/>
<feComposite in2="hardAlpha" operator="arithmetic" k2="-1" k3="1"/>
<feColorMatrix type="matrix" values="0 0 0 0 1 0 0 0 0 1 0 0 0 0 1 0 0 0 0.4 0"/>
<feBlend mode="normal" in2="shape" result="effect1_innerShadow_118_795"/>
</filter>
<linearGradient id="paint0_linear_118_795" x1="114" y1="288.119" x2="804" y2="289.881" gradientUnits="userSpaceOnUse">
<stop stop-color="#029CE4" stop-opacity="0"/>
<stop offset="0.245192" stop-color="#029CE4"/>
<stop offset="0.55" stop-color="#1F52A8"/>
<stop offset="0.75" stop-color="#312684"/>
<stop offset="1" stop-color="#312684" stop-opacity="0"/>
</linearGradient>
<linearGradient id="paint1_linear_118_795" x1="205.526" y1="585.527" x2="179.485" y2="659.88" gradientUnits="userSpaceOnUse">
<stop stop-color="#029CE4"/>
<stop offset="1" stop-color="#312684"/>
</linearGradient>
<linearGradient id="paint2_linear_118_795" x1="307.526" y1="566.419" x2="270.275" y2="652.968" gradientUnits="userSpaceOnUse">
<stop stop-color="#029CE4"/>
<stop offset="1" stop-color="#312684"/>
</linearGradient>
<linearGradient id="paint3_linear_118_795" x1="409.526" y1="473.895" x2="313.895" y2="590.717" gradientUnits="userSpaceOnUse">
<stop stop-color="#029CE4"/>
<stop offset="1" stop-color="#312684"/>
</linearGradient>
<linearGradient id="paint4_linear_118_795" x1="613.526" y1="369.303" x2="467.525" y2="485.413" gradientUnits="userSpaceOnUse">
<stop stop-color="#029CE4"/>
<stop offset="1" stop-color="#312684"/>
</linearGradient>
<linearGradient id="paint5_linear_118_795" x1="511.526" y1="352.206" x2="359.332" y2="466.709" gradientUnits="userSpaceOnUse">
<stop stop-color="#029CE4"/>
<stop offset="1" stop-color="#312684"/>
</linearGradient>
<linearGradient id="paint6_linear_118_795" x1="715.526" y1="227.5" x2="530.971" y2="327.13" gradientUnits="userSpaceOnUse">
<stop stop-color="#029CE4"/>
<stop offset="1" stop-color="#312684"/>
</linearGradient>
</defs>
</svg>
