<svg width="1440" height="840" viewBox="0 0 1440 840" fill="none" xmlns="http://www.w3.org/2000/svg">
<rect width="1440" height="840" fill="white"/>
<circle cx="1092" cy="450" r="206.5" stroke="black"/>
<circle cx="1092" cy="450" r="192" fill="url(#paint0_linear_117_6)"/>
<circle cx="1092" cy="450.508" r="173.714" fill="white"/>
<line x1="922.426" y1="351.067" x2="1092.59" y2="449.313" stroke="white"/>
<line x1="1092.77" y1="450.138" x2="1143.62" y2="260.342" stroke="white"/>
<line x1="1092.05" y1="449.091" x2="1262.21" y2="350.845" stroke="white" stroke-width="3"/>
<line x1="1093.57" y1="448.734" x2="1191.82" y2="618.901" stroke="white" stroke-width="3"/>
<line x1="922.379" y1="548.203" x2="1092.55" y2="449.957" stroke="white"/>
<line x1="995.326" y1="278.568" x2="1093.57" y2="448.735" stroke="white" stroke-width="3"/>
<line x1="1092.5" y1="252.992" x2="1092.5" y2="448.992" stroke="white"/>
<line x1="1092.5" y1="448.992" x2="1092.5" y2="645.992" stroke="white"/>
<line x1="901.665" y1="499.937" x2="1091.46" y2="449.081" stroke="white" stroke-width="3"/>
<circle cx="991" cy="270" r="12" fill="white"/>
<circle cx="991" cy="270" r="7.5" stroke="black"/>
<circle cx="991" cy="270" r="7" fill="white"/>
<circle cx="991" cy="270" r="3" fill="black"/>
<circle cx="1272" cy="343" r="12" fill="white"/>
<circle cx="1272" cy="343" r="7.5" stroke="black"/>
<circle cx="1272" cy="343" r="7" fill="white"/>
<circle cx="1272" cy="343" r="3" fill="black"/>
<circle cx="979" cy="624" r="12" fill="white"/>
<circle cx="979" cy="624" r="7.5" stroke="black"/>
<circle cx="979" cy="624" r="7" fill="white"/>
<circle cx="979" cy="624" r="3" fill="black"/>
<path d="M1045.12 442V423.1H1049.98V437.734H1059.05V442H1045.12ZM1066.11 436.384C1067.07 437.392 1068.26 437.896 1069.68 437.896C1071.1 437.896 1072.28 437.392 1073.22 436.384C1074.17 435.376 1074.65 434.098 1074.65 432.55C1074.65 431.002 1074.17 429.724 1073.22 428.716C1072.28 427.708 1071.1 427.204 1069.68 427.204C1068.26 427.204 1067.07 427.708 1066.11 428.716C1065.18 429.724 1064.71 431.002 1064.71 432.55C1064.71 434.098 1065.18 435.376 1066.11 436.384ZM1076.81 439.516C1074.92 441.424 1072.54 442.378 1069.68 442.378C1066.82 442.378 1064.44 441.424 1062.55 439.516C1060.66 437.608 1059.72 435.286 1059.72 432.55C1059.72 429.814 1060.66 427.492 1062.55 425.584C1064.44 423.676 1066.82 422.722 1069.68 422.722C1072.54 422.722 1074.92 423.676 1076.81 425.584C1078.7 427.492 1079.64 429.814 1079.64 432.55C1079.64 435.286 1078.7 437.608 1076.81 439.516ZM1082.67 442V423.1H1091.55C1093.62 423.1 1095.27 423.649 1096.49 424.747C1097.73 425.827 1098.36 427.222 1098.36 428.932C1098.36 430.156 1098.03 431.236 1097.38 432.172C1096.75 433.09 1095.85 433.783 1094.68 434.251L1100.41 442H1094.82L1089.47 434.791H1087.53V442H1082.67ZM1087.53 430.822H1091.28C1091.95 430.822 1092.47 430.669 1092.85 430.363C1093.24 430.057 1093.44 429.616 1093.44 429.04C1093.44 428.464 1093.24 428.014 1092.85 427.69C1092.47 427.366 1091.95 427.204 1091.28 427.204H1087.53V430.822ZM1102.34 442V423.1H1116.7V427.366H1107.2V429.931H1114.76V434.035H1107.2V437.734H1116.92V442H1102.34ZM1119.66 442V423.1H1124.49L1129.27 430.363L1134.08 423.1H1138.89V442H1134.05V430.471L1130.68 435.547H1128L1124.52 430.471V442H1119.66ZM1050.83 476V457.1H1055.69V476H1050.83ZM1059.43 476V457.1H1067.85C1069.96 457.1 1071.63 457.649 1072.87 458.747C1074.11 459.845 1074.74 461.267 1074.74 463.013C1074.74 464.759 1074.11 466.19 1072.87 467.306C1071.63 468.404 1069.96 468.953 1067.85 468.953H1064.29V476H1059.43ZM1064.29 464.957H1067.5C1068.2 464.957 1068.76 464.795 1069.17 464.471C1069.61 464.129 1069.82 463.661 1069.82 463.067C1069.82 462.473 1069.61 462.014 1069.2 461.69C1068.79 461.366 1068.22 461.204 1067.5 461.204H1064.29V464.957ZM1083.84 476.378C1080.92 476.378 1078.49 475.703 1076.52 474.353V469.385C1077.32 470.105 1078.4 470.717 1079.76 471.221C1081.15 471.725 1082.45 471.977 1083.65 471.977C1085.58 471.977 1086.54 471.482 1086.54 470.492C1086.54 469.916 1086.12 469.457 1085.27 469.115C1085.02 469.007 1084.23 468.764 1082.9 468.386C1082.07 468.134 1081.43 467.936 1080.98 467.792C1080.53 467.63 1079.97 467.378 1079.3 467.036C1078.66 466.694 1078.16 466.343 1077.82 465.983C1077.48 465.605 1077.17 465.11 1076.9 464.498C1076.65 463.868 1076.52 463.166 1076.52 462.392C1076.52 460.574 1077.19 459.179 1078.52 458.207C1079.87 457.217 1081.68 456.722 1083.95 456.722C1086.29 456.722 1088.42 457.244 1090.35 458.288V462.959C1089.52 462.455 1088.52 462.023 1087.35 461.663C1086.2 461.303 1085.08 461.123 1084 461.123C1082.35 461.123 1081.52 461.537 1081.52 462.365C1081.52 462.545 1081.57 462.707 1081.68 462.851C1081.81 462.977 1082.01 463.103 1082.3 463.229C1082.61 463.337 1082.9 463.436 1083.17 463.526C1083.44 463.616 1083.84 463.733 1084.38 463.877C1084.92 464.021 1085.38 464.156 1085.76 464.282C1086.62 464.57 1087.36 464.867 1087.97 465.173C1088.58 465.479 1089.18 465.866 1089.75 466.334C1090.35 466.784 1090.8 467.351 1091.1 468.035C1091.41 468.701 1091.56 469.457 1091.56 470.303C1091.56 472.157 1090.84 473.633 1089.4 474.731C1087.96 475.829 1086.11 476.378 1083.84 476.378ZM1108.32 474.218C1106.77 475.658 1104.79 476.378 1102.38 476.378C1099.97 476.378 1097.98 475.658 1096.42 474.218C1094.87 472.778 1094.09 470.735 1094.09 468.089V457.1H1098.95V468.332C1098.95 469.538 1099.28 470.438 1099.93 471.032C1100.57 471.608 1101.39 471.896 1102.38 471.896C1103.39 471.896 1104.21 471.608 1104.84 471.032C1105.49 470.438 1105.81 469.538 1105.81 468.332V457.1H1110.67V468.089C1110.67 470.735 1109.89 472.778 1108.32 474.218ZM1114.06 476V457.1H1118.89L1123.67 464.363L1128.48 457.1H1133.28V476H1128.45V464.471L1125.07 469.547H1122.4L1118.92 464.471V476H1114.06Z" fill="black"/>
<path d="M840.619 243V224.1H842.806V241.002H853.255V243H840.619ZM857.246 231.606C858.578 230.256 860.279 229.581 862.349 229.581C864.419 229.581 866.12 230.256 867.452 231.606C868.784 232.956 869.45 234.576 869.45 236.466C869.45 238.356 868.784 239.976 867.452 241.326C866.12 242.658 864.419 243.324 862.349 243.324C860.279 243.324 858.578 242.658 857.246 241.326C855.914 239.976 855.248 238.356 855.248 236.466C855.248 234.576 855.914 232.956 857.246 231.606ZM858.839 240.003C859.775 240.939 860.945 241.407 862.349 241.407C863.753 241.407 864.923 240.939 865.859 240.003C866.795 239.049 867.263 237.87 867.263 236.466C867.263 235.062 866.795 233.883 865.859 232.929C864.923 231.975 863.753 231.498 862.349 231.498C860.945 231.498 859.775 231.975 858.839 232.929C857.903 233.883 857.435 235.062 857.435 236.466C857.435 237.87 857.903 239.049 858.839 240.003ZM872.962 243V229.905H875.122V232.362C875.662 231.48 876.4 230.796 877.336 230.31C878.272 229.824 879.253 229.581 880.279 229.581V231.741C879.145 231.777 878.11 232.065 877.174 232.605C876.256 233.127 875.572 233.856 875.122 234.792V243H872.962ZM889.351 243.324C887.317 243.324 885.607 242.685 884.221 241.407C882.835 240.111 882.142 238.464 882.142 236.466C882.142 234.486 882.754 232.848 883.978 231.552C885.22 230.238 886.831 229.581 888.811 229.581C889.837 229.581 890.755 229.797 891.565 230.229C892.393 230.643 893.041 231.192 893.509 231.876C893.977 232.56 894.328 233.289 894.562 234.063C894.814 234.837 894.94 235.62 894.94 236.412V237.006H884.329C884.473 238.356 885.031 239.427 886.003 240.219C886.993 241.011 888.253 241.407 889.783 241.407C891.295 241.407 892.699 241.002 893.995 240.192V242.082C892.897 242.91 891.349 243.324 889.351 243.324ZM884.356 235.278H892.78C892.726 234.324 892.357 233.46 891.673 232.686C891.007 231.894 890.017 231.498 888.703 231.498C887.443 231.498 886.417 231.876 885.625 232.632C884.851 233.37 884.428 234.252 884.356 235.278ZM898.511 243V229.905H900.671V231.822C901.697 230.328 903.236 229.581 905.288 229.581C906.368 229.581 907.268 229.806 907.988 230.256C908.708 230.688 909.203 231.309 909.473 232.119C909.959 231.381 910.634 230.778 911.498 230.31C912.362 229.824 913.352 229.581 914.468 229.581C915.926 229.581 917.06 230.031 917.87 230.931C918.68 231.831 919.085 233.136 919.085 234.846V243H916.952V235.332C916.952 232.848 915.908 231.606 913.82 231.606C913.028 231.606 912.254 231.876 911.498 232.416C910.742 232.956 910.193 233.577 909.851 234.279C909.851 234.477 909.851 234.729 909.851 235.035C909.869 235.341 909.878 235.593 909.878 235.791V243H907.745V235.332C907.745 234.558 907.637 233.91 907.421 233.388C907.223 232.848 906.953 232.461 906.611 232.227C906.269 231.993 905.936 231.831 905.612 231.741C905.306 231.651 904.973 231.606 904.613 231.606C903.839 231.606 903.083 231.858 902.345 232.362C901.607 232.866 901.049 233.478 900.671 234.198V243H898.511ZM930.712 243V229.905H932.845V243H930.712ZM930.739 226.53C930.469 226.242 930.334 225.891 930.334 225.477C930.334 225.063 930.469 224.721 930.739 224.451C931.027 224.163 931.378 224.019 931.792 224.019C932.206 224.019 932.548 224.163 932.818 224.451C933.106 224.721 933.25 225.063 933.25 225.477C933.25 225.891 933.106 226.242 932.818 226.53C932.548 226.8 932.206 226.935 931.792 226.935C931.378 226.935 931.027 226.8 930.739 226.53ZM939.826 248.4H937.666V229.905H939.826V231.93C941.032 230.364 942.688 229.581 944.794 229.581C946.702 229.581 948.268 230.256 949.492 231.606C950.716 232.938 951.328 234.549 951.328 236.439C951.328 238.347 950.716 239.976 949.492 241.326C948.268 242.658 946.702 243.324 944.794 243.324C942.652 243.324 940.996 242.541 939.826 240.975V248.4ZM939.826 234.333V238.599C940.204 239.427 940.789 240.102 941.581 240.624C942.373 241.146 943.273 241.407 944.281 241.407C945.685 241.407 946.846 240.93 947.764 239.976C948.682 239.022 949.141 237.843 949.141 236.439C949.141 235.035 948.682 233.865 947.764 232.929C946.846 231.975 945.685 231.498 944.281 231.498C943.327 231.498 942.436 231.768 941.608 232.308C940.798 232.848 940.204 233.523 939.826 234.333ZM959.34 243.324C958.242 243.324 957.189 243.198 956.181 242.946C955.191 242.676 954.435 242.352 953.913 241.974V239.814C954.435 240.21 955.182 240.579 956.154 240.921C957.144 241.245 958.179 241.407 959.259 241.407C960.339 241.407 961.185 241.236 961.797 240.894C962.409 240.552 962.715 240.066 962.715 239.436C962.715 239.22 962.679 239.031 962.607 238.869C962.553 238.707 962.445 238.572 962.283 238.464C962.139 238.338 961.986 238.23 961.824 238.14C961.68 238.05 961.464 237.969 961.176 237.897C960.906 237.807 960.663 237.735 960.447 237.681C960.249 237.627 959.97 237.555 959.61 237.465C959.25 237.375 958.953 237.303 958.719 237.249C957.171 236.853 956.019 236.376 955.263 235.818C954.525 235.242 954.156 234.387 954.156 233.253C954.156 232.119 954.615 231.228 955.533 230.58C956.469 229.914 957.783 229.581 959.475 229.581C961.437 229.581 963.03 229.968 964.254 230.742V232.821C962.814 231.939 961.248 231.498 959.556 231.498C957.414 231.498 956.343 232.101 956.343 233.307C956.343 234.009 956.874 234.549 957.936 234.927C958.296 235.053 959.061 235.251 960.231 235.521C961.707 235.845 962.85 236.304 963.66 236.898C964.488 237.492 964.902 238.356 964.902 239.49C964.902 240.678 964.38 241.614 963.336 242.298C962.31 242.982 960.978 243.324 959.34 243.324ZM978.449 229.905H980.609V243H978.449V241.029C977.099 242.559 975.389 243.324 973.319 243.324C971.681 243.324 970.439 242.847 969.593 241.893C968.765 240.939 968.351 239.598 968.351 237.87V229.905H970.511V237.411C970.511 240.003 971.699 241.299 974.075 241.299C974.939 241.299 975.776 241.038 976.586 240.516C977.396 239.994 978.017 239.382 978.449 238.68V229.905ZM985.126 243V229.905H987.286V231.822C988.312 230.328 989.851 229.581 991.903 229.581C992.983 229.581 993.883 229.806 994.603 230.256C995.323 230.688 995.818 231.309 996.088 232.119C996.574 231.381 997.249 230.778 998.113 230.31C998.977 229.824 999.967 229.581 1001.08 229.581C1002.54 229.581 1003.67 230.031 1004.48 230.931C1005.29 231.831 1005.7 233.136 1005.7 234.846V243H1003.57V235.332C1003.57 232.848 1002.52 231.606 1000.43 231.606C999.643 231.606 998.869 231.876 998.113 232.416C997.357 232.956 996.808 233.577 996.466 234.279C996.466 234.477 996.466 234.729 996.466 235.035C996.484 235.341 996.493 235.593 996.493 235.791V243H994.36V235.332C994.36 234.558 994.252 233.91 994.036 233.388C993.838 232.848 993.568 232.461 993.226 232.227C992.884 231.993 992.551 231.831 992.227 231.741C991.921 231.651 991.588 231.606 991.228 231.606C990.454 231.606 989.698 231.858 988.96 232.362C988.222 232.866 987.664 233.478 987.286 234.198V243H985.126Z" fill="black"/>
<path d="M909.619 672V653.1H911.806V670.002H922.255V672H909.619ZM926.246 660.606C927.578 659.256 929.279 658.581 931.349 658.581C933.419 658.581 935.12 659.256 936.452 660.606C937.784 661.956 938.45 663.576 938.45 665.466C938.45 667.356 937.784 668.976 936.452 670.326C935.12 671.658 933.419 672.324 931.349 672.324C929.279 672.324 927.578 671.658 926.246 670.326C924.914 668.976 924.248 667.356 924.248 665.466C924.248 663.576 924.914 661.956 926.246 660.606ZM927.839 669.003C928.775 669.939 929.945 670.407 931.349 670.407C932.753 670.407 933.923 669.939 934.859 669.003C935.795 668.049 936.263 666.87 936.263 665.466C936.263 664.062 935.795 662.883 934.859 661.929C933.923 660.975 932.753 660.498 931.349 660.498C929.945 660.498 928.775 660.975 927.839 661.929C926.903 662.883 926.435 664.062 926.435 665.466C926.435 666.87 926.903 668.049 927.839 669.003ZM941.962 672V658.905H944.122V661.362C944.662 660.48 945.4 659.796 946.336 659.31C947.272 658.824 948.253 658.581 949.279 658.581V660.741C948.145 660.777 947.11 661.065 946.174 661.605C945.256 662.127 944.572 662.856 944.122 663.792V672H941.962ZM958.351 672.324C956.317 672.324 954.607 671.685 953.221 670.407C951.835 669.111 951.142 667.464 951.142 665.466C951.142 663.486 951.754 661.848 952.978 660.552C954.22 659.238 955.831 658.581 957.811 658.581C958.837 658.581 959.755 658.797 960.565 659.229C961.393 659.643 962.041 660.192 962.509 660.876C962.977 661.56 963.328 662.289 963.562 663.063C963.814 663.837 963.94 664.62 963.94 665.412V666.006H953.329C953.473 667.356 954.031 668.427 955.003 669.219C955.993 670.011 957.253 670.407 958.783 670.407C960.295 670.407 961.699 670.002 962.995 669.192V671.082C961.897 671.91 960.349 672.324 958.351 672.324ZM953.356 664.278H961.78C961.726 663.324 961.357 662.46 960.673 661.686C960.007 660.894 959.017 660.498 957.703 660.498C956.443 660.498 955.417 660.876 954.625 661.632C953.851 662.37 953.428 663.252 953.356 664.278ZM967.511 672V658.905H969.671V660.822C970.697 659.328 972.236 658.581 974.288 658.581C975.368 658.581 976.268 658.806 976.988 659.256C977.708 659.688 978.203 660.309 978.473 661.119C978.959 660.381 979.634 659.778 980.498 659.31C981.362 658.824 982.352 658.581 983.468 658.581C984.926 658.581 986.06 659.031 986.87 659.931C987.68 660.831 988.085 662.136 988.085 663.846V672H985.952V664.332C985.952 661.848 984.908 660.606 982.82 660.606C982.028 660.606 981.254 660.876 980.498 661.416C979.742 661.956 979.193 662.577 978.851 663.279C978.851 663.477 978.851 663.729 978.851 664.035C978.869 664.341 978.878 664.593 978.878 664.791V672H976.745V664.332C976.745 663.558 976.637 662.91 976.421 662.388C976.223 661.848 975.953 661.461 975.611 661.227C975.269 660.993 974.936 660.831 974.612 660.741C974.306 660.651 973.973 660.606 973.613 660.606C972.839 660.606 972.083 660.858 971.345 661.362C970.607 661.866 970.049 662.478 969.671 663.198V672H967.511ZM909.538 706V692.905H911.671V706H909.538ZM909.565 689.53C909.295 689.242 909.16 688.891 909.16 688.477C909.16 688.063 909.295 687.721 909.565 687.451C909.853 687.163 910.204 687.019 910.618 687.019C911.032 687.019 911.374 687.163 911.644 687.451C911.932 687.721 912.076 688.063 912.076 688.477C912.076 688.891 911.932 689.242 911.644 689.53C911.374 689.8 911.032 689.935 910.618 689.935C910.204 689.935 909.853 689.8 909.565 689.53ZM918.652 711.4H916.492V692.905H918.652V694.93C919.858 693.364 921.514 692.581 923.62 692.581C925.528 692.581 927.094 693.256 928.318 694.606C929.542 695.938 930.154 697.549 930.154 699.439C930.154 701.347 929.542 702.976 928.318 704.326C927.094 705.658 925.528 706.324 923.62 706.324C921.478 706.324 919.822 705.541 918.652 703.975V711.4ZM918.652 697.333V701.599C919.03 702.427 919.615 703.102 920.407 703.624C921.199 704.146 922.099 704.407 923.107 704.407C924.511 704.407 925.672 703.93 926.59 702.976C927.508 702.022 927.967 700.843 927.967 699.439C927.967 698.035 927.508 696.865 926.59 695.929C925.672 694.975 924.511 694.498 923.107 694.498C922.153 694.498 921.262 694.768 920.434 695.308C919.624 695.848 919.03 696.523 918.652 697.333ZM938.165 706.324C937.067 706.324 936.014 706.198 935.007 705.946C934.017 705.676 933.261 705.352 932.739 704.974V702.814C933.261 703.21 934.008 703.579 934.98 703.921C935.969 704.245 937.004 704.407 938.084 704.407C939.164 704.407 940.01 704.236 940.622 703.894C941.234 703.552 941.54 703.066 941.54 702.436C941.54 702.22 941.504 702.031 941.432 701.869C941.378 701.707 941.27 701.572 941.108 701.464C940.964 701.338 940.811 701.23 940.649 701.14C940.505 701.05 940.289 700.969 940.001 700.897C939.731 700.807 939.488 700.735 939.272 700.681C939.074 700.627 938.795 700.555 938.435 700.465C938.075 700.375 937.778 700.303 937.544 700.249C935.996 699.853 934.845 699.376 934.089 698.818C933.351 698.242 932.982 697.387 932.982 696.253C932.982 695.119 933.441 694.228 934.359 693.58C935.295 692.914 936.608 692.581 938.3 692.581C940.262 692.581 941.855 692.968 943.079 693.742V695.821C941.639 694.939 940.073 694.498 938.381 694.498C936.239 694.498 935.169 695.101 935.169 696.307C935.169 697.009 935.7 697.549 936.761 697.927C937.121 698.053 937.886 698.251 939.056 698.521C940.532 698.845 941.675 699.304 942.485 699.898C943.313 700.492 943.727 701.356 943.727 702.49C943.727 703.678 943.205 704.614 942.161 705.298C941.135 705.982 939.803 706.324 938.165 706.324ZM957.275 692.905H959.435V706H957.275V704.029C955.925 705.559 954.215 706.324 952.145 706.324C950.507 706.324 949.265 705.847 948.419 704.893C947.591 703.939 947.177 702.598 947.177 700.87V692.905H949.337V700.411C949.337 703.003 950.525 704.299 952.901 704.299C953.765 704.299 954.602 704.038 955.412 703.516C956.222 702.994 956.843 702.382 957.275 701.68V692.905ZM963.952 706V692.905H966.112V694.822C967.138 693.328 968.677 692.581 970.729 692.581C971.809 692.581 972.709 692.806 973.429 693.256C974.149 693.688 974.644 694.309 974.914 695.119C975.4 694.381 976.075 693.778 976.939 693.31C977.803 692.824 978.793 692.581 979.909 692.581C981.367 692.581 982.501 693.031 983.311 693.931C984.121 694.831 984.526 696.136 984.526 697.846V706H982.393V698.332C982.393 695.848 981.349 694.606 979.261 694.606C978.469 694.606 977.695 694.876 976.939 695.416C976.183 695.956 975.634 696.577 975.292 697.279C975.292 697.477 975.292 697.729 975.292 698.035C975.31 698.341 975.319 698.593 975.319 698.791V706H973.186V698.332C973.186 697.558 973.078 696.91 972.862 696.388C972.664 695.848 972.394 695.461 972.052 695.227C971.71 694.993 971.377 694.831 971.053 694.741C970.747 694.651 970.414 694.606 970.054 694.606C969.28 694.606 968.524 694.858 967.786 695.362C967.048 695.866 966.49 696.478 966.112 697.198V706H963.952Z" fill="black"/>
<path d="M1281.54 284V265.1H1283.72V282.002H1294.17V284H1281.54ZM1298.16 272.606C1299.5 271.256 1301.2 270.581 1303.27 270.581C1305.34 270.581 1307.04 271.256 1308.37 272.606C1309.7 273.956 1310.37 275.576 1310.37 277.466C1310.37 279.356 1309.7 280.976 1308.37 282.326C1307.04 283.658 1305.34 284.324 1303.27 284.324C1301.2 284.324 1299.5 283.658 1298.16 282.326C1296.83 280.976 1296.17 279.356 1296.17 277.466C1296.17 275.576 1296.83 273.956 1298.16 272.606ZM1299.76 281.003C1300.69 281.939 1301.86 282.407 1303.27 282.407C1304.67 282.407 1305.84 281.939 1306.78 281.003C1307.71 280.049 1308.18 278.87 1308.18 277.466C1308.18 276.062 1307.71 274.883 1306.78 273.929C1305.84 272.975 1304.67 272.498 1303.27 272.498C1301.86 272.498 1300.69 272.975 1299.76 273.929C1298.82 274.883 1298.35 276.062 1298.35 277.466C1298.35 278.87 1298.82 280.049 1299.76 281.003ZM1313.88 284V270.905H1316.04V273.362C1316.58 272.48 1317.32 271.796 1318.25 271.31C1319.19 270.824 1320.17 270.581 1321.2 270.581V272.741C1320.06 272.777 1319.03 273.065 1318.09 273.605C1317.17 274.127 1316.49 274.856 1316.04 275.792V284H1313.88ZM1330.27 284.324C1328.24 284.324 1326.53 283.685 1325.14 282.407C1323.75 281.111 1323.06 279.464 1323.06 277.466C1323.06 275.486 1323.67 273.848 1324.9 272.552C1326.14 271.238 1327.75 270.581 1329.73 270.581C1330.76 270.581 1331.67 270.797 1332.48 271.229C1333.31 271.643 1333.96 272.192 1334.43 272.876C1334.9 273.56 1335.25 274.289 1335.48 275.063C1335.73 275.837 1335.86 276.62 1335.86 277.412V278.006H1325.25C1325.39 279.356 1325.95 280.427 1326.92 281.219C1327.91 282.011 1329.17 282.407 1330.7 282.407C1332.21 282.407 1333.62 282.002 1334.91 281.192V283.082C1333.82 283.91 1332.27 284.324 1330.27 284.324ZM1325.27 276.278H1333.7C1333.64 275.324 1333.28 274.46 1332.59 273.686C1331.93 272.894 1330.94 272.498 1329.62 272.498C1328.36 272.498 1327.34 272.876 1326.54 273.632C1325.77 274.37 1325.35 275.252 1325.27 276.278ZM1339.43 284V270.905H1341.59V272.822C1342.62 271.328 1344.15 270.581 1346.21 270.581C1347.29 270.581 1348.19 270.806 1348.91 271.256C1349.63 271.688 1350.12 272.309 1350.39 273.119C1350.88 272.381 1351.55 271.778 1352.42 271.31C1353.28 270.824 1354.27 270.581 1355.39 270.581C1356.84 270.581 1357.98 271.031 1358.79 271.931C1359.6 272.831 1360 274.136 1360 275.846V284H1357.87V276.332C1357.87 273.848 1356.83 272.606 1354.74 272.606C1353.95 272.606 1353.17 272.876 1352.42 273.416C1351.66 273.956 1351.11 274.577 1350.77 275.279C1350.77 275.477 1350.77 275.729 1350.77 276.035C1350.79 276.341 1350.8 276.593 1350.8 276.791V284H1348.66V276.332C1348.66 275.558 1348.56 274.91 1348.34 274.388C1348.14 273.848 1347.87 273.461 1347.53 273.227C1347.19 272.993 1346.85 272.831 1346.53 272.741C1346.22 272.651 1345.89 272.606 1345.53 272.606C1344.76 272.606 1344 272.858 1343.26 273.362C1342.53 273.866 1341.97 274.478 1341.59 275.198V284H1339.43ZM1285.02 318V304.905H1287.15V318H1285.02ZM1285.04 301.53C1284.77 301.242 1284.64 300.891 1284.64 300.477C1284.64 300.063 1284.77 299.721 1285.04 299.451C1285.33 299.163 1285.68 299.019 1286.1 299.019C1286.51 299.019 1286.85 299.163 1287.12 299.451C1287.41 299.721 1287.55 300.063 1287.55 300.477C1287.55 300.891 1287.41 301.242 1287.12 301.53C1286.85 301.8 1286.51 301.935 1286.1 301.935C1285.68 301.935 1285.33 301.8 1285.04 301.53ZM1294.13 323.4H1291.97V304.905H1294.13V306.93C1295.34 305.364 1296.99 304.581 1299.1 304.581C1301.01 304.581 1302.57 305.256 1303.8 306.606C1305.02 307.938 1305.63 309.549 1305.63 311.439C1305.63 313.347 1305.02 314.976 1303.8 316.326C1302.57 317.658 1301.01 318.324 1299.1 318.324C1296.96 318.324 1295.3 317.541 1294.13 315.975V323.4ZM1294.13 309.333V313.599C1294.51 314.427 1295.09 315.102 1295.88 315.624C1296.68 316.146 1297.58 316.407 1298.58 316.407C1299.99 316.407 1301.15 315.93 1302.07 314.976C1302.99 314.022 1303.44 312.843 1303.44 311.439C1303.44 310.035 1302.99 308.865 1302.07 307.929C1301.15 306.975 1299.99 306.498 1298.58 306.498C1297.63 306.498 1296.74 306.768 1295.91 307.308C1295.1 307.848 1294.51 308.523 1294.13 309.333ZM1313.64 318.324C1312.55 318.324 1311.49 318.198 1310.48 317.946C1309.49 317.676 1308.74 317.352 1308.22 316.974V314.814C1308.74 315.21 1309.49 315.579 1310.46 315.921C1311.45 316.245 1312.48 316.407 1313.56 316.407C1314.64 316.407 1315.49 316.236 1316.1 315.894C1316.71 315.552 1317.02 315.066 1317.02 314.436C1317.02 314.22 1316.98 314.031 1316.91 313.869C1316.86 313.707 1316.75 313.572 1316.59 313.464C1316.44 313.338 1316.29 313.23 1316.13 313.14C1315.98 313.05 1315.77 312.969 1315.48 312.897C1315.21 312.807 1314.97 312.735 1314.75 312.681C1314.55 312.627 1314.27 312.555 1313.91 312.465C1313.55 312.375 1313.26 312.303 1313.02 312.249C1311.47 311.853 1310.32 311.376 1309.57 310.818C1308.83 310.242 1308.46 309.387 1308.46 308.253C1308.46 307.119 1308.92 306.228 1309.84 305.58C1310.77 304.914 1312.09 304.581 1313.78 304.581C1315.74 304.581 1317.33 304.968 1318.56 305.742V307.821C1317.12 306.939 1315.55 306.498 1313.86 306.498C1311.72 306.498 1310.65 307.101 1310.65 308.307C1310.65 309.009 1311.18 309.549 1312.24 309.927C1312.6 310.053 1313.36 310.251 1314.53 310.521C1316.01 310.845 1317.15 311.304 1317.96 311.898C1318.79 312.492 1319.21 313.356 1319.21 314.49C1319.21 315.678 1318.68 316.614 1317.64 317.298C1316.61 317.982 1315.28 318.324 1313.64 318.324ZM1332.75 304.905H1334.91V318H1332.75V316.029C1331.4 317.559 1329.69 318.324 1327.62 318.324C1325.98 318.324 1324.74 317.847 1323.9 316.893C1323.07 315.939 1322.65 314.598 1322.65 312.87V304.905H1324.81V312.411C1324.81 315.003 1326 316.299 1328.38 316.299C1329.24 316.299 1330.08 316.038 1330.89 315.516C1331.7 314.994 1332.32 314.382 1332.75 313.68V304.905ZM1339.43 318V304.905H1341.59V306.822C1342.62 305.328 1344.15 304.581 1346.21 304.581C1347.29 304.581 1348.19 304.806 1348.91 305.256C1349.63 305.688 1350.12 306.309 1350.39 307.119C1350.88 306.381 1351.55 305.778 1352.42 305.31C1353.28 304.824 1354.27 304.581 1355.39 304.581C1356.84 304.581 1357.98 305.031 1358.79 305.931C1359.6 306.831 1360 308.136 1360 309.846V318H1357.87V310.332C1357.87 307.848 1356.83 306.606 1354.74 306.606C1353.95 306.606 1353.17 306.876 1352.42 307.416C1351.66 307.956 1351.11 308.577 1350.77 309.279C1350.77 309.477 1350.77 309.729 1350.77 310.035C1350.79 310.341 1350.8 310.593 1350.8 310.791V318H1348.66V310.332C1348.66 309.558 1348.56 308.91 1348.34 308.388C1348.14 307.848 1347.87 307.461 1347.53 307.227C1347.19 306.993 1346.85 306.831 1346.53 306.741C1346.22 306.651 1345.89 306.606 1345.53 306.606C1344.76 306.606 1344 306.858 1343.26 307.362C1342.53 307.866 1341.97 308.478 1341.59 309.198V318H1339.43Z" fill="black"/>
<defs>
<linearGradient id="paint0_linear_117_6" x1="900" y1="642" x2="1359.46" y2="496.819" gradientUnits="userSpaceOnUse">
<stop stop-color="#029CE4"/>
<stop offset="1" stop-color="#312684"/>
</linearGradient>
</defs>
</svg>
