<svg width="64" height="55" viewBox="0 0 64 55" fill="none" xmlns="http://www.w3.org/2000/svg">
<path opacity="0.3" d="M30.7656 32.5C27.9595 37.4999 25.1532 42.3981 22.041 47.9082H59.0312C60.4087 50.2549 61.5823 52.2448 63.0107 54.6426H10.0508C15.663 44.8977 21.0719 35.51 26.7861 25.6631C28.2657 28.214 29.4902 30.3062 30.7656 32.5ZM26.8369 8.31641C32.5001 18.2653 37.9598 27.6527 43.623 37.3975H35.6123C32.8062 32.6016 29.8983 27.7037 26.7861 22.3467C20.3065 33.3161 13.8773 44.1836 7.75488 54.5918H0C8.87749 39.2348 17.8064 23.9285 26.8369 8.31641ZM31.7354 0C40.6128 15.4079 49.2349 30.4078 58.1123 45.7646H24.6943C26.0208 43.4689 27.194 41.3769 28.5205 39.0811H46.123C39.8475 28.0096 33.8781 17.4994 27.8066 6.78516C29.0821 4.54039 30.3069 2.49986 31.7354 0Z" fill="white"/>
</svg>
