<svg width="512" height="512" viewBox="0 0 512 512" fill="none" xmlns="http://www.w3.org/2000/svg">
<path d="M101 220.99V205.78H105.06C107.322 202.387 108.958 198.448 109.968 193.964C111.019 189.439 111.544 183.238 111.544 175.361V169.483H139.6V205.78H145.72V220.99H139.418V211.9H107.302V220.99H101ZM112.332 205.78H132.934V175.603H118.028C118.028 182.632 117.603 188.551 116.755 193.358C115.907 198.125 114.432 202.266 112.332 205.78Z" fill="white"/>
<path d="M152.883 211.9V169.483H159.67L173.425 188.571L187.059 169.483H193.725V211.9H187.059V179.663L175.243 195.661H171.365L159.549 179.663V211.9H152.883Z" fill="white"/>
<path d="M204.248 211.9V169.483H210.914V200.629L234.243 169.483H240.06V211.9H233.395V180.633L209.944 211.9H204.248Z" fill="white"/>
<path d="M247.311 169.483H282.032V175.603H267.974V211.9H261.308V175.603H247.311V169.483Z" fill="white"/>
<path d="M289.284 211.9V169.483H307.524C311.887 169.483 315.341 170.634 317.886 172.937C320.431 175.199 321.703 178.148 321.703 181.784C321.703 185.501 320.431 188.53 317.886 190.873C315.341 193.217 311.887 194.388 307.524 194.388H295.95V211.9H289.284ZM295.95 188.268H306.978C309.523 188.268 311.483 187.722 312.856 186.632C314.27 185.541 314.977 183.965 314.977 181.905C314.977 179.845 314.27 178.29 312.856 177.239C311.483 176.148 309.523 175.603 306.978 175.603H295.95V188.268Z" fill="white"/>
<path d="M329.406 211.9V169.483H336.071V200.629L359.401 169.483H365.218V211.9H358.553V180.633L335.102 211.9H329.406Z" fill="white"/>
<path d="M375.741 211.9V169.483H382.406V200.629L405.736 169.483H411.553V211.9H404.888V180.633L381.437 211.9H375.741ZM393.617 166.998C390.425 166.998 387.84 166.11 385.86 164.332C383.881 162.555 382.871 160.111 382.83 157H388.405C388.405 158.495 388.87 159.707 389.799 160.636C390.728 161.525 391.981 161.969 393.556 161.969C395.132 161.969 396.384 161.504 397.313 160.575C398.242 159.646 398.727 158.454 398.767 157H404.342C404.342 160.03 403.312 162.454 401.252 164.272C399.232 166.089 396.687 166.998 393.617 166.998Z" fill="white"/>
<path d="M168.491 288.688C162.149 288.688 156.836 286.628 152.554 282.507C148.272 278.346 146.131 273.074 146.131 266.692C146.131 260.309 148.252 255.057 152.494 250.937C156.735 246.776 162.068 244.695 168.491 244.695C172.814 244.695 176.651 245.644 180.004 247.543V254.269C176.53 252.047 172.713 250.937 168.552 250.937C164.067 250.937 160.351 252.431 157.402 255.421C154.453 258.37 152.978 262.127 152.978 266.692C152.978 271.297 154.473 275.074 157.462 278.023C160.492 280.972 164.269 282.447 168.794 282.447C173.601 282.447 177.641 281.154 180.913 278.569V285.295C177.399 287.557 173.258 288.688 168.491 288.688Z" fill="white"/>
<path d="M226.881 287.9V245.483H233.547V287.9H226.881ZM189.069 287.9V245.483H195.735V260.147H205.248C210.177 260.147 214.055 261.44 216.883 264.025C219.711 266.611 221.125 269.964 221.125 274.084C221.125 278.165 219.691 281.497 216.822 284.083C213.995 286.628 210.137 287.9 205.248 287.9H189.069ZM195.735 281.78H204.885C207.874 281.78 210.197 281.114 211.853 279.78C213.51 278.407 214.338 276.508 214.338 274.084C214.338 271.62 213.51 269.701 211.853 268.328C210.197 266.954 207.874 266.267 204.885 266.267H195.735V281.78Z" fill="white"/>
<path d="M278.098 296.99V287.9H244.103V245.483H250.769V281.78H271.614V245.483H278.28V281.78H284.4V296.99H278.098Z" fill="white"/>
<path d="M291.562 287.9V245.483H298.228V262.813L315.619 245.483H324.163L304.53 264.874L327.314 287.9H318.225L298.228 267.54V287.9H291.562Z" fill="white"/>
<path d="M349.139 282.447C353.381 282.447 356.916 280.952 359.743 277.963C362.571 274.973 363.985 271.216 363.985 266.692C363.985 262.167 362.571 258.41 359.743 255.421C356.916 252.431 353.381 250.937 349.139 250.937C344.938 250.937 341.423 252.431 338.595 255.421C335.767 258.41 334.354 262.167 334.354 266.692C334.354 271.216 335.767 274.973 338.595 277.963C341.423 280.952 344.938 282.447 349.139 282.447ZM364.591 282.386C360.471 286.587 355.32 288.688 349.139 288.688C342.958 288.688 337.808 286.587 333.687 282.386C329.566 278.144 327.506 272.913 327.506 266.692C327.506 260.47 329.566 255.259 333.687 251.058C337.808 246.816 342.958 244.695 349.139 244.695C355.32 244.695 360.471 246.816 364.591 251.058C368.752 255.259 370.833 260.47 370.833 266.692C370.833 272.913 368.752 278.144 364.591 282.386Z" fill="white"/>
<path d="M108.202 346.9V343.847C108.343 343.904 108.626 343.932 109.05 343.932C109.898 343.932 110.619 343.664 111.213 343.127C111.835 342.561 112.301 341.755 112.612 340.71C112.923 339.664 113.149 338.533 113.29 337.317C113.46 336.073 113.559 334.618 113.587 332.95L113.757 326.335H129.361V346.9H126.012V329.261H116.98L116.852 333.034C116.824 334.307 116.768 335.409 116.683 336.342C116.598 337.275 116.457 338.335 116.259 339.522C116.089 340.681 115.821 341.671 115.453 342.49C115.114 343.282 114.676 344.045 114.139 344.78C113.601 345.487 112.909 346.024 112.061 346.392C111.241 346.759 110.294 346.943 109.22 346.943C108.767 346.943 108.428 346.929 108.202 346.9Z" fill="white"/>
<path d="M136.422 346.9V326.335H139.815V341.982L152.536 326.335H155.673V346.9H152.281V331.296L139.56 346.9H136.422Z" fill="white"/>
<path d="M176.286 346.9V338.844C174.335 339.664 172.286 340.073 170.137 340.073C167.31 340.073 165.204 339.423 163.819 338.123C162.434 336.794 161.741 334.589 161.741 331.508V326.335H165.133V331.211C165.133 333.388 165.557 334.914 166.406 335.791C167.254 336.639 168.709 337.063 170.773 337.063C172.752 337.063 174.589 336.625 176.286 335.748V326.335H179.635V346.9H176.286Z" fill="white"/>
<path d="M186.735 346.9V326.335H190.127V334.858H202.297V326.335H205.647V346.9H202.297V337.868H190.127V346.9H186.735Z" fill="white"/>
<path d="M233.221 346.9V326.335H236.571V346.9H233.221ZM212.74 346.9V326.335H216.133V333.077H222.027C224.486 333.077 226.408 333.699 227.794 334.943C229.207 336.186 229.914 337.868 229.914 339.989C229.914 342.024 229.235 343.692 227.878 344.992C226.522 346.264 224.613 346.9 222.154 346.9H212.74ZM216.133 343.975H221.56C223.143 343.975 224.359 343.635 225.207 342.957C226.083 342.278 226.522 341.303 226.522 340.031C226.522 337.345 224.868 336.003 221.56 336.003H216.133V343.975Z" fill="white"/>
<path d="M243.632 346.9V326.335H247.024V341.982L259.745 326.335H262.883V346.9H259.491V331.296L246.77 346.9H243.632ZM253.258 323.027C251.194 323.027 249.512 322.434 248.212 321.246C246.911 320.059 246.261 318.462 246.261 316.455H249.187C249.187 317.642 249.54 318.589 250.247 319.296C250.982 320.002 251.971 320.356 253.215 320.356C254.459 320.356 255.434 320.002 256.141 319.296C256.876 318.589 257.258 317.642 257.286 316.455H260.212C260.212 318.433 259.547 320.031 258.219 321.246C256.918 322.434 255.265 323.027 253.258 323.027Z" fill="white"/>
<path d="M291.157 347.409C287.652 347.409 284.91 346.194 282.931 343.763C280.981 341.331 280.005 338.024 280.005 333.84C280.005 332.54 280.076 331.352 280.217 330.278C280.359 329.176 280.585 328.172 280.896 327.268C281.207 326.363 281.546 325.543 281.913 324.808C282.281 324.073 282.776 323.409 283.398 322.815C284.02 322.222 284.613 321.699 285.179 321.246C285.744 320.766 286.479 320.328 287.384 319.932C288.288 319.536 289.122 319.197 289.885 318.914C290.649 318.631 291.61 318.349 292.769 318.066C293.928 317.783 294.96 317.557 295.864 317.388C296.769 317.19 297.914 316.964 299.299 316.709V319.847C294.748 320.695 291.779 321.373 290.394 321.882C287.228 322.985 285.136 324.766 284.118 327.225C283.553 328.526 283.228 330.094 283.143 331.932C283.991 330.49 285.179 329.359 286.705 328.54C288.26 327.72 290.055 327.31 292.09 327.31C294.748 327.31 296.981 328.215 298.79 330.024C300.628 331.833 301.546 334.123 301.546 336.893C301.546 339.975 300.543 342.505 298.536 344.483C296.557 346.434 294.097 347.409 291.157 347.409ZM291.157 344.399C293.136 344.399 294.79 343.734 296.119 342.406C297.476 341.049 298.154 339.296 298.154 337.148C298.154 335.084 297.49 333.43 296.161 332.186C294.861 330.943 293.249 330.321 291.327 330.321C289.603 330.321 288.005 330.844 286.535 331.89C285.065 332.936 284.02 334.151 283.398 335.536C283.539 338.335 284.274 340.512 285.603 342.066C286.931 343.621 288.783 344.399 291.157 344.399Z" fill="white"/>
<path d="M310.464 355.381H307.072V326.335H310.464V329.515C312.358 327.056 314.959 325.826 318.266 325.826C321.263 325.826 323.722 326.886 325.644 329.006C327.567 331.098 328.528 333.628 328.528 336.596C328.528 339.593 327.567 342.151 325.644 344.271C323.722 346.363 321.263 347.409 318.266 347.409C314.902 347.409 312.301 346.18 310.464 343.72V355.381ZM310.464 333.289V339.989C311.058 341.289 311.976 342.349 313.22 343.169C314.464 343.989 315.878 344.399 317.461 344.399C319.666 344.399 321.489 343.649 322.931 342.151C324.372 340.653 325.093 338.801 325.093 336.596C325.093 334.391 324.372 332.554 322.931 331.084C321.489 329.586 319.666 328.837 317.461 328.837C315.962 328.837 314.563 329.261 313.263 330.109C311.991 330.957 311.058 332.017 310.464 333.289Z" fill="white"/>
<path d="M343.867 347.409C340.673 347.409 337.987 346.406 335.81 344.399C333.634 342.363 332.545 339.777 332.545 336.639C332.545 333.529 333.506 330.957 335.429 328.921C337.379 326.858 339.909 325.826 343.019 325.826C344.63 325.826 346.072 326.165 347.344 326.844C348.645 327.494 349.662 328.356 350.397 329.43C351.132 330.504 351.683 331.649 352.051 332.865C352.447 334.08 352.645 335.31 352.645 336.554V337.487H335.98C336.206 339.607 337.082 341.289 338.609 342.533C340.164 343.777 342.143 344.399 344.546 344.399C346.92 344.399 349.125 343.763 351.16 342.49V345.459C349.436 346.759 347.005 347.409 343.867 347.409ZM336.022 334.773H349.252C349.167 333.275 348.588 331.918 347.514 330.702C346.468 329.458 344.913 328.837 342.849 328.837C340.871 328.837 339.259 329.43 338.015 330.617C336.8 331.776 336.135 333.162 336.022 334.773Z" fill="white"/>
<path d="M359.538 346.9V326.335H362.93V334.858H375.1V326.335H378.45V346.9H375.1V337.868H362.93V346.9H359.538Z" fill="white"/>
<path d="M382.957 352.879V343.975H385.543C386.787 342.307 387.663 340.116 388.172 337.402C388.709 334.688 388.978 330.999 388.978 326.335H404.455V343.975H408.229V352.879H405.006V346.9H386.179V352.879H382.957ZM389.232 343.975H401.105V329.261H392.073C392.073 335.932 391.126 340.837 389.232 343.975Z" fill="white"/>
</svg>
