<svg width="57" height="55" viewBox="0 0 57 55" fill="none" xmlns="http://www.w3.org/2000/svg">
<path opacity="0.3" d="M56.0107 0C56.0107 0 48.2252 9.00097 39.1607 18.7895C38.7158 18.2832 38.2153 17.8332 37.7704 17.3269C33.5996 13.1077 29.3176 9.50727 25.2024 6.63821C28.539 9.3385 31.9869 12.6014 35.2679 16.258C36.3245 17.4394 37.2699 18.5645 38.2153 19.7459C32.3206 26.1028 25.981 32.6285 20.976 37.129C19.6413 35.8351 18.3067 34.4287 16.972 32.966C5.07132 19.6334 -0.93464 5.28807 2.95811 0C2.68006 0.168768 2.45761 0.393792 2.23517 0.618816C-2.99224 5.90688 4.34838 21.9961 18.7516 36.5102C19.1964 36.9602 19.6969 37.4665 20.1418 37.9166C18.9184 39.0417 17.7506 39.998 16.694 40.7856C7.12891 48.0427 2.06834 42.6421 0.0107422 39.0979C0.177574 41.6295 0.733682 44.161 1.73467 46.6362C2.51322 48.549 3.51422 50.2929 4.68204 51.9243C5.73865 53.3307 7.24014 54.3996 8.90846 54.7934C11.0217 55.2997 13.5241 54.9059 16.5271 53.2745C19.8638 51.418 23.4785 48.2114 27.0932 44.161C38.7714 53.4432 50.0048 57.4937 54.2312 53.2182C58.8469 48.549 53.7307 35.6663 42.7754 22.7837C50.3941 10.8012 56.0107 0 56.0107 0ZM48.7257 49.8991C45.111 53.2182 36.825 50.2929 27.8717 43.2609C32.6542 37.6915 37.4924 30.9408 41.7188 24.3589C49.6155 35.6101 52.7853 46.1299 48.7257 49.8991Z" fill="white"/>
</svg>
