<svg width="116" height="137" viewBox="0 0 116 137" fill="none" xmlns="http://www.w3.org/2000/svg">
<path d="M93.3628 0.122062C93.1181 0.979845 60.2026 104.649 0 137C44.2954 96.194 68.7676 37.742 79.6579 5.63638L32.0594 5.75964C32.113 5.89251 50.6606 51.8407 52.2493 56.736L19.0882 0L93.3628 0.122062Z" fill="url(#paint0_linear_117_642)"/>
<path d="M107.435 133.325H28.7553L37.8107 126.462H87.3678L68.0334 89.6999L72.5611 80.7546L107.435 133.325Z" fill="url(#paint1_linear_117_642)"/>
<path d="M116 133.325H110.127L75.2533 76.5878L76.7219 74.6276L116 133.325Z" fill="url(#paint2_linear_117_642)"/>
<path d="M103.519 0.122062C88.7127 48.0354 45.0296 109.551 15.2954 129.648C75.2221 78.8198 97.6222 0.204005 97.6455 0.122062H103.519Z" fill="url(#paint3_linear_117_642)"/>
<path d="M108.535 0.122062C100.337 26.2231 74.0295 74.7493 41.6035 106.732C47.1097 100.605 52.86 93.6201 58.3663 86.2678C60.9359 82.8366 63.3839 79.283 65.8311 75.8518C82.4724 51.834 97.2787 24.2624 104.62 0.122062H108.535Z" fill="url(#paint4_linear_117_642)"/>
<path d="M42.4614 10.5392L55.9214 44.3599L36.4652 7.84307H75.3764L42.4614 10.5392Z" fill="url(#paint5_linear_117_642)"/>
<defs>
<linearGradient id="paint0_linear_117_642" x1="128.889" y1="-23.5665" x2="-23.5328" y2="117.527" gradientUnits="userSpaceOnUse">
<stop stop-color="#565656"/>
<stop offset="0.509615" stop-color="#DFDFDF"/>
<stop offset="1" stop-color="#717171"/>
</linearGradient>
<linearGradient id="paint1_linear_117_642" x1="128.889" y1="-23.5665" x2="-23.5328" y2="117.527" gradientUnits="userSpaceOnUse">
<stop stop-color="#565656"/>
<stop offset="0.509615" stop-color="#DFDFDF"/>
<stop offset="1" stop-color="#717171"/>
</linearGradient>
<linearGradient id="paint2_linear_117_642" x1="128.889" y1="-23.5665" x2="-23.5328" y2="117.527" gradientUnits="userSpaceOnUse">
<stop stop-color="#565656"/>
<stop offset="0.509615" stop-color="#DFDFDF"/>
<stop offset="1" stop-color="#717171"/>
</linearGradient>
<linearGradient id="paint3_linear_117_642" x1="128.889" y1="-23.5665" x2="-23.5328" y2="117.527" gradientUnits="userSpaceOnUse">
<stop stop-color="#565656"/>
<stop offset="0.509615" stop-color="#DFDFDF"/>
<stop offset="1" stop-color="#717171"/>
</linearGradient>
<linearGradient id="paint4_linear_117_642" x1="128.889" y1="-23.5665" x2="-23.5328" y2="117.527" gradientUnits="userSpaceOnUse">
<stop stop-color="#565656"/>
<stop offset="0.509615" stop-color="#DFDFDF"/>
<stop offset="1" stop-color="#717171"/>
</linearGradient>
<linearGradient id="paint5_linear_117_642" x1="128.889" y1="-23.5665" x2="-23.5328" y2="117.527" gradientUnits="userSpaceOnUse">
<stop stop-color="#565656"/>
<stop offset="0.509615" stop-color="#DFDFDF"/>
<stop offset="1" stop-color="#717171"/>
</linearGradient>
</defs>
</svg>
