<svg width="133" height="130" viewBox="0 0 133 130" fill="none" xmlns="http://www.w3.org/2000/svg">
<path d="M7.76562 1.66309C5.72687 4.39672 4.90143 8.43199 5.37109 13.6006C5.83943 18.7537 7.58513 24.8937 10.5068 31.6709C10.7127 32.1483 10.9253 32.6282 11.1426 33.1113C11.496 33.8973 11.8638 34.6909 12.2471 35.4912C12.9417 36.9415 13.6857 38.414 14.4766 39.9062C14.8606 40.6308 15.2549 41.3604 15.6611 42.0938C21.4758 52.5903 29.5532 63.9447 39.4629 75.0576L39.9307 75.5781C40.206 75.8849 40.4817 76.1927 40.7598 76.499V76.5H40.7607C43.8425 79.9004 46.9688 83.1337 50.1074 86.1865C61.5161 75.9209 75.6586 61.5223 88.9297 47.4775C86.709 44.7659 84.3773 42.0537 81.9375 39.3594C74.2 30.8429 66.2004 23.3439 58.3975 17.1543L59.7881 15.2793C69.5023 22.0085 79.6121 30.4011 89.4199 40.1846C90.5233 41.2852 91.6085 42.3905 92.6768 43.498C113.538 21.2581 131.312 1.00411 131.346 0.96582C131.326 1.00401 118.58 25.2804 101.004 52.5977C112.271 65.5929 120.96 78.6281 126.329 90.1562C129.871 97.7603 131.997 104.769 132.431 110.711C132.863 116.636 131.616 121.656 128.219 125.062L128.262 125.105L127.335 125.868C126.199 126.814 124.914 127.558 123.499 128.113C123.486 128.118 123.474 128.123 123.461 128.128C123.338 128.176 123.214 128.222 123.089 128.268C123.069 128.275 123.049 128.282 123.029 128.289C122.622 128.434 122.205 128.565 121.777 128.681C121.742 128.69 121.707 128.699 121.672 128.708C121.571 128.735 121.47 128.761 121.368 128.786C121.303 128.802 121.237 128.818 121.171 128.833C121.084 128.853 120.997 128.873 120.91 128.893C120.85 128.906 120.79 128.918 120.729 128.931C120.618 128.954 120.507 128.977 120.395 128.998C120.368 129.003 120.34 129.008 120.313 129.013C120.18 129.038 120.045 129.062 119.91 129.084C119.89 129.087 119.87 129.09 119.85 129.094C119.709 129.117 119.569 129.139 119.427 129.159C119.407 129.162 119.386 129.164 119.366 129.167C118.908 129.231 118.441 129.28 117.966 129.316C117.924 129.32 117.883 129.322 117.841 129.325C117.707 129.335 117.573 129.344 117.438 129.352C117.419 129.353 117.399 129.353 117.38 129.354C117.229 129.362 117.078 129.369 116.926 129.374C116.91 129.375 116.895 129.374 116.879 129.375C115.882 129.408 114.852 129.387 113.793 129.311C113.594 129.296 113.393 129.279 113.191 129.261C113.157 129.258 113.122 129.253 113.088 129.25C110.728 129.031 108.208 128.556 105.555 127.841C105.54 127.837 105.525 127.833 105.511 127.829C105.215 127.749 104.919 127.664 104.62 127.578C104.488 127.54 104.355 127.504 104.223 127.465C103.979 127.393 103.734 127.316 103.488 127.24C103.296 127.181 103.101 127.123 102.907 127.062C102.695 126.994 102.482 126.923 102.269 126.853C102.048 126.78 101.826 126.708 101.604 126.633C101.336 126.542 101.068 126.446 100.798 126.351C100.638 126.294 100.478 126.239 100.317 126.182C100.025 126.076 99.733 125.966 99.4385 125.855C99.2835 125.797 99.1273 125.741 98.9717 125.682C98.6635 125.564 98.3546 125.442 98.0439 125.319C97.9098 125.266 97.7752 125.213 97.6406 125.159C97.3176 125.029 96.9936 124.896 96.668 124.761C96.5174 124.698 96.366 124.636 96.2148 124.572C95.9622 124.466 95.7093 124.356 95.4551 124.246C95.2451 124.155 95.0343 124.064 94.8232 123.971C94.5531 123.851 94.2825 123.729 94.0107 123.606C93.8234 123.522 93.6353 123.437 93.4473 123.351C93.3619 123.311 93.275 123.274 93.1895 123.234C92.9621 123.129 92.7354 123.02 92.5068 122.912C92.4053 122.864 92.3029 122.818 92.2012 122.77C92.1532 122.747 92.1057 122.722 92.0576 122.699C91.7606 122.557 91.463 122.413 91.1641 122.267C90.9622 122.168 90.7594 122.069 90.5566 121.969C90.3236 121.853 90.0905 121.735 89.8564 121.617C89.5988 121.487 89.3399 121.357 89.0811 121.224C88.8561 121.108 88.6312 120.99 88.4053 120.872C88.1309 120.729 87.8558 120.584 87.5801 120.438C87.3881 120.335 87.1956 120.233 87.0029 120.129C86.7032 119.967 86.4028 119.804 86.1016 119.639C85.8971 119.526 85.6925 119.413 85.4873 119.299C85.2041 119.141 84.9202 118.982 84.6357 118.821C84.394 118.685 84.1518 118.546 83.9092 118.407C83.6633 118.266 83.4167 118.124 83.1699 117.98C82.9057 117.827 82.6412 117.671 82.376 117.515C82.1399 117.375 81.9038 117.234 81.667 117.093C81.4215 116.946 81.175 116.799 80.9287 116.649C80.6726 116.494 80.4161 116.338 80.1592 116.18C79.8833 116.01 79.6069 115.839 79.3301 115.667C79.1137 115.532 78.8976 115.395 78.6807 115.259C78.3976 115.081 78.114 114.901 77.8301 114.72C77.5801 114.56 77.3298 114.399 77.0791 114.237C76.8273 114.075 76.5747 113.911 76.3223 113.746C76.049 113.567 75.7759 113.387 75.502 113.205C75.2761 113.055 75.0496 112.905 74.8232 112.754C74.5089 112.543 74.1941 112.331 73.8789 112.117C73.6769 111.98 73.4748 111.842 73.2725 111.703C72.9529 111.484 72.6329 111.264 72.3125 111.041C72.093 110.888 71.8732 110.735 71.6533 110.581C71.3554 110.372 71.0573 110.161 70.7588 109.949C70.553 109.803 70.3467 109.656 70.1406 109.509C69.8359 109.29 69.5309 109.07 69.2256 108.849C68.9814 108.671 68.7367 108.494 68.4922 108.314C68.2246 108.118 67.9574 107.92 67.6895 107.722C67.4382 107.536 67.1861 107.349 66.9346 107.161C66.6862 106.975 66.4382 106.788 66.1895 106.6C65.8799 106.366 65.5697 106.131 65.2598 105.894C65.0535 105.736 64.848 105.576 64.6416 105.417C64.3451 105.188 64.0478 104.959 63.751 104.728C63.4287 104.476 63.1068 104.222 62.7842 103.968C62.7696 103.956 62.7548 103.945 62.7402 103.934C54.501 112.886 46.3106 120.106 38.6787 124.222C31.6124 128.046 25.7235 128.876 20.8252 127.779C16.8102 126.87 13.3307 124.463 10.8682 121.146C8.13795 117.456 5.83577 113.391 4.01562 108.952C1.68692 103.256 0.374753 97.3728 0 91.543C4.81804 99.6994 16.6491 112.241 39.1064 95.3936C41.2822 93.7627 43.6923 91.7955 46.2871 89.5576C45.9279 89.2123 45.5705 88.8636 45.2119 88.5146C44.5049 87.8266 43.7978 87.1329 43.0938 86.4307C39.9152 83.26 36.8793 80.0567 33.999 76.8438C33.0388 75.7727 32.0963 74.7002 31.1709 73.6279C29.783 72.0197 28.4352 70.4108 27.1279 68.8047C25.3849 66.6632 23.714 64.5268 22.1201 62.4014C21.7217 61.8701 21.3283 61.3393 20.9395 60.8096C19.7727 59.22 18.649 57.6381 17.5703 56.0664C12.8963 49.2558 9.06293 42.6391 6.18359 36.457C5.74098 35.5067 5.3207 34.5656 4.92285 33.6348C4.52496 32.7039 4.14891 31.7835 3.79688 30.874C1.86052 25.8714 0.626303 21.2059 0.183594 17.0303C0.143336 16.6506 0.110103 16.2748 0.0830078 15.9033C0.0559428 15.5322 0.0352657 15.1646 0.0214844 14.8008C0.014593 14.6189 0.00938693 14.4379 0.00585938 14.2578C-0.0156983 13.1571 0.0257323 12.0919 0.133789 11.0674C0.5382 7.23188 1.87384 3.96487 4.31543 1.5293C4.90787 0.938351 5.52935 0.438328 6.17383 0L7.76562 1.66309ZM97.248 58.3643C87.6774 72.8875 76.9256 87.8409 66.1357 100.148C66.4137 100.363 66.6904 100.577 66.9678 100.788C72.9547 105.345 78.788 109.116 84.248 111.989C90.9203 115.5 96.978 117.639 102.04 118.265C104.098 118.519 105.967 118.522 107.635 118.277C107.891 118.24 108.143 118.196 108.391 118.146C108.514 118.122 108.637 118.096 108.758 118.068C109.243 117.958 109.708 117.824 110.154 117.667C110.266 117.628 110.376 117.587 110.485 117.545C111.686 117.082 112.739 116.443 113.639 115.633C114.02 115.29 114.37 114.917 114.692 114.516C114.768 114.422 114.842 114.327 114.914 114.23C115.033 114.071 115.15 113.907 115.261 113.738L115.357 113.59C116.816 111.293 117.521 108.211 117.436 104.4C117.321 99.3163 115.798 93.0897 112.967 86.1133C109.525 77.6317 104.185 68.1319 97.248 58.3643Z" fill="url(#paint0_linear_117_546)"/>
<defs>
<linearGradient id="paint0_linear_117_546" x1="147.237" y1="-22.2574" x2="3.76994" y2="138.376" gradientUnits="userSpaceOnUse">
<stop stop-color="#565656"/>
<stop offset="0.509615" stop-color="#DFDFDF"/>
<stop offset="1" stop-color="#717171"/>
</linearGradient>
</defs>
</svg>
