<svg width="138" height="138" viewBox="0 0 138 138" fill="none" xmlns="http://www.w3.org/2000/svg">
<path d="M119.169 68.1562H69.7023L83.5679 54.1875L90.0322 56.7187L96.965 40.7812L81.0383 47.8124L69.7023 18.5624V68.1562L55.8367 54.1875L58.2725 47.8124L42.3459 40.7812L49.3723 56.7187L20.2359 68.1562H69.7023L55.8367 82.0313L49.3723 79.5L42.3459 95.4376L58.2725 88.5001L69.7023 117.656V68.1562L83.5679 82.0313L81.0383 88.5001L96.965 95.4376L90.0322 79.5L119.169 68.1562Z" fill="url(#paint0_linear_117_585)"/>
<path d="M13.4908 57.5626C14.9898 49.9689 17.9878 42.8439 22.2037 36.6563L12.2729 29.6251C7.02648 37.2188 3.37271 46.0314 1.49898 55.5001L13.4908 57.5626Z" fill="url(#paint1_linear_117_585)"/>
<path d="M37.0998 21.4688C43.2831 17.1563 50.4033 14.0625 57.9919 12.4688L56.0244 0.468751C46.5621 2.34376 37.7556 6.28127 30.0733 11.625L37.0998 21.4688Z" fill="url(#paint2_linear_117_585)"/>
<path d="M79.446 12.0938C87.222 13.4063 94.5295 16.4063 100.994 20.5313L108.114 10.5938C100.244 5.34376 91.2505 1.6875 81.5071 0L79.446 12.0938Z" fill="url(#paint3_linear_117_585)"/>
<path d="M21.8289 99.9378C17.7067 93.6565 14.8024 86.4377 13.3971 78.7502L1.4053 80.719C3.09165 90.2815 6.74542 99.1878 11.8982 106.969L21.8289 99.9378Z" fill="url(#paint4_linear_117_585)"/>
<path d="M101.369 116.25C94.9043 120.563 87.5031 123.563 79.5397 124.969L81.5071 136.969C91.3442 135.282 100.432 131.532 108.395 126.188L101.369 116.25Z" fill="url(#paint5_linear_117_585)"/>
<path d="M116.546 35.6251C121.043 42.0001 124.228 49.3126 125.821 57.1876L137.813 55.2189C135.939 45.4689 131.91 36.4688 126.383 28.5938L116.546 35.6251Z" fill="url(#paint6_linear_117_585)"/>
<path d="M126.008 79.1252C124.509 87.094 121.418 94.5002 116.921 100.969L126.851 108C132.379 100.032 136.22 90.9377 138 81.094L126.008 79.1252Z" fill="url(#paint7_linear_117_585)"/>
<path d="M57.8982 124.594C50.1222 123 43.002 119.719 36.7251 115.313L29.6986 125.25C37.4745 130.782 46.2811 134.719 55.9308 136.688L57.8982 124.594Z" fill="url(#paint8_linear_117_585)"/>
<path d="M63.9871 11.0622C63.8934 10.9684 63.8934 10.8747 63.8934 10.7809V0.468385C63.8934 0.374635 63.8934 0.280885 63.9871 0.187134C64.0807 0.093384 64.1744 0.093384 64.2681 0.093384H65.9545C66.2355 0.093384 66.4229 0.187134 66.5166 0.468385L69.3272 5.43715L72.1378 0.468385C72.1378 0.187134 72.3251 0.093384 72.6062 0.093384H74.2925C74.3862 0.093384 74.4799 0.093384 74.5736 0.187134C74.6673 0.280885 74.6673 0.374635 74.6673 0.468385V10.7809C74.6673 10.8747 74.6673 10.9684 74.5736 11.0622C74.4799 11.1559 74.3862 11.1559 74.2925 11.1559H72.4188C72.3251 11.1559 72.2315 11.1559 72.1378 11.0622C72.0441 10.9684 72.0441 10.8747 72.0441 10.7809V4.87465L70.264 8.15591C70.0767 8.34341 69.8893 8.53091 69.7019 8.53091H68.8587C68.7651 8.53091 68.5777 8.53091 68.484 8.43716C68.3903 8.34341 68.2966 8.24966 68.2966 8.15591L66.5166 4.87465V10.7809C66.5166 10.8747 66.5166 10.9684 66.4229 11.0622C66.3292 11.1559 66.2355 11.1559 66.1418 11.1559H64.2681C64.1744 11.1559 64.0807 11.1559 63.9871 11.0622Z" fill="url(#paint9_linear_117_585)"/>
<path d="M127.226 73.125C127.133 73.125 127.039 73.125 126.945 73.0313C126.852 72.9375 126.852 72.8438 126.852 72.75V70.4062C126.852 70.2187 126.852 70.125 126.945 70.125C127.039 70.0312 127.039 69.9375 127.133 69.9375L131.161 67.5V66.375H127.226C127.133 66.375 127.039 66.375 126.945 66.2812C126.852 66.1875 126.852 66.0937 126.852 66V63.9375C126.852 63.8437 126.852 63.75 126.945 63.6562C127.039 63.5625 127.133 63.5625 127.226 63.5625H137.532C137.626 63.5625 137.719 63.5625 137.813 63.6562C137.907 63.75 137.907 63.8437 137.907 63.9375V66C137.907 66.0937 137.907 66.1875 137.813 66.2812C137.719 66.375 137.626 66.375 137.532 66.375H133.691V67.3125L137.626 69.6562C137.813 69.75 137.907 69.9375 137.907 70.2188V72.4688C137.907 72.5625 137.907 72.6563 137.813 72.75C137.719 72.8438 137.626 72.8438 137.532 72.8438C137.532 72.8438 137.438 72.8438 137.345 72.75L132.567 69.8438L127.414 73.0313C127.414 73.125 127.32 73.125 127.226 73.125Z" fill="url(#paint10_linear_117_585)"/>
<path d="M74.8554 124.875C74.9491 124.969 74.9491 125.062 74.9491 125.156V129.094C74.9491 129.187 74.9491 129.281 74.8554 129.375C74.7617 129.469 74.668 129.469 74.5743 129.469H74.2933C73.8248 129.469 73.4501 129.937 73.2627 130.781C73.0754 131.625 72.9817 132.844 72.9817 134.437V137.625C72.9817 137.719 72.9817 137.812 72.888 137.906C72.7943 138 72.7006 138 72.6069 138H65.2057C65.112 138 65.0183 138 64.9246 137.906C64.831 137.812 64.831 137.719 64.831 137.625V129.469H64.0815C63.9878 129.469 63.8941 129.469 63.8004 129.375C63.7067 129.281 63.7067 129.187 63.7067 129.094V125.156C63.7067 125.062 63.7067 124.969 63.8004 124.875C63.8941 124.781 63.9878 124.781 64.0815 124.781H66.1426C66.2362 124.781 66.3299 124.781 66.4236 124.875C66.5173 124.969 66.5173 125.062 66.5173 125.156V126.937H72.1385V125.156C72.1385 125.062 72.1385 124.969 72.2322 124.875C72.3259 124.781 72.4196 124.781 72.5132 124.781H74.5743C74.668 124.781 74.7617 124.875 74.8554 124.875ZM67.5479 129.562V135.562H70.1711V134.156C70.1711 132 70.4521 130.5 70.9206 129.562H67.5479Z" fill="url(#paint11_linear_117_585)"/>
<path d="M13.1161 65.6248C13.1161 65.7186 13.0224 65.7186 12.835 65.7186H11.055V73.2186C11.055 73.3123 11.055 73.4061 10.9613 73.4998C10.8676 73.5936 10.7739 73.5936 10.6802 73.5936H0.374745C0.281059 73.5936 0.187373 73.5936 0.0936864 73.4998C0 73.4061 0 73.3123 0 73.2186V71.1561C0 71.0623 0 70.9686 0.0936864 70.8748C0.187373 70.7811 0.281059 70.7811 0.374745 70.7811H8.52546V66.9373H0.374745C0.281059 66.9373 0.187373 66.9373 0.0936864 66.8436C0 66.6561 0 66.5623 0 66.4686V64.4061C0 64.3123 0 64.2186 0.0936864 64.1248C0.187373 64.0311 0.281059 64.0311 0.374745 64.0311H8.52546V63.2811C8.52546 63.1873 8.52546 63.0935 8.61914 62.9998C8.71283 62.906 8.80652 62.906 8.9002 62.906H12.835C12.9287 62.906 13.0224 62.906 13.1161 62.9998C13.2098 63.0935 13.2098 63.1873 13.2098 63.2811V65.3436C13.3035 65.4373 13.2098 65.5311 13.1161 65.6248Z" fill="url(#paint12_linear_117_585)"/>
<path d="M20.611 117.281L31.3849 112.594L25.2953 106.5L20.611 117.281Z" fill="url(#paint13_linear_117_585)"/>
<path d="M117.951 19.8743L107.178 24.5618L113.267 30.6556L117.951 19.8743Z" fill="url(#paint14_linear_117_585)"/>
<path d="M20.611 19.8743L25.2953 30.6556L31.3849 24.5618L20.611 19.8743Z" fill="url(#paint15_linear_117_585)"/>
<path d="M117.951 117.281L113.267 106.5L107.178 112.594L117.951 117.281Z" fill="url(#paint16_linear_117_585)"/>
<defs>
<linearGradient id="paint0_linear_117_585" x1="153.333" y1="-23.7385" x2="-0.0489268" y2="143.948" gradientUnits="userSpaceOnUse">
<stop stop-color="#565656"/>
<stop offset="0.509615" stop-color="#DFDFDF"/>
<stop offset="1" stop-color="#717171"/>
</linearGradient>
<linearGradient id="paint1_linear_117_585" x1="153.333" y1="-23.7385" x2="-0.0489268" y2="143.948" gradientUnits="userSpaceOnUse">
<stop stop-color="#565656"/>
<stop offset="0.509615" stop-color="#DFDFDF"/>
<stop offset="1" stop-color="#717171"/>
</linearGradient>
<linearGradient id="paint2_linear_117_585" x1="153.333" y1="-23.7385" x2="-0.0489268" y2="143.948" gradientUnits="userSpaceOnUse">
<stop stop-color="#565656"/>
<stop offset="0.509615" stop-color="#DFDFDF"/>
<stop offset="1" stop-color="#717171"/>
</linearGradient>
<linearGradient id="paint3_linear_117_585" x1="153.333" y1="-23.7385" x2="-0.0489268" y2="143.948" gradientUnits="userSpaceOnUse">
<stop stop-color="#565656"/>
<stop offset="0.509615" stop-color="#DFDFDF"/>
<stop offset="1" stop-color="#717171"/>
</linearGradient>
<linearGradient id="paint4_linear_117_585" x1="153.333" y1="-23.7385" x2="-0.0489268" y2="143.948" gradientUnits="userSpaceOnUse">
<stop stop-color="#565656"/>
<stop offset="0.509615" stop-color="#DFDFDF"/>
<stop offset="1" stop-color="#717171"/>
</linearGradient>
<linearGradient id="paint5_linear_117_585" x1="153.333" y1="-23.7385" x2="-0.0489268" y2="143.948" gradientUnits="userSpaceOnUse">
<stop stop-color="#565656"/>
<stop offset="0.509615" stop-color="#DFDFDF"/>
<stop offset="1" stop-color="#717171"/>
</linearGradient>
<linearGradient id="paint6_linear_117_585" x1="153.333" y1="-23.7385" x2="-0.0489268" y2="143.948" gradientUnits="userSpaceOnUse">
<stop stop-color="#565656"/>
<stop offset="0.509615" stop-color="#DFDFDF"/>
<stop offset="1" stop-color="#717171"/>
</linearGradient>
<linearGradient id="paint7_linear_117_585" x1="153.333" y1="-23.7385" x2="-0.0489268" y2="143.948" gradientUnits="userSpaceOnUse">
<stop stop-color="#565656"/>
<stop offset="0.509615" stop-color="#DFDFDF"/>
<stop offset="1" stop-color="#717171"/>
</linearGradient>
<linearGradient id="paint8_linear_117_585" x1="153.333" y1="-23.7385" x2="-0.0489268" y2="143.948" gradientUnits="userSpaceOnUse">
<stop stop-color="#565656"/>
<stop offset="0.509615" stop-color="#DFDFDF"/>
<stop offset="1" stop-color="#717171"/>
</linearGradient>
<linearGradient id="paint9_linear_117_585" x1="153.333" y1="-23.7385" x2="-0.0489268" y2="143.948" gradientUnits="userSpaceOnUse">
<stop stop-color="#565656"/>
<stop offset="0.509615" stop-color="#DFDFDF"/>
<stop offset="1" stop-color="#717171"/>
</linearGradient>
<linearGradient id="paint10_linear_117_585" x1="153.333" y1="-23.7385" x2="-0.0489268" y2="143.948" gradientUnits="userSpaceOnUse">
<stop stop-color="#565656"/>
<stop offset="0.509615" stop-color="#DFDFDF"/>
<stop offset="1" stop-color="#717171"/>
</linearGradient>
<linearGradient id="paint11_linear_117_585" x1="153.333" y1="-23.7385" x2="-0.0489268" y2="143.948" gradientUnits="userSpaceOnUse">
<stop stop-color="#565656"/>
<stop offset="0.509615" stop-color="#DFDFDF"/>
<stop offset="1" stop-color="#717171"/>
</linearGradient>
<linearGradient id="paint12_linear_117_585" x1="153.333" y1="-23.7385" x2="-0.0489268" y2="143.948" gradientUnits="userSpaceOnUse">
<stop stop-color="#565656"/>
<stop offset="0.509615" stop-color="#DFDFDF"/>
<stop offset="1" stop-color="#717171"/>
</linearGradient>
<linearGradient id="paint13_linear_117_585" x1="153.333" y1="-23.7385" x2="-0.0489268" y2="143.948" gradientUnits="userSpaceOnUse">
<stop stop-color="#565656"/>
<stop offset="0.509615" stop-color="#DFDFDF"/>
<stop offset="1" stop-color="#717171"/>
</linearGradient>
<linearGradient id="paint14_linear_117_585" x1="153.333" y1="-23.7385" x2="-0.0489268" y2="143.948" gradientUnits="userSpaceOnUse">
<stop stop-color="#565656"/>
<stop offset="0.509615" stop-color="#DFDFDF"/>
<stop offset="1" stop-color="#717171"/>
</linearGradient>
<linearGradient id="paint15_linear_117_585" x1="153.333" y1="-23.7385" x2="-0.0489268" y2="143.948" gradientUnits="userSpaceOnUse">
<stop stop-color="#565656"/>
<stop offset="0.509615" stop-color="#DFDFDF"/>
<stop offset="1" stop-color="#717171"/>
</linearGradient>
<linearGradient id="paint16_linear_117_585" x1="153.333" y1="-23.7385" x2="-0.0489268" y2="143.948" gradientUnits="userSpaceOnUse">
<stop stop-color="#565656"/>
<stop offset="0.509615" stop-color="#DFDFDF"/>
<stop offset="1" stop-color="#717171"/>
</linearGradient>
</defs>
</svg>
