<svg width="156" height="138" viewBox="0 0 156 138" fill="none" xmlns="http://www.w3.org/2000/svg">
<path d="M38.8228 77.4198C40.7853 80.0331 42.7484 82.647 44.8745 85.097C48.1456 88.8538 51.7434 92.6112 55.178 96.368C59.4302 100.941 64.0098 104.861 68.7526 108.781C73.1685 112.375 77.9125 115.806 82.8191 118.746C86.09 120.542 89.3614 122.338 92.6323 123.971C98.3564 126.585 104.244 128.708 110.459 129.198C113.893 129.362 117.328 129.199 120.599 127.892C125.506 125.932 128.286 122.175 129.104 117.112C129.431 115.969 129.596 114.662 129.759 113.519C130.25 116.622 130.412 119.889 130.085 122.992C130.085 124.462 129.759 126.095 129.432 127.565C128.45 132.138 125.506 135.079 121.254 136.713C117.819 138.02 114.221 138.182 110.623 137.855C106.207 137.365 101.955 136.386 97.8663 134.753C92.469 132.629 87.3983 130.015 82.4917 127.075C75.459 122.829 69.0803 117.929 62.8653 112.702C57.6317 108.128 52.3976 103.228 47.8182 98.0014C44.5472 94.2447 41.2763 90.4877 38.3324 86.5677C38.3324 84.9345 38.3318 83.1376 38.4953 81.1778C38.6589 79.8711 38.6592 78.5632 38.8228 77.4198Z" fill="url(#paint0_linear_117_604)"/>
<path d="M30.479 111.394C33.0959 112.211 35.5504 112.701 38.3308 113.354C39.3121 116.131 40.4559 118.908 41.9277 121.521C43.3996 124.134 45.3628 126.584 47.9795 128.217C52.0683 130.831 56.1581 130.831 60.4104 129.034C61.3916 128.544 62.3726 128.054 63.0267 127.401C61.0641 129.524 58.7748 131.158 56.3216 132.628C55.1768 133.281 53.8671 133.934 52.5586 134.424C48.797 136.22 45.1993 135.567 41.7648 133.28C39.1482 131.484 37.1855 128.871 35.5501 126.094C33.5875 122.664 32.2781 119.07 31.2968 115.313C30.9698 114.007 30.806 112.7 30.479 111.394Z" fill="url(#paint1_linear_117_604)"/>
<path d="M6.43802 70.0696C5.94752 70.7228 5.45693 71.5395 5.12992 72.1926C2.51321 76.4394 1.53181 81.0127 3.49439 85.7494C4.63926 89.0162 6.60254 91.3032 9.05583 93.4266C14.6164 98.1631 21.3214 100.777 28.1902 102.737C34.2417 104.534 40.6209 105.513 46.8359 106.167C48.3077 106.33 49.9432 106.494 51.415 106.494C53.5412 108.617 55.6675 110.74 57.9572 112.7C53.8687 112.374 49.9437 112.047 45.8552 111.394C38.4953 110.25 31.1342 108.453 24.1014 105.84C20.6671 104.533 17.3961 102.9 14.1253 101.104C10.6908 99.1438 7.5838 96.8563 4.96701 93.9163C2.35024 90.9763 0.387621 87.7096 0.0604242 83.6263C-0.266674 79.543 0.714151 76.1127 3.49439 73.0093C4.47571 72.0293 5.29379 71.0486 6.27511 69.9053L6.43802 70.0696Z" fill="url(#paint2_linear_117_604)"/>
<path d="M142.024 57.1652C144.804 58.7985 147.422 60.596 149.711 62.7193C150.856 63.8625 152.001 65.0056 152.982 66.1488C156.09 69.5788 156.58 73.6631 155.436 78.2365C154.291 81.8296 152.164 84.7695 149.711 87.3828C146.604 90.6496 143.168 93.263 139.406 95.5497C134.5 98.6529 129.43 100.939 124.033 103.063C116.51 106.003 108.659 108.127 100.645 109.76C93.7763 111.23 86.9066 112.21 79.8739 112.7C77.4208 110.904 74.8038 109.107 72.0237 106.821C75.6214 106.494 79.3826 106.166 82.9804 105.84C89.0316 105.35 95.0836 104.207 100.971 102.737C106.696 101.431 112.094 99.7962 117.491 97.6728C120.926 96.2028 124.361 94.733 127.632 93.0996C133.192 90.3231 138.425 87.0562 142.677 82.3199C145.13 79.7066 146.93 76.9291 147.911 73.499C149.22 68.4355 148.075 63.8624 144.64 59.9423C143.822 58.9623 142.842 58.1452 142.024 57.1652Z" fill="url(#paint3_linear_117_604)"/>
<path d="M67.6058 1.79286C70.8768 0.322846 74.1489 -0.492908 77.5835 0.323776C81.1813 0.977265 83.7986 2.9374 85.7611 6.04062C86.4151 7.02036 87.069 8.16335 87.5596 9.14309L87.3967 9.30738C86.906 8.65403 86.4147 8.16306 85.924 7.50971C82.9803 4.07996 79.3819 2.28305 74.8028 2.60956C72.0224 2.60956 69.4052 3.59054 67.1155 5.22393C61.5547 8.81737 57.6288 13.7175 54.1942 19.1077C51.0868 23.8444 48.6336 28.9084 46.3439 34.1351C43.8908 39.8517 41.9286 45.5684 40.4567 51.4484C39.3119 55.8582 38.3308 60.2683 37.5131 64.6781C36.3682 70.0682 35.8772 75.4591 35.5501 80.8493C35.223 85.9127 35.0594 91.1402 35.5501 96.2037C35.7136 97.8369 35.8769 99.4706 36.0404 101.104C33.5873 100.614 31.2976 100.124 29.008 99.4705C28.5173 92.6103 28.8441 85.5863 29.4983 78.7262C30.1525 72.5195 30.9701 66.3126 32.442 60.2693C33.4233 56.0225 34.5691 51.7744 35.8775 47.5276C37.513 42.1377 39.6391 36.911 42.0922 31.8478C45.0361 25.8043 48.3063 20.0867 52.5586 14.8599C54.5211 12.2467 56.8112 9.79726 59.1007 7.674C61.7176 5.22393 64.4983 3.26291 67.6058 1.79286Z" fill="url(#paint4_linear_117_604)"/>
<path d="M143.824 3.91754C125.506 28.5816 107.188 53.2463 89.1967 78.0738C86.2527 81.994 81.3467 88.8543 78.4029 92.7742L76.1125 96.6934C80.2011 76.603 66.954 62.3934 46.5101 65.0067C48.9632 63.7001 51.743 62.7187 54.5232 62.0653C64.0092 59.6153 74.9682 55.8588 86.5805 50.142C115.038 36.0949 133.357 16.9846 143.824 3.91754Z" fill="url(#paint5_linear_117_604)"/>
<path d="M22.1401 17.6386C25.084 14.8618 28.5193 13.5555 32.6081 13.8821C33.9165 14.0455 35.3885 14.0458 36.6969 14.2091V14.5345C35.8791 14.5345 35.0614 14.6988 34.2436 14.6988C29.1735 15.1888 25.0843 17.3119 22.4675 21.7221C20.832 24.3354 20.1777 27.4396 20.0142 30.543C19.6872 37.8929 21.6507 44.7533 24.2675 51.45C25.5759 54.7164 27.0468 57.8201 28.6822 60.9233C28.1915 63.3732 27.7018 65.9866 27.2111 68.7632C24.1038 62.7199 21.3235 56.6768 19.3609 50.1436C18.3796 46.5501 17.5612 42.9557 17.0706 39.3623C16.5799 35.4424 16.4164 31.5225 17.0706 27.7659C17.7247 23.8459 19.1963 20.4153 22.1401 17.6386Z" fill="url(#paint6_linear_117_604)"/>
<defs>
<linearGradient id="paint0_linear_117_604" x1="173.333" y1="-23.7385" x2="22.7305" y2="162.385" gradientUnits="userSpaceOnUse">
<stop stop-color="#565656"/>
<stop offset="0.509615" stop-color="#DFDFDF"/>
<stop offset="1" stop-color="#717171"/>
</linearGradient>
<linearGradient id="paint1_linear_117_604" x1="173.333" y1="-23.7385" x2="22.7305" y2="162.385" gradientUnits="userSpaceOnUse">
<stop stop-color="#565656"/>
<stop offset="0.509615" stop-color="#DFDFDF"/>
<stop offset="1" stop-color="#717171"/>
</linearGradient>
<linearGradient id="paint2_linear_117_604" x1="173.333" y1="-23.7385" x2="22.7305" y2="162.385" gradientUnits="userSpaceOnUse">
<stop stop-color="#565656"/>
<stop offset="0.509615" stop-color="#DFDFDF"/>
<stop offset="1" stop-color="#717171"/>
</linearGradient>
<linearGradient id="paint3_linear_117_604" x1="173.333" y1="-23.7385" x2="22.7305" y2="162.385" gradientUnits="userSpaceOnUse">
<stop stop-color="#565656"/>
<stop offset="0.509615" stop-color="#DFDFDF"/>
<stop offset="1" stop-color="#717171"/>
</linearGradient>
<linearGradient id="paint4_linear_117_604" x1="173.333" y1="-23.7385" x2="22.7305" y2="162.385" gradientUnits="userSpaceOnUse">
<stop stop-color="#565656"/>
<stop offset="0.509615" stop-color="#DFDFDF"/>
<stop offset="1" stop-color="#717171"/>
</linearGradient>
<linearGradient id="paint5_linear_117_604" x1="173.333" y1="-23.7385" x2="22.7305" y2="162.385" gradientUnits="userSpaceOnUse">
<stop stop-color="#565656"/>
<stop offset="0.509615" stop-color="#DFDFDF"/>
<stop offset="1" stop-color="#717171"/>
</linearGradient>
<linearGradient id="paint6_linear_117_604" x1="173.333" y1="-23.7385" x2="22.7305" y2="162.385" gradientUnits="userSpaceOnUse">
<stop stop-color="#565656"/>
<stop offset="0.509615" stop-color="#DFDFDF"/>
<stop offset="1" stop-color="#717171"/>
</linearGradient>
</defs>
</svg>
