<svg width="147" height="129" viewBox="0 0 147 129" fill="none" xmlns="http://www.w3.org/2000/svg">
<path d="M12.4967 70.4871C12.4379 70.604 12.3203 70.6916 12.2027 70.7208C12.0851 70.75 11.9381 70.75 11.8205 70.6624L0.29424 64.0606C0.0590114 63.9145 -0.0291994 63.6224 0.117819 63.3887L1.08814 61.7529C1.14695 61.6361 1.26456 61.5484 1.38217 61.5192C1.49979 61.49 1.64681 61.5192 1.76442 61.5776L13.2906 68.1794C13.4083 68.2378 13.4965 68.3547 13.5259 68.4715C13.5553 68.5884 13.5553 68.7344 13.4671 68.8513L12.4967 70.4871Z" fill="url(#paint0_linear_117_517)"/>
<path d="M15.5545 65.229C15.4957 65.3459 15.378 65.4335 15.2604 65.4627C15.1428 65.492 14.9958 65.492 14.8782 65.4043L3.35197 58.8025C3.11674 58.6857 3.02853 58.3936 3.14614 58.1307C3.14614 58.1307 3.14614 58.1015 3.17555 58.1015L3.96944 56.6993C4.02825 56.5533 4.17527 56.4656 4.32229 56.4072C4.4105 56.378 4.52811 56.378 4.61632 56.378L12.9375 56.6409L8.55641 49.5717C8.4976 49.4841 8.4682 49.3965 8.43879 49.3088C8.40939 49.1628 8.43879 48.9875 8.527 48.8707L9.3209 47.4977C9.37971 47.3809 9.49732 47.2932 9.61494 47.264C9.76196 47.2348 9.87957 47.264 9.99718 47.3225L21.494 53.9242C21.6116 53.9827 21.6998 54.0995 21.7292 54.2163C21.7586 54.3624 21.7292 54.4792 21.6704 54.5961L20.8177 56.0567C20.7589 56.1735 20.6413 56.2611 20.5237 56.2904C20.4061 56.3196 20.2591 56.2904 20.1414 56.2319L12.4965 51.8502L15.7897 57.0206C15.8485 57.1375 15.9073 57.2835 15.9367 57.4004C15.9661 57.5464 15.9073 57.6925 15.8485 57.8386L15.4369 58.5688C15.378 58.7149 15.2604 58.8318 15.1134 58.8902C14.9958 58.9486 14.8488 58.9486 14.7018 58.9486L8.55641 58.6857L16.2013 63.0674C16.4366 63.2135 16.5248 63.5056 16.3778 63.7393L15.5545 65.229Z" fill="url(#paint1_linear_117_517)"/>
<path d="M23.8463 50.974C23.7875 51.0908 23.6699 51.1784 23.5523 51.2076C23.4347 51.2369 23.2877 51.2369 23.1701 51.1492L11.6438 44.5475C11.5262 44.489 11.438 44.3722 11.4086 44.2553C11.3792 44.1385 11.3792 43.9924 11.4674 43.8756L14.202 39.1726C14.6724 38.3254 15.2899 37.5951 16.025 37.0109C16.6719 36.5143 17.4364 36.2222 18.2597 36.193C19.1418 36.1638 20.0239 36.4267 20.759 36.8941C21.5529 37.303 22.1997 37.9457 22.6114 38.7052C22.9642 39.4355 23.0819 40.2242 22.9642 41.0129C22.8172 41.9476 22.4938 42.824 21.9939 43.6419L20.4649 46.2709L24.6108 48.637C24.7285 48.6955 24.8167 48.8123 24.8461 48.9292C24.8755 49.046 24.8755 49.1921 24.7873 49.3089L23.8463 50.974ZM18.4949 45.1901L19.9945 42.6195C20.3473 42.0937 20.5237 41.4218 20.4061 40.7792C20.2591 40.1657 19.8475 39.6691 19.2888 39.4062C18.7889 39.0849 18.1715 38.9681 17.5834 39.0849C17.0247 39.231 16.5248 39.6399 16.1132 40.3702L14.6136 42.9408L18.4949 45.1901Z" fill="url(#paint2_linear_117_517)"/>
<path d="M33.2261 35.1998C32.7262 36.1345 31.9911 36.9525 31.1384 37.5951C30.3739 38.1501 29.4624 38.4422 28.5215 38.4422C27.4335 38.413 26.3456 38.1209 25.4047 37.5659C24.9048 37.2738 24.3756 37.0109 23.9051 36.7188C23.4347 36.4267 22.9054 36.1345 22.4055 35.8424C21.4646 35.2874 20.6707 34.5279 20.112 33.5932C19.6416 32.7752 19.4358 31.8113 19.524 30.8765C19.7592 28.7733 20.8765 26.8453 22.6113 25.56C23.4052 25.005 24.3168 24.7129 25.2871 24.7129C26.375 24.7129 27.4629 25.005 28.4039 25.56C28.9331 25.8229 29.4624 26.115 29.9328 26.4071C30.4327 26.6993 30.9032 26.9914 31.403 27.3127C32.3439 27.8677 33.1378 28.6272 33.7259 29.562C34.1964 30.3799 34.4022 31.3147 34.314 32.2494C34.167 33.2718 33.8141 34.2942 33.2261 35.1998ZM31.1972 34.0313C31.6383 33.3595 31.7559 32.5415 31.6089 31.782C31.4324 31.0518 30.8444 30.3507 29.8446 29.7372C29.3448 29.4159 28.8743 29.1238 28.4333 28.8609C27.9922 28.598 27.5218 28.3351 26.9925 28.0722C26.4044 27.7509 25.7575 27.5464 25.1107 27.488C24.5814 27.4588 24.0815 27.6048 23.6405 27.8677C23.1994 28.1598 22.8466 28.5688 22.5819 29.0362C22.3173 29.4743 22.1409 30.0002 22.1115 30.526C22.0821 31.0518 22.2291 31.5484 22.5231 31.9865C22.9054 32.5415 23.4052 32.9797 23.9639 33.3302C24.4638 33.6224 24.9342 33.9145 25.3753 34.1482C25.8163 34.4111 26.3162 34.674 26.8161 34.9661C27.8746 35.5211 28.7567 35.6964 29.4918 35.4627C30.1975 35.2582 30.8444 34.7324 31.1972 34.0313Z" fill="url(#paint3_linear_117_517)"/>
<path d="M37.666 27.1958C37.519 27.4295 37.225 27.5171 36.9898 27.3711L25.4635 20.7693C25.3459 20.7109 25.2577 20.594 25.2283 20.448C25.1989 20.3311 25.1989 20.1851 25.2871 20.0682L27.9335 15.5112C28.7568 14.1091 29.7271 13.1743 30.8738 12.7362C32.0206 12.298 33.1967 12.444 34.4611 13.1743C35.255 13.5833 35.9018 14.2551 36.2547 15.0731C36.5781 15.8326 36.6663 16.6797 36.5193 17.4976L42.5176 17.5268C42.6059 17.5268 42.6647 17.556 42.7529 17.5852C42.8411 17.6437 42.9293 17.7313 42.9587 17.8482C42.9881 17.965 42.9587 18.0818 42.9293 18.1695L41.9884 19.7761C41.9002 19.9514 41.7532 20.0682 41.5767 20.1559C41.4297 20.2143 41.2827 20.2143 41.1063 20.2143L35.5784 20.0682L34.167 22.522L38.4011 24.9465C38.5188 25.0049 38.607 25.1218 38.6364 25.2386C38.6658 25.3555 38.6658 25.5015 38.5776 25.6184L37.666 27.1958ZM32.1676 21.3535L33.6084 18.8706C34.02 18.1695 34.167 17.5268 34.0494 17.001C33.9024 16.446 33.5201 15.9494 32.9909 15.6865C32.491 15.3652 31.8735 15.2483 31.3149 15.3944C30.7856 15.5405 30.2857 15.9786 29.8741 16.7089L28.4333 19.1919L32.1676 21.3535Z" fill="url(#paint4_linear_117_517)"/>
<path d="M46.1049 12.6778C46.0461 12.7947 45.9285 12.8823 45.8109 12.9115C45.6932 12.9407 45.5462 12.9407 45.4286 12.8531L35.6372 7.24449L33.7554 10.487C33.6966 10.6038 33.5789 10.6914 33.4613 10.7206C33.3437 10.7499 33.1967 10.7499 33.0791 10.6622L31.7853 9.90273C31.6677 9.84431 31.5795 9.72746 31.5501 9.61062C31.5207 9.49377 31.5207 9.34771 31.6089 9.23087L36.7839 0.292178C36.8428 0.175332 36.9604 0.0876977 37.078 0.0584863C37.225 0.0292749 37.3426 0.0584863 37.4602 0.116909L38.754 0.876406C38.8716 0.934828 38.9598 1.05167 38.9892 1.16852C39.0186 1.31458 39.0186 1.43142 38.9304 1.54827L37.0486 4.79073L46.8106 10.3993C46.9282 10.4577 47.0164 10.5746 47.0458 10.6914C47.0752 10.8375 47.0458 10.9543 46.987 11.0712L46.1049 12.6778Z" fill="url(#paint5_linear_117_517)"/>
<path d="M102.354 14.1968L98.8846 8.23768L102.148 6.36815L105.324 11.8015C105.383 11.9183 105.5 12.0059 105.618 12.0644C105.736 12.0936 105.883 12.0936 106 12.0059L107.118 11.3633C107.235 11.3049 107.323 11.188 107.353 11.0712C107.382 10.9251 107.353 10.8083 107.294 10.6914L104.089 5.2289L107.235 3.4178L110.617 9.26008C110.675 9.37692 110.793 9.46456 110.911 9.49377C111.028 9.52298 111.175 9.52298 111.293 9.43534L112.469 8.76348C112.587 8.70506 112.704 8.58821 112.734 8.44216C112.763 8.2961 112.734 8.17925 112.675 8.06241L108.147 0.262964C108.088 0.146118 107.97 0.0584843 107.853 0.0292729C107.706 6.14622e-05 107.588 0.0292729 107.47 0.0876957L95.856 6.7479C95.6208 6.89395 95.5326 7.18607 95.6796 7.41976L100.296 15.3653C100.355 15.4821 100.472 15.5697 100.619 15.599C100.737 15.6282 100.884 15.6282 101.002 15.5405L102.178 14.8687C102.413 14.7518 102.501 14.4305 102.384 14.1968C102.354 14.226 102.354 14.1968 102.354 14.1968Z" fill="url(#paint6_linear_117_517)"/>
<path d="M108.206 27.6925L111.675 20.3896L119.349 20.9154C119.438 20.9154 119.526 20.9154 119.614 20.857C119.702 20.7986 119.791 20.711 119.82 20.5941C119.849 20.4773 119.82 20.3604 119.761 20.2728L118.761 18.5493C118.703 18.4325 118.585 18.3156 118.467 18.2572C118.35 18.1988 118.232 18.1988 118.115 18.1988L112.734 17.7898L115.086 12.9699C115.145 12.8531 115.174 12.7362 115.204 12.6194C115.233 12.4733 115.204 12.3273 115.115 12.2104L114.057 10.3701C113.998 10.2825 113.91 10.2241 113.792 10.1948C113.675 10.1656 113.557 10.1948 113.469 10.2533C113.381 10.3117 113.322 10.3701 113.292 10.4285L109.911 17.3224L101.825 16.6798L101.707 16.709C101.678 16.709 101.619 16.7382 101.59 16.7674C101.384 16.8843 101.325 17.1472 101.413 17.3516L102.442 19.1335C102.501 19.2796 102.619 19.3672 102.766 19.4256C102.883 19.4549 102.972 19.4841 103.089 19.5133L108.735 19.9807L106.382 25.1219C106.324 25.2095 106.294 25.3264 106.265 25.4432C106.235 25.5893 106.265 25.7353 106.353 25.8522L107.47 27.7217C107.529 27.8093 107.617 27.897 107.735 27.9262C107.853 27.9554 107.97 27.9554 108.059 27.897C108.088 27.8677 108.117 27.8385 108.147 27.8093C108.176 27.7509 108.206 27.7217 108.206 27.6925Z" fill="url(#paint7_linear_117_517)"/>
<path d="M125.113 30.4382C124.966 29.5035 124.642 28.5979 124.142 27.78L121.378 23.0185C121.319 22.9017 121.202 22.8141 121.084 22.7849C120.937 22.7556 120.82 22.7849 120.702 22.8433L109.088 29.5035C108.97 29.5619 108.882 29.6787 108.852 29.7956C108.823 29.9124 108.823 30.0585 108.911 30.1753L109.881 31.8696C109.94 31.9864 110.058 32.0741 110.175 32.1033C110.293 32.1325 110.44 32.1033 110.558 32.0449L114.733 29.6495L116.262 32.2786C116.733 33.1257 117.35 33.856 118.085 34.4402C118.732 34.9368 119.496 35.2289 120.29 35.2873C121.172 35.3165 122.055 35.0536 122.819 34.5863C123.613 34.1773 124.26 33.5346 124.701 32.7459C125.083 32.0449 125.23 31.227 125.113 30.4382ZM119.585 32.3662C118.967 32.1325 118.467 31.6651 118.173 31.0809L116.674 28.4811L120.614 26.2318L122.113 28.8024C122.554 29.5327 122.672 30.1753 122.496 30.7304C122.319 31.3146 121.908 31.782 121.349 32.0741C120.849 32.4246 120.202 32.5123 119.585 32.3662Z" fill="url(#paint8_linear_117_517)"/>
<path d="M131.287 44.6934C131.758 43.8463 131.963 42.9115 131.875 41.9475C131.758 40.8959 131.434 39.8735 130.875 38.9388C130.376 38.004 129.641 37.2153 128.788 36.6019C127.994 36.0468 127.053 35.7547 126.112 35.7547C125.024 35.7547 123.936 36.0468 122.995 36.6019C122.466 36.894 121.966 37.1861 121.437 37.449C120.908 37.7119 120.437 38.0332 119.937 38.3253C118.967 38.8803 118.173 39.6398 117.585 40.5746C117.115 41.3925 116.909 42.3273 116.997 43.2913C117.32 45.4237 118.438 47.3809 120.143 48.6954C120.908 49.2504 121.849 49.5425 122.789 49.5425C123.907 49.5133 124.965 49.2212 125.936 48.6662C126.465 48.4033 126.965 48.1111 127.465 47.819C127.965 47.5269 128.464 47.2348 128.964 46.9135C129.935 46.3877 130.728 45.6282 131.287 44.6934ZM124.554 46.0956C123.495 46.6506 122.613 46.8258 121.878 46.5922C121.113 46.3585 120.467 45.8034 120.114 45.1024C119.702 44.4305 119.555 43.6126 119.732 42.8531C119.908 42.0936 120.496 41.4217 121.525 40.7791C122.054 40.4578 122.525 40.1949 122.966 39.9319C123.407 39.669 123.907 39.4061 124.407 39.114C124.995 38.7927 125.642 38.5882 126.318 38.5298C126.847 38.5006 127.376 38.6467 127.818 38.9096C128.7 39.523 129.258 40.5162 129.376 41.597C129.405 42.1228 129.258 42.6194 128.964 43.0576C128.582 43.6126 128.082 44.08 127.494 44.4013C126.994 44.7226 126.524 45.0147 126.083 45.2484C125.642 45.4821 125.083 45.8327 124.554 46.0956Z" fill="url(#paint9_linear_117_517)"/>
<path d="M131.934 58.0722C132.581 58.6272 133.375 58.9778 134.198 59.0654C135.109 59.153 135.992 58.9193 136.756 58.452C138.02 57.7217 138.755 56.7577 138.932 55.56C139.108 54.3624 138.785 53.0186 137.962 51.5873L135.286 47.0011C135.227 46.8842 135.109 46.7966 134.992 46.7674C134.845 46.7382 134.727 46.7674 134.61 46.8258L122.995 53.486C122.878 53.5445 122.789 53.6613 122.76 53.7781C122.731 53.895 122.731 54.041 122.819 54.1579L123.76 55.7645C123.818 55.8814 123.936 55.969 124.054 55.9982C124.171 56.0274 124.318 55.9982 124.436 55.9398L128.729 53.486L130.17 55.9398L127.259 60.6428C127.17 60.7889 127.112 60.9349 127.082 61.081C127.053 61.2855 127.082 61.4607 127.2 61.636L128.141 63.2426C128.2 63.3303 128.288 63.4179 128.405 63.4471C128.523 63.4763 128.641 63.4763 128.729 63.4179C128.788 63.3887 128.846 63.3303 128.905 63.2426L131.934 58.0722ZM133.639 56.2027C133.11 56.0274 132.64 55.5892 132.198 54.859L130.758 52.3468L134.521 50.1851L135.962 52.6973C136.403 53.4276 136.521 54.0703 136.403 54.6253C136.227 55.2095 135.845 55.6769 135.315 55.9398C134.815 56.2611 134.198 56.3487 133.639 56.2027Z" fill="url(#paint10_linear_117_517)"/>
<path d="M146.988 67.4199C147.018 67.2739 146.988 67.157 146.93 67.0402L141.666 58.0139C141.608 57.897 141.49 57.8094 141.372 57.7802C141.225 57.751 141.108 57.7802 140.99 57.8386L139.667 58.5981C139.432 58.7441 139.344 59.0363 139.491 59.2699L141.402 62.5416L131.552 68.2086C131.316 68.3547 131.228 68.6468 131.375 68.8805L132.316 70.5163C132.375 70.6332 132.492 70.7208 132.61 70.7792C132.728 70.8085 132.875 70.8085 132.992 70.7208L142.843 65.0538L144.754 68.3255C144.813 68.4423 144.93 68.53 145.048 68.5884C145.165 68.6176 145.312 68.6176 145.43 68.53L146.753 67.7705C146.871 67.6536 146.959 67.5368 146.988 67.4199Z" fill="url(#paint11_linear_117_517)"/>
<path d="M9.43856 113.749C9.37976 113.603 9.29154 113.457 9.17393 113.369C9.02691 113.253 8.85049 113.194 8.64466 113.194H6.20416C6.02774 113.194 5.82192 113.253 5.6749 113.369C5.55728 113.457 5.46907 113.603 5.41027 113.749L0.0588072 128.092C0.0294036 128.15 0.0294036 128.238 0 128.297C0 128.413 0.0588072 128.559 0.147018 128.618C0.235229 128.705 0.352843 128.735 0.470458 128.764H2.4111C2.58752 128.793 2.73454 128.735 2.88156 128.618C2.96977 128.53 3.02857 128.443 3.05798 128.326L4.11651 125.609H10.7617L11.8203 128.326C11.8497 128.443 11.9379 128.53 11.9967 128.618C12.1143 128.735 12.2907 128.764 12.4671 128.764H14.4078C14.5254 128.764 14.643 128.705 14.7312 128.618C14.8194 128.53 14.8782 128.413 14.8782 128.297C14.8782 128.238 14.8782 128.15 14.8488 128.092L9.43856 113.749ZM4.91041 123.068L7.43912 116.203L9.99723 123.068H4.91041Z" fill="url(#paint12_linear_117_517)"/>
<path d="M26.3752 120.76C25.3754 120.322 24.3463 120 23.2584 119.796C22.5233 119.621 21.8176 119.387 21.1119 119.124C20.6709 118.978 20.2592 118.744 19.9358 118.394C19.3477 117.693 19.4653 116.641 20.2004 116.057C20.2298 116.028 20.2886 115.998 20.318 115.969C20.9061 115.648 21.5824 115.502 22.2587 115.531C22.9349 115.502 23.5818 115.677 24.1699 116.028C24.6109 116.291 24.9344 116.7 25.052 117.196C25.1108 117.342 25.199 117.459 25.346 117.517C25.4637 117.576 25.5813 117.605 25.6989 117.605H27.7865C27.9042 117.605 28.0512 117.547 28.1394 117.459C28.2276 117.371 28.257 117.255 28.257 117.138C28.2276 116.641 28.0806 116.145 27.8453 115.736C27.5513 115.21 27.1691 114.772 26.728 114.392C26.1693 113.924 25.5519 113.603 24.8756 113.369C24.0523 113.107 23.1702 112.96 22.2881 112.99C21.2295 112.96 20.1416 113.165 19.1713 113.574C18.3774 113.895 17.6717 114.45 17.1718 115.151C16.7014 115.823 16.4661 116.612 16.4661 117.43C16.4367 118.189 16.6426 118.978 17.0248 119.621C17.4365 120.234 18.0245 120.731 18.7008 121.052C19.6123 121.49 20.5532 121.812 21.5236 122.045C22.3175 122.221 23.1114 122.454 23.8759 122.717C24.3463 122.863 24.7874 123.097 25.1696 123.418C25.4637 123.681 25.6107 124.061 25.5813 124.441C25.5813 125.025 25.2872 125.58 24.7874 125.872C24.2581 126.222 23.4642 126.398 22.3763 126.398C21.8176 126.427 21.2589 126.31 20.7003 126.135C20.318 125.989 19.9652 125.755 19.6711 125.463C19.4359 125.229 19.2595 124.937 19.1419 124.616C19.0831 124.499 18.9949 124.411 18.8772 124.324C18.7596 124.236 18.5832 124.178 18.4362 124.207H16.4661C16.2015 124.207 15.9957 124.411 15.9957 124.645C15.9957 124.645 15.9957 124.645 15.9957 124.674C16.0251 125.434 16.2897 126.164 16.7602 126.748C17.3188 127.449 18.0539 128.004 18.8772 128.355C19.9946 128.793 21.1707 128.998 22.3469 128.968C23.4936 128.998 24.6109 128.793 25.6695 128.413C26.5516 128.092 27.3161 127.537 27.9042 126.836C28.4334 126.106 28.7275 125.229 28.698 124.353C28.7275 123.593 28.5216 122.834 28.1394 122.191C27.6983 121.549 27.1103 121.052 26.3752 120.76Z" fill="url(#paint13_linear_117_517)"/>
<path d="M40.7533 120.76C39.7536 120.322 38.7245 120 37.6365 119.796C36.9014 119.621 36.1957 119.387 35.4901 119.124C35.049 118.978 34.6374 118.744 34.3139 118.394C34.0493 118.102 33.9317 117.751 33.9317 117.371C33.9023 116.816 34.1963 116.291 34.6668 115.998C35.2548 115.677 35.9311 115.531 36.6074 115.56C37.2837 115.531 37.9306 115.706 38.5186 116.057C38.9597 116.32 39.2831 116.729 39.4007 117.225C39.4595 117.371 39.5478 117.488 39.6948 117.547C39.8124 117.605 39.93 117.634 40.0476 117.634H42.1353C42.2529 117.634 42.3999 117.576 42.4881 117.488C42.5763 117.401 42.6057 117.284 42.6057 117.167C42.5763 116.67 42.4293 116.174 42.1941 115.765C41.9 115.239 41.5178 114.801 41.0767 114.421C40.5181 113.954 39.9006 113.632 39.2243 113.399C38.401 113.136 37.5189 112.99 36.6368 113.019C35.5783 112.99 34.4903 113.194 33.52 113.603C32.7261 113.924 32.0204 114.479 31.5206 115.181C31.0501 115.852 30.8149 116.641 30.8149 117.459C30.7855 118.219 30.9913 119.007 31.3736 119.65C31.8146 120.263 32.4027 120.76 33.079 121.081C33.9611 121.519 34.9314 121.841 35.9017 122.045C36.6956 122.221 37.4601 122.454 38.2246 122.717C38.6951 122.863 39.1361 123.097 39.5183 123.418C39.8124 123.681 39.9594 124.061 39.93 124.441C39.93 125.025 39.636 125.58 39.1361 125.872C38.6068 126.222 37.8129 126.398 36.725 126.398C36.1663 126.427 35.6077 126.31 35.049 126.135C34.6668 125.989 34.3139 125.755 34.0199 125.463C33.7846 125.229 33.6082 124.937 33.4906 124.616C33.4318 124.499 33.3436 124.411 33.226 124.324C33.1084 124.236 32.9319 124.178 32.7849 124.207H30.7855C30.5208 124.207 30.315 124.382 30.315 124.645V124.674C30.3444 125.434 30.6091 126.164 31.0795 126.748C31.6382 127.449 32.3733 128.004 33.1966 128.355C34.3139 128.793 35.4901 128.998 36.6662 128.968C37.8129 128.998 38.9303 128.793 39.9888 128.413C40.8709 128.092 41.6354 127.537 42.2235 126.836C42.7528 126.106 43.0468 125.229 43.0174 124.353C43.0468 123.593 42.841 122.834 42.4587 122.191C42.0765 121.549 41.459 121.052 40.7533 120.76Z" fill="url(#paint14_linear_117_517)"/>
<path d="M57.3078 115.706C56.7785 114.801 55.9846 114.1 55.0143 113.662C52.8678 112.727 50.4273 112.727 48.2809 113.662C47.3399 114.1 46.5461 114.83 46.0168 115.706C45.4287 116.729 45.1347 117.897 45.1347 119.095C45.1347 119.738 45.1053 120.38 45.1053 120.994C45.1053 121.607 45.1053 122.25 45.1347 122.892C45.1347 124.09 45.4287 125.259 46.0168 126.31C46.5167 127.186 47.3105 127.917 48.2515 128.326C50.4567 129.202 52.8972 129.202 55.1025 128.326C56.0434 127.917 56.8373 127.186 57.3372 126.31C57.9253 125.259 58.2193 124.09 58.2193 122.892C58.2487 122.25 58.2487 121.636 58.2487 120.994C58.2487 120.38 58.2193 119.738 58.2193 119.095C58.2193 117.897 57.9253 116.729 57.3078 115.706ZM55.0143 122.776C54.9849 124.061 54.632 124.996 54.044 125.551C52.6914 126.69 50.692 126.69 49.31 125.551C48.6925 124.966 48.3691 124.061 48.3103 122.776C48.3103 122.133 48.2809 121.519 48.2809 120.964C48.2809 120.409 48.2809 119.825 48.3103 119.183C48.3103 118.452 48.4867 117.751 48.7807 117.079C49.0454 116.583 49.457 116.174 49.9569 115.911C50.4861 115.648 51.0448 115.531 51.6329 115.531C52.221 115.502 52.809 115.648 53.3383 115.882C53.8381 116.145 54.2498 116.554 54.5144 117.05C54.8379 117.693 54.9849 118.423 54.9849 119.153C55.0143 119.796 55.0437 120.38 55.0437 120.935C55.0731 121.519 55.0437 122.133 55.0143 122.776Z" fill="url(#paint15_linear_117_517)"/>
<path d="M64.8058 116.378C65.4527 115.794 66.3348 115.502 67.1875 115.531C67.952 115.502 68.6871 115.677 69.3634 116.057C69.9514 116.407 70.3631 117.079 70.5983 118.073C70.6277 118.219 70.7159 118.365 70.8336 118.481C70.9512 118.569 71.0982 118.598 71.2452 118.598H73.3917C73.5093 118.598 73.6563 118.54 73.7445 118.452C73.8327 118.365 73.8915 118.248 73.8621 118.131C73.8621 117.43 73.6857 116.729 73.3623 116.115C73.0388 115.473 72.5978 114.918 72.0391 114.479C71.4216 113.983 70.7159 113.603 69.9809 113.369C69.0987 113.077 68.1872 112.961 67.2463 112.961C66.0408 112.931 64.8352 113.165 63.7473 113.691C62.8064 114.158 62.0419 114.859 61.542 115.765C61.0127 116.758 60.7187 117.868 60.6893 118.978C60.6893 119.621 60.6599 120.293 60.6599 120.994C60.6599 121.695 60.6599 122.337 60.6893 122.951C60.7187 124.09 61.0127 125.2 61.542 126.193C62.0419 127.099 62.8064 127.8 63.7473 128.267C64.8646 128.793 66.0702 129.027 67.2757 128.998C68.1872 128.998 69.1282 128.881 70.0103 128.589C70.7453 128.355 71.451 127.975 72.0685 127.479C72.6272 127.04 73.0682 126.485 73.3917 125.843C73.7151 125.2 73.8621 124.528 73.8915 123.827C73.9209 123.71 73.8621 123.564 73.7739 123.506C73.6857 123.418 73.5681 123.36 73.4211 123.36H71.304C71.157 123.36 71.01 123.389 70.8924 123.477C70.7747 123.593 70.6865 123.74 70.6571 123.915C70.4219 124.879 70.0103 125.551 69.4222 125.901C68.7459 126.281 67.9814 126.485 67.2169 126.456C66.3348 126.515 65.4821 126.193 64.8352 125.609C64.2471 125.054 63.9237 124.148 63.8649 122.863C63.8061 121.578 63.8061 120.351 63.8649 119.124C63.8943 117.839 64.2177 116.933 64.8058 116.378Z" fill="url(#paint16_linear_117_517)"/>
<path d="M79.1249 113.194H77.0373C76.7432 113.194 76.508 113.428 76.508 113.72V128.209C76.508 128.355 76.5668 128.501 76.655 128.589C76.7432 128.676 76.8902 128.735 77.0373 128.735H79.1249C79.2719 128.735 79.4189 128.676 79.5072 128.589C79.5954 128.501 79.6542 128.355 79.6542 128.209V113.72C79.6542 113.574 79.5954 113.457 79.5072 113.34C79.4189 113.253 79.2719 113.194 79.1249 113.194Z" fill="url(#paint17_linear_117_517)"/>
<path d="M91.1806 113.749C91.1218 113.603 91.0336 113.457 90.916 113.369C90.769 113.253 90.5926 113.194 90.3867 113.194H87.9462C87.7698 113.194 87.564 113.253 87.417 113.369C87.2994 113.486 87.2111 113.603 87.1523 113.749L81.7715 128.092C81.7421 128.15 81.7421 128.238 81.7421 128.297C81.7421 128.413 81.8009 128.53 81.8891 128.618C81.9773 128.705 82.0949 128.735 82.2125 128.764H84.1532C84.3296 128.793 84.4766 128.735 84.6236 128.618C84.7118 128.53 84.7706 128.443 84.8 128.326L85.8586 125.609H92.5038L93.5623 128.326C93.5917 128.443 93.6799 128.53 93.7387 128.618C93.8564 128.735 94.0328 128.764 94.2092 128.764H96.1498C96.2675 128.764 96.3851 128.705 96.4733 128.618C96.5615 128.53 96.6203 128.413 96.6203 128.297C96.6203 128.238 96.6203 128.15 96.5909 128.092L91.1806 113.749ZM86.6231 123.068L89.1518 116.203L91.7099 123.068H86.6231Z" fill="url(#paint18_linear_117_517)"/>
<path d="M97.973 113.194C97.826 113.194 97.6789 113.253 97.5907 113.34C97.4731 113.457 97.4437 113.603 97.4437 113.749V115.385C97.4437 115.677 97.679 115.911 97.973 115.911H102.119V128.209C102.119 128.501 102.354 128.735 102.648 128.735H104.706C104.853 128.735 105 128.676 105.118 128.589C105.206 128.501 105.265 128.355 105.265 128.209V115.911H109.382C109.529 115.911 109.676 115.852 109.793 115.765C109.881 115.677 109.94 115.531 109.94 115.385V113.749C109.94 113.457 109.734 113.194 109.411 113.194H97.973Z" fill="url(#paint19_linear_117_517)"/>
<path d="M114.821 113.194H112.733C112.439 113.194 112.204 113.428 112.204 113.72V128.209C112.204 128.501 112.439 128.735 112.733 128.735H114.821C114.968 128.735 115.115 128.676 115.203 128.589C115.291 128.501 115.35 128.355 115.35 128.209V113.72C115.35 113.574 115.291 113.457 115.203 113.34C115.115 113.253 114.968 113.194 114.821 113.194Z" fill="url(#paint20_linear_117_517)"/>
<path d="M130.552 115.706C130.023 114.83 129.229 114.1 128.259 113.662C127.2 113.194 126.053 112.961 124.877 112.961C123.73 112.931 122.554 113.165 121.525 113.662C120.584 114.1 119.79 114.83 119.261 115.706C118.673 116.729 118.379 117.897 118.379 119.095C118.35 119.738 118.35 120.38 118.35 120.994C118.35 121.607 118.35 122.25 118.379 122.892C118.379 124.09 118.673 125.259 119.261 126.31C119.761 127.186 120.555 127.917 121.496 128.326C122.584 128.793 123.73 128.998 124.907 128.968C126.083 128.998 127.259 128.764 128.347 128.326C129.288 127.917 130.082 127.186 130.581 126.31C131.17 125.259 131.464 124.09 131.464 122.892C131.493 122.25 131.493 121.636 131.493 120.994C131.493 120.38 131.493 119.738 131.464 119.095C131.464 117.897 131.14 116.729 130.552 115.706ZM128.259 122.776C128.2 124.061 127.876 124.996 127.288 125.551C126.641 126.135 125.789 126.427 124.907 126.398C124.054 126.427 123.201 126.135 122.554 125.551C121.937 124.966 121.613 124.061 121.555 122.776C121.555 122.133 121.525 121.519 121.525 120.964C121.525 120.409 121.525 119.825 121.555 119.183C121.555 118.452 121.731 117.751 122.025 117.079C122.29 116.583 122.701 116.174 123.201 115.911C123.73 115.648 124.289 115.531 124.877 115.531C125.465 115.531 126.053 115.648 126.553 115.882C127.053 116.145 127.465 116.554 127.729 117.05C128.053 117.693 128.2 118.423 128.2 119.153C128.229 119.796 128.229 120.38 128.229 120.935C128.288 121.519 128.288 122.133 128.259 122.776Z" fill="url(#paint21_linear_117_517)"/>
<path d="M146.577 113.37C146.459 113.253 146.312 113.194 146.165 113.223H144.283C144.136 113.223 143.989 113.282 143.901 113.37C143.813 113.486 143.754 113.632 143.754 113.778V123.535L137.315 113.603C137.256 113.516 137.197 113.457 137.138 113.399C137.021 113.282 136.844 113.253 136.668 113.253H134.962C134.815 113.253 134.668 113.311 134.58 113.399C134.463 113.516 134.404 113.662 134.433 113.808V128.238C134.433 128.53 134.668 128.764 134.962 128.764H136.844C136.991 128.764 137.138 128.706 137.256 128.618C137.344 128.53 137.403 128.384 137.403 128.238V118.686L143.813 128.413C143.901 128.472 143.96 128.53 144.019 128.618C144.136 128.735 144.313 128.793 144.46 128.764H146.195C146.342 128.764 146.489 128.706 146.577 128.618C146.694 128.501 146.724 128.355 146.724 128.209V113.778C146.753 113.603 146.694 113.457 146.577 113.37Z" fill="url(#paint22_linear_117_517)"/>
<path d="M98.7961 70.5747H68.8632C67.9517 70.5747 67.1283 71.0421 66.6579 71.8308L60.0127 83.2817L120.849 83.2525L72.4798 0L65.864 11.3632C65.4229 12.1519 65.4229 13.1159 65.864 13.8754L98.7961 70.5747Z" fill="url(#paint23_linear_117_517)"/>
<path d="M123.231 87.5758C122.79 86.7871 121.937 86.3197 121.026 86.3197L55.0732 86.3489L70.0691 60.5553C70.5101 59.7666 70.5101 58.8318 70.0691 58.0431L63.4238 46.5922L33.0205 98.9098L129.817 98.8806L123.231 87.5758Z" fill="url(#paint24_linear_117_517)"/>
<path d="M78.3901 66.5435C78.8311 67.3322 79.6838 67.7996 80.5953 67.7996H93.9152L63.5706 15.5696L15.1429 98.8806H28.1687C29.0802 98.8806 29.9035 98.4132 30.3739 97.6245L63.4236 40.7499L78.3901 66.5435Z" fill="url(#paint25_linear_117_517)"/>
<defs>
<linearGradient id="paint0_linear_117_517" x1="163.333" y1="-22.1904" x2="22.792" y2="152.897" gradientUnits="userSpaceOnUse">
<stop stop-color="#565656"/>
<stop offset="0.509615" stop-color="#DFDFDF"/>
<stop offset="1" stop-color="#717171"/>
</linearGradient>
<linearGradient id="paint1_linear_117_517" x1="163.333" y1="-22.1904" x2="22.792" y2="152.897" gradientUnits="userSpaceOnUse">
<stop stop-color="#565656"/>
<stop offset="0.509615" stop-color="#DFDFDF"/>
<stop offset="1" stop-color="#717171"/>
</linearGradient>
<linearGradient id="paint2_linear_117_517" x1="163.333" y1="-22.1904" x2="22.792" y2="152.897" gradientUnits="userSpaceOnUse">
<stop stop-color="#565656"/>
<stop offset="0.509615" stop-color="#DFDFDF"/>
<stop offset="1" stop-color="#717171"/>
</linearGradient>
<linearGradient id="paint3_linear_117_517" x1="163.333" y1="-22.1904" x2="22.792" y2="152.897" gradientUnits="userSpaceOnUse">
<stop stop-color="#565656"/>
<stop offset="0.509615" stop-color="#DFDFDF"/>
<stop offset="1" stop-color="#717171"/>
</linearGradient>
<linearGradient id="paint4_linear_117_517" x1="163.333" y1="-22.1904" x2="22.792" y2="152.897" gradientUnits="userSpaceOnUse">
<stop stop-color="#565656"/>
<stop offset="0.509615" stop-color="#DFDFDF"/>
<stop offset="1" stop-color="#717171"/>
</linearGradient>
<linearGradient id="paint5_linear_117_517" x1="163.333" y1="-22.1904" x2="22.792" y2="152.897" gradientUnits="userSpaceOnUse">
<stop stop-color="#565656"/>
<stop offset="0.509615" stop-color="#DFDFDF"/>
<stop offset="1" stop-color="#717171"/>
</linearGradient>
<linearGradient id="paint6_linear_117_517" x1="163.333" y1="-22.1904" x2="22.792" y2="152.897" gradientUnits="userSpaceOnUse">
<stop stop-color="#565656"/>
<stop offset="0.509615" stop-color="#DFDFDF"/>
<stop offset="1" stop-color="#717171"/>
</linearGradient>
<linearGradient id="paint7_linear_117_517" x1="163.333" y1="-22.1904" x2="22.792" y2="152.897" gradientUnits="userSpaceOnUse">
<stop stop-color="#565656"/>
<stop offset="0.509615" stop-color="#DFDFDF"/>
<stop offset="1" stop-color="#717171"/>
</linearGradient>
<linearGradient id="paint8_linear_117_517" x1="163.333" y1="-22.1904" x2="22.792" y2="152.897" gradientUnits="userSpaceOnUse">
<stop stop-color="#565656"/>
<stop offset="0.509615" stop-color="#DFDFDF"/>
<stop offset="1" stop-color="#717171"/>
</linearGradient>
<linearGradient id="paint9_linear_117_517" x1="163.333" y1="-22.1904" x2="22.792" y2="152.897" gradientUnits="userSpaceOnUse">
<stop stop-color="#565656"/>
<stop offset="0.509615" stop-color="#DFDFDF"/>
<stop offset="1" stop-color="#717171"/>
</linearGradient>
<linearGradient id="paint10_linear_117_517" x1="163.333" y1="-22.1904" x2="22.792" y2="152.897" gradientUnits="userSpaceOnUse">
<stop stop-color="#565656"/>
<stop offset="0.509615" stop-color="#DFDFDF"/>
<stop offset="1" stop-color="#717171"/>
</linearGradient>
<linearGradient id="paint11_linear_117_517" x1="163.333" y1="-22.1904" x2="22.792" y2="152.897" gradientUnits="userSpaceOnUse">
<stop stop-color="#565656"/>
<stop offset="0.509615" stop-color="#DFDFDF"/>
<stop offset="1" stop-color="#717171"/>
</linearGradient>
<linearGradient id="paint12_linear_117_517" x1="163.333" y1="-22.1904" x2="22.792" y2="152.897" gradientUnits="userSpaceOnUse">
<stop stop-color="#565656"/>
<stop offset="0.509615" stop-color="#DFDFDF"/>
<stop offset="1" stop-color="#717171"/>
</linearGradient>
<linearGradient id="paint13_linear_117_517" x1="163.333" y1="-22.1904" x2="22.792" y2="152.897" gradientUnits="userSpaceOnUse">
<stop stop-color="#565656"/>
<stop offset="0.509615" stop-color="#DFDFDF"/>
<stop offset="1" stop-color="#717171"/>
</linearGradient>
<linearGradient id="paint14_linear_117_517" x1="163.333" y1="-22.1904" x2="22.792" y2="152.897" gradientUnits="userSpaceOnUse">
<stop stop-color="#565656"/>
<stop offset="0.509615" stop-color="#DFDFDF"/>
<stop offset="1" stop-color="#717171"/>
</linearGradient>
<linearGradient id="paint15_linear_117_517" x1="163.333" y1="-22.1904" x2="22.792" y2="152.897" gradientUnits="userSpaceOnUse">
<stop stop-color="#565656"/>
<stop offset="0.509615" stop-color="#DFDFDF"/>
<stop offset="1" stop-color="#717171"/>
</linearGradient>
<linearGradient id="paint16_linear_117_517" x1="163.333" y1="-22.1904" x2="22.792" y2="152.897" gradientUnits="userSpaceOnUse">
<stop stop-color="#565656"/>
<stop offset="0.509615" stop-color="#DFDFDF"/>
<stop offset="1" stop-color="#717171"/>
</linearGradient>
<linearGradient id="paint17_linear_117_517" x1="163.333" y1="-22.1904" x2="22.792" y2="152.897" gradientUnits="userSpaceOnUse">
<stop stop-color="#565656"/>
<stop offset="0.509615" stop-color="#DFDFDF"/>
<stop offset="1" stop-color="#717171"/>
</linearGradient>
<linearGradient id="paint18_linear_117_517" x1="163.333" y1="-22.1904" x2="22.792" y2="152.897" gradientUnits="userSpaceOnUse">
<stop stop-color="#565656"/>
<stop offset="0.509615" stop-color="#DFDFDF"/>
<stop offset="1" stop-color="#717171"/>
</linearGradient>
<linearGradient id="paint19_linear_117_517" x1="163.333" y1="-22.1904" x2="22.792" y2="152.897" gradientUnits="userSpaceOnUse">
<stop stop-color="#565656"/>
<stop offset="0.509615" stop-color="#DFDFDF"/>
<stop offset="1" stop-color="#717171"/>
</linearGradient>
<linearGradient id="paint20_linear_117_517" x1="163.333" y1="-22.1904" x2="22.792" y2="152.897" gradientUnits="userSpaceOnUse">
<stop stop-color="#565656"/>
<stop offset="0.509615" stop-color="#DFDFDF"/>
<stop offset="1" stop-color="#717171"/>
</linearGradient>
<linearGradient id="paint21_linear_117_517" x1="163.333" y1="-22.1904" x2="22.792" y2="152.897" gradientUnits="userSpaceOnUse">
<stop stop-color="#565656"/>
<stop offset="0.509615" stop-color="#DFDFDF"/>
<stop offset="1" stop-color="#717171"/>
</linearGradient>
<linearGradient id="paint22_linear_117_517" x1="163.333" y1="-22.1904" x2="22.792" y2="152.897" gradientUnits="userSpaceOnUse">
<stop stop-color="#565656"/>
<stop offset="0.509615" stop-color="#DFDFDF"/>
<stop offset="1" stop-color="#717171"/>
</linearGradient>
<linearGradient id="paint23_linear_117_517" x1="163.333" y1="-22.1904" x2="22.792" y2="152.897" gradientUnits="userSpaceOnUse">
<stop stop-color="#565656"/>
<stop offset="0.509615" stop-color="#DFDFDF"/>
<stop offset="1" stop-color="#717171"/>
</linearGradient>
<linearGradient id="paint24_linear_117_517" x1="163.333" y1="-22.1904" x2="22.792" y2="152.897" gradientUnits="userSpaceOnUse">
<stop stop-color="#565656"/>
<stop offset="0.509615" stop-color="#DFDFDF"/>
<stop offset="1" stop-color="#717171"/>
</linearGradient>
<linearGradient id="paint25_linear_117_517" x1="163.333" y1="-22.1904" x2="22.792" y2="152.897" gradientUnits="userSpaceOnUse">
<stop stop-color="#565656"/>
<stop offset="0.509615" stop-color="#DFDFDF"/>
<stop offset="1" stop-color="#717171"/>
</linearGradient>
</defs>
</svg>
