<svg width="123" height="129" viewBox="0 0 123 129" fill="none" xmlns="http://www.w3.org/2000/svg">
<path d="M123 28.1269H0C0 33.4965 4.35625 37.9713 9.86563 37.9713H11.0188V129C26.0094 129 38.1813 116.854 38.1813 101.896V76.3261C38.1813 63.669 48.175 52.9296 60.8594 52.5461C74.0562 52.1625 84.8187 62.774 84.8187 75.8147V101.768C84.8187 116.726 96.9906 128.872 111.981 128.872V37.9713H113.134C118.644 37.9713 123 33.4965 123 28.1269Z" fill="url(#paint0_linear_117_568)"/>
<path d="M111.469 14.0634H11.5312C11.5312 18.7939 15.375 22.6293 20.1156 22.6293H102.884C107.625 22.6293 111.469 18.7939 111.469 14.0634Z" fill="url(#paint1_linear_117_568)"/>
<path d="M93.6599 0H29.3411C29.3411 4.73043 33.1849 8.56591 37.9255 8.56591H85.0755C89.8161 8.56591 93.6599 4.73043 93.6599 0Z" fill="url(#paint2_linear_117_568)"/>
<path d="M61.5015 58.0429C51.3796 58.0429 43.1796 66.2252 43.1796 76.3253C43.1796 86.4254 51.3796 94.6078 61.5015 94.6078C71.6234 94.6078 79.8234 86.4254 79.8234 76.3253C79.8234 66.2252 71.6234 58.0429 61.5015 58.0429ZM70.8546 74.919L67.0109 77.7317C66.6265 77.9874 66.3702 78.6266 66.6265 79.138L68.164 83.7406C68.5484 84.8912 67.2671 85.7862 66.2421 85.1469L62.2702 82.3342C61.8859 82.0785 61.2452 82.0785 60.8609 82.3342L56.889 85.1469C55.9921 85.7862 54.7109 84.8912 54.9671 83.7406L56.5046 79.138C56.6327 78.6266 56.5046 78.1152 56.1202 77.7317L52.2765 74.919C51.3796 74.2797 51.764 72.7455 53.0452 72.7455H57.914C58.4265 72.7455 58.939 72.362 59.0671 71.8506L60.6046 67.248C60.989 66.0974 62.5265 66.0974 62.9109 67.248L64.4484 71.8506C64.5765 72.362 65.089 72.7455 65.6015 72.7455H70.4702C71.3671 72.7455 71.8796 74.2797 70.8546 74.919Z" fill="url(#paint3_linear_117_568)"/>
<defs>
<linearGradient id="paint0_linear_117_568" x1="136.667" y1="-22.1904" x2="-7.15864" y2="127.735" gradientUnits="userSpaceOnUse">
<stop stop-color="#565656"/>
<stop offset="0.509615" stop-color="#DFDFDF"/>
<stop offset="1" stop-color="#717171"/>
</linearGradient>
<linearGradient id="paint1_linear_117_568" x1="136.667" y1="-22.1904" x2="-7.15864" y2="127.735" gradientUnits="userSpaceOnUse">
<stop stop-color="#565656"/>
<stop offset="0.509615" stop-color="#DFDFDF"/>
<stop offset="1" stop-color="#717171"/>
</linearGradient>
<linearGradient id="paint2_linear_117_568" x1="136.667" y1="-22.1904" x2="-7.15864" y2="127.735" gradientUnits="userSpaceOnUse">
<stop stop-color="#565656"/>
<stop offset="0.509615" stop-color="#DFDFDF"/>
<stop offset="1" stop-color="#717171"/>
</linearGradient>
<linearGradient id="paint3_linear_117_568" x1="136.667" y1="-22.1904" x2="-7.15864" y2="127.735" gradientUnits="userSpaceOnUse">
<stop stop-color="#565656"/>
<stop offset="0.509615" stop-color="#DFDFDF"/>
<stop offset="1" stop-color="#717171"/>
</linearGradient>
</defs>
</svg>
