<svg width="137" height="137" viewBox="0 0 137 137" fill="none" xmlns="http://www.w3.org/2000/svg">
<path d="M132.922 45.4856C147.651 82.1122 28.9068 65.4127 45.74 133.123C36.5519 129.895 13.6166 118.669 4.00756 91.5845C-9.03822 54.8878 110.969 71.9381 91.1898 3.94751C100.378 7.10497 122.191 18.8226 132.922 45.4856ZM49.6678 134.315C66.7115 139.227 85.5788 137.543 102.202 128.071C123.874 115.792 136.64 92.9177 136.92 70.3243C136.92 70.3243 137.201 68.2193 136.71 63.1674C109.706 95.0928 38.5158 82.1122 49.6678 134.315ZM87.2621 2.68452C70.2184 -2.22708 51.3511 -0.5431 34.7283 8.92928C13.1256 21.2083 0.360357 44.0823 0.0798024 66.6757C0.0798024 66.6757 -0.200752 68.7807 0.290218 73.8326C27.2936 41.9072 98.4843 54.8878 87.2621 2.68452Z" fill="url(#paint0_linear_117_623)"/>
<defs>
<linearGradient id="paint0_linear_117_623" x1="152.222" y1="-23.5665" x2="-0.0485722" y2="142.905" gradientUnits="userSpaceOnUse">
<stop stop-color="#565656"/>
<stop offset="0.509615" stop-color="#DFDFDF"/>
<stop offset="1" stop-color="#717171"/>
</linearGradient>
</defs>
</svg>
