<svg width="66" height="58" viewBox="0 0 66 58" fill="none" xmlns="http://www.w3.org/2000/svg">
<path opacity="0.3" d="M0.0501504 44.2041C0.300903 43.5021 0.551655 42.8503 0.802407 42.1483C3.00903 34.8276 5.2658 27.5571 7.47241 20.2364C7.52256 20.086 7.57272 19.8854 7.67302 19.6848C10.7823 20.3868 13.8415 21.0888 17.001 21.7908C16.349 23.7965 15.7472 25.8021 15.0953 27.8579C15.7974 28.0084 16.4493 28.1588 17.2016 28.3594C18.3551 24.5486 19.5085 20.7378 20.662 16.9271C21.8154 13.1664 22.9689 9.35567 24.1224 5.49477C27.4824 6.04632 30.7924 6.54774 34.2026 7.0993C32.3972 13.0662 30.5918 19.033 28.7863 25.05C29.6389 25.2004 30.341 25.401 31.0933 25.5013C31.1936 25.5013 31.4443 25.2506 31.4945 25.1001C32.0963 23.1446 32.6479 21.139 33.2497 19.1834C35.0551 12.9659 36.9107 6.79845 38.7161 0.580885C38.8666 0.079469 39.017 -0.070956 39.5687 0.0293273C42.327 0.43046 45.1354 0.73131 47.8937 1.03216C50.351 1.33301 52.8084 1.63386 55.2658 1.93471C55.667 1.98485 55.8676 2.13528 56.018 2.48627C58.676 7.75114 61.2838 12.9659 63.9418 18.1806C64.5938 19.4341 65.2457 20.6877 65.8475 21.9412C65.998 22.2421 66.0481 22.6432 65.9478 22.9441C64.0922 29.5628 62.1865 36.1814 60.2808 42.8001C60.1805 43.2013 60.1805 43.5021 60.3811 43.8531C60.9829 44.856 61.4844 45.8588 62.0862 46.9619C61.6349 47.2126 61.2337 47.4132 60.8325 47.6137C53.9117 51.0234 46.991 54.433 40.1203 57.8426C39.7693 58.0432 39.4684 58.0432 39.0672 57.8928C26.2287 53.38 13.34 48.8673 0.501504 44.4047C0.351053 44.3545 0.150451 44.3044 0 44.3044C0.0501504 44.2543 0.0501504 44.2542 0.0501504 44.2041Z" fill="white"/>
</svg>
