<svg width="78" height="99" viewBox="0 0 78 99" fill="none" xmlns="http://www.w3.org/2000/svg">
<path d="M8.2982 49.6591C8.3323 49.7799 8.97077 49.7144 9.52588 50.1097C10.1776 50.5726 10.1776 51.0745 10.854 50.9086C11.6194 50.7201 10.9108 47.494 12.0475 45.6198C15.0334 40.6976 23.7124 37.6129 24.6464 36.9103C26.5163 35.5072 27.6304 34.313 28.284 32.3835C28.8846 30.6055 29.1934 27.5638 28.6743 24.1963C28.3977 22.402 29.2256 22.6335 29.6026 23.2131C29.9531 23.7539 32.2645 28.0656 31.6582 32.0189C30.7545 37.914 25.6695 38.7948 25.031 38.7558C21.3271 38.5326 14.3059 43.4998 12.777 46.2916C11.9869 47.7336 12.7902 50.8881 11.4129 51.6132C10.1776 52.2625 9.38758 51.5947 8.73584 50.8717C7.91929 49.9643 5.14943 51.9286 4.29119 52.1519C3.27949 52.4141 0.606261 52.6885 0.651731 52.5738C1.6047 50.1875 0 48.0634 0 47.8832C0 46.2138 0.771088 43.9238 1.49671 42.4551C2.4743 40.4764 6.25396 35.8206 7.14251 30.2655C8.14285 24.0038 10.4523 21.8264 11.123 20.9026C11.4091 20.5073 11.1855 19.9788 10.8521 19.5487C9.25306 17.4881 7.05536 17.4696 7.33008 16.4291C7.57069 15.5155 10.0658 16.1587 10.3595 15.7326C10.7839 15.112 5.76895 7.85888 6.37711 7.29149C7.10273 6.61349 12.4814 13.6843 13.0384 13.4426C13.5083 13.2398 13.1919 10.4992 13.8265 10.2861C14.969 9.90106 14.7227 13.0043 16.9602 14.4279C17.9719 15.0731 19.0101 13.6474 19.209 12.9346C19.4591 12.0375 19.7073 9.47296 19.9384 8.40783C20.2813 6.83267 20.9823 5.41522 22.0186 4.25792C23.1289 3.01868 26.7172 -0.750238 27.098 0.13259C27.2931 0.583222 26.2454 1.0953 25.9821 2.48612C25.7187 3.87693 25.9328 5.96213 25.4289 7.49018C25.0348 8.6864 23.127 10.702 22.5965 11.4578C22.39 11.7527 22.39 12.3099 22.8011 12.314C23.3827 12.3201 30.7242 12.2587 31.9765 12.2915C34.2064 12.3529 44.2438 12.2812 46.3108 12.3201C53.9591 12.4697 67.043 12.6929 73.3197 22.0394C80.8601 33.2684 77.7378 46.4043 74.6705 51.1462C69.8754 58.5611 63.9246 58.7086 61.2741 59.3026C59.2848 59.7471 49.4008 59.8987 48.7453 59.7983V63.2968H58.8547C58.8547 63.2968 58.8907 75.6728 58.8433 75.5581C58.4095 74.5319 55.7495 65.4394 48.7453 65.8429C48.7453 65.8429 48.7453 96.8238 48.7453 98.0426H63.1194V98.9992C61.149 98.952 43.8895 99.0074 42.9858 98.9992C41.8964 98.9889 40.0909 98.8435 37.7265 98.1184C34.2575 97.0512 24.7847 90.5109 26.882 78.2086C28.8164 66.8671 42.4478 63.9605 42.4478 63.9605C42.4288 61.6397 42.4762 46.2548 42.4478 43.8541C42.3132 32.3016 42.4402 26.3819 39.7916 21.9678C37.9652 18.9239 33.7687 15.4152 32.3857 14.7167C28.5947 12.8015 24.7847 12.8957 24.0042 12.9121C21.7818 12.9592 21.8197 12.5086 21.85 11.7937C21.8841 10.9949 22.5946 10.4439 23.1459 9.89082C24.6104 8.42422 25.103 6.84496 25.1579 4.51806C25.1807 3.58607 25.4781 2.31611 25.5994 1.62992C25.6278 1.4681 23.3013 3.71511 22.013 5.40703C20.7247 7.09895 20.4859 8.77653 20.2794 10.5832C19.9422 13.5471 20.3135 14.6368 16.0754 17.4123C14.8231 18.2316 11.3636 21.7629 9.71912 24.7412C8.715 26.5601 8.40808 29.8026 7.07431 33.6944C5.47909 38.3523 3.99375 39.5772 2.04424 43.5387C1.43229 44.78 0.661204 47.1765 1.42092 48.6615C1.76574 49.3375 1.83394 49.8455 1.96088 50.6259C2.03666 51.0909 2.23938 51.2424 2.61261 51.2445C4.31582 51.2527 6.3108 50.3965 7.55553 48.7947C8.72827 47.2851 8.95372 45.7242 8.41377 43.9381C8.39482 43.8766 9.66608 45.3863 9.39136 47.111C9.21327 48.2314 8.22621 49.403 8.30199 49.6673L8.2982 49.6591ZM48.7434 56.6562C52.0589 56.7606 56.6286 56.6377 59.0063 55.6238C68.7557 51.4677 68.3749 26.4515 60.7171 20.7019C57.0511 17.9489 54.8041 17.0784 48.7434 16.0727C48.66 16.0583 48.7434 56.6562 48.7434 56.6562ZM42.4459 66.5824C40.4698 66.9756 37.664 70.8019 37.4442 79.6691C37.1297 92.3237 42.1522 95.812 42.4459 95.5969V66.5824Z" fill="url(#paint0_linear_80_59)"/>
<path d="M19.5254 26.3245C19.4629 26.2262 19.3359 26.2078 19.2488 26.2795C19.2431 26.2836 19.2374 26.2897 19.2317 26.2938C17.5418 27.7276 14.6564 28.1127 12.7182 27.0804C12.2275 26.7895 11.8884 27.6232 12.4113 27.8219C14.1865 28.3483 16.1644 28.2745 17.8847 27.5453C17.0037 28.5142 16.2971 29.6633 15.9181 30.9701C15.7912 31.5293 16.5793 31.7198 16.6892 31.1606C17.0852 29.3642 18.1765 27.7911 19.4742 26.6174C19.478 26.6154 19.4818 26.6113 19.4856 26.6092C19.5671 26.5417 19.5879 26.4167 19.5273 26.3245H19.5254Z" fill="url(#paint1_linear_80_59)"/>
<path d="M4.17559 45.9905C4.66817 46.8651 4.80079 48.0245 4.24758 48.8909C4.07517 49.1265 3.72657 49.9356 3.38745 49.6386C3.30408 49.5464 3.30598 49.403 3.37987 49.3067C3.63942 48.9278 3.87056 48.342 3.88951 47.8831C3.88951 47.4407 3.63563 46.9225 3.37987 46.5845C2.95359 45.9946 3.81372 45.3494 4.17559 45.9905Z" fill="url(#paint2_linear_80_59)"/>
<defs>
<linearGradient id="paint0_linear_80_59" x1="78" y1="13.5" x2="12" y2="99" gradientUnits="userSpaceOnUse">
<stop stop-color="#999999"/>
<stop offset="0.528846" stop-color="white"/>
<stop offset="1" stop-color="#999999"/>
</linearGradient>
<linearGradient id="paint1_linear_80_59" x1="78" y1="13.5" x2="12" y2="99" gradientUnits="userSpaceOnUse">
<stop stop-color="#999999"/>
<stop offset="0.528846" stop-color="white"/>
<stop offset="1" stop-color="#999999"/>
</linearGradient>
<linearGradient id="paint2_linear_80_59" x1="78" y1="13.5" x2="12" y2="99" gradientUnits="userSpaceOnUse">
<stop stop-color="#999999"/>
<stop offset="0.528846" stop-color="white"/>
<stop offset="1" stop-color="#999999"/>
</linearGradient>
</defs>
</svg>
