<svg width="50" height="50" viewBox="0 0 50 50" fill="none" xmlns="http://www.w3.org/2000/svg">
<rect width="50" height="50" rx="25" fill="#53897B" fill-opacity="0.25"/>
<path d="M14.7661 24.553C14.7774 24.5933 14.9903 24.5715 15.1753 24.7032C15.3925 24.8575 15.3925 25.0248 15.618 24.9695C15.8731 24.9067 15.6369 23.8313 16.0158 23.2066C17.0111 21.5659 19.9041 20.5376 20.2155 20.3034C20.8388 19.8357 21.2101 19.4377 21.428 18.7945C21.6282 18.2018 21.7311 17.1879 21.5581 16.0654C21.4659 15.4673 21.7419 15.5445 21.8675 15.7377C21.9844 15.918 22.7548 17.3552 22.5527 18.673C22.2515 20.638 20.5565 20.9316 20.3437 20.9186C19.109 20.8442 16.7686 22.4999 16.259 23.4305C15.9956 23.9112 16.2634 24.9627 15.8043 25.2044C15.3925 25.4208 15.1292 25.1982 14.9119 24.9572C14.6398 24.6548 13.7165 25.3095 13.4304 25.384C13.0932 25.4714 12.2021 25.5628 12.2172 25.5246C12.5349 24.7292 12 24.0211 12 23.9611C12 23.4046 12.257 22.6413 12.4989 22.1517C12.8248 21.4921 14.0847 19.9402 14.3808 18.0885C14.7143 16.0013 15.4841 15.2755 15.7077 14.9675C15.803 14.8358 15.7285 14.6596 15.6174 14.5162C15.0844 13.8294 14.3518 13.8232 14.4434 13.4764C14.5236 13.1718 15.3553 13.3862 15.4532 13.2442C15.5946 13.0373 13.923 10.6196 14.1257 10.4305C14.3676 10.2045 16.1605 12.5614 16.3461 12.4809C16.5028 12.4133 16.3973 11.4997 16.6088 11.4287C16.9897 11.3004 16.9076 12.3348 17.6534 12.8093C17.9906 13.0244 18.3367 12.5491 18.403 12.3115C18.4864 12.0125 18.5691 11.1577 18.6461 10.8026C18.7604 10.2776 18.9941 9.80507 19.3395 9.41931C19.7096 9.00623 20.9057 7.74992 21.0327 8.0442C21.0977 8.19441 20.7485 8.3651 20.6607 8.82871C20.5729 9.29231 20.6443 9.98738 20.4763 10.4967C20.3449 10.8955 19.709 11.5673 19.5322 11.8193C19.4633 11.9176 19.4633 12.1033 19.6004 12.1047C19.7942 12.1067 22.2414 12.0862 22.6588 12.0972C23.4021 12.1176 26.7479 12.0937 27.4369 12.1067C29.9864 12.1566 34.3477 12.231 36.4399 15.3465C38.9534 19.0895 37.9126 23.4681 36.8902 25.0487C35.2918 27.5204 33.3082 27.5695 32.4247 27.7675C31.7616 27.9157 28.4669 27.9662 28.2484 27.9328V29.0989H31.6182C31.6182 29.0989 31.6302 33.2243 31.6144 33.186C31.4698 32.844 30.5832 29.8131 28.2484 29.9476C28.2484 29.9476 28.2484 40.2746 28.2484 40.6809H33.0398V40.9997C32.383 40.984 26.6298 41.0024 26.3286 40.9997C25.9655 40.9963 25.3636 40.9478 24.5755 40.7061C23.4192 40.3504 20.2616 38.1703 20.9607 34.0695C21.6054 30.289 26.1493 29.3202 26.1493 29.3202C26.1429 28.5466 26.1587 23.4183 26.1493 22.618C26.1044 18.7672 26.1467 16.794 25.2639 15.3226C24.6551 14.308 23.2562 13.1384 22.7952 12.9056C21.5316 12.2672 20.2616 12.2986 20.0014 12.304C19.2606 12.3197 19.2732 12.1695 19.2833 11.9312C19.2947 11.665 19.5315 11.4813 19.7153 11.2969C20.2035 10.8081 20.3677 10.2817 20.386 9.50602C20.3936 9.19536 20.4927 8.77204 20.5331 8.54331C20.5426 8.48937 19.7671 9.23837 19.3377 9.80234C18.9082 10.3663 18.8286 10.9255 18.7598 11.5277C18.6474 12.5157 18.7712 12.8789 17.3585 13.8041C16.941 14.0772 15.7879 15.2543 15.2397 16.2471C14.905 16.8534 14.8027 17.9342 14.3581 19.2315C13.8264 20.7841 13.3312 21.1924 12.6814 22.5129C12.4774 22.9267 12.2204 23.7255 12.4736 24.2205C12.5886 24.4458 12.6113 24.6152 12.6536 24.8753C12.6789 25.0303 12.7465 25.0808 12.8709 25.0815C13.4386 25.0842 14.1036 24.7988 14.5185 24.2649C14.9094 23.7617 14.9846 23.2414 14.8046 22.646C14.7983 22.6255 15.222 23.1288 15.1305 23.7037C15.0711 24.0771 14.7421 24.4677 14.7673 24.5558L14.7661 24.553ZM28.2478 26.8854C29.353 26.9202 30.8762 26.8792 31.6688 26.5413C34.9186 25.1559 34.7916 16.8172 32.239 14.9006C31.017 13.983 30.268 13.6928 28.2478 13.3576C28.22 13.3528 28.2478 26.8854 28.2478 26.8854ZM26.1486 30.1941C25.4899 30.3252 24.5547 31.6006 24.4814 34.5564C24.3766 38.7746 26.0507 39.9373 26.1486 39.8656V30.1941Z" fill="url(#paint0_linear_80_17)"/>
<path d="M18.5085 16.7748C18.4876 16.7421 18.4453 16.7359 18.4163 16.7598C18.4144 16.7612 18.4125 16.7632 18.4106 16.7646C17.8473 17.2425 16.8855 17.3709 16.2394 17.0268C16.0758 16.9298 15.9628 17.2077 16.1371 17.274C16.7288 17.4494 17.3881 17.4248 17.9616 17.1818C17.6679 17.5047 17.4324 17.8878 17.306 18.3234C17.2637 18.5098 17.5264 18.5733 17.5631 18.3869C17.6951 17.7881 18.0588 17.2637 18.4914 16.8725C18.4927 16.8718 18.4939 16.8704 18.4952 16.8698C18.5224 16.8472 18.5293 16.8056 18.5091 16.7748H18.5085Z" fill="url(#paint1_linear_80_17)"/>
<path d="M13.3919 23.3302C13.5561 23.6217 13.6003 24.0082 13.4159 24.297C13.3584 24.3755 13.2422 24.6452 13.1291 24.5462C13.1014 24.5155 13.102 24.4677 13.1266 24.4356C13.2131 24.3093 13.2902 24.114 13.2965 23.961C13.2965 23.8136 13.2119 23.6408 13.1266 23.5282C12.9845 23.3315 13.2712 23.1165 13.3919 23.3302Z" fill="url(#paint2_linear_80_17)"/>
<defs>
<linearGradient id="paint0_linear_80_17" x1="38" y1="12.5" x2="16" y2="41" gradientUnits="userSpaceOnUse">
<stop stop-color="#999999"/>
<stop offset="0.528846" stop-color="white"/>
<stop offset="1" stop-color="#999999"/>
</linearGradient>
<linearGradient id="paint1_linear_80_17" x1="38" y1="12.5" x2="16" y2="41" gradientUnits="userSpaceOnUse">
<stop stop-color="#999999"/>
<stop offset="0.528846" stop-color="white"/>
<stop offset="1" stop-color="#999999"/>
</linearGradient>
<linearGradient id="paint2_linear_80_17" x1="38" y1="12.5" x2="16" y2="41" gradientUnits="userSpaceOnUse">
<stop stop-color="#999999"/>
<stop offset="0.528846" stop-color="white"/>
<stop offset="1" stop-color="#999999"/>
</linearGradient>
</defs>
</svg>
