<svg width="35" height="35" viewBox="0 0 35 35" fill="none" xmlns="http://www.w3.org/2000/svg">
<path d="M17.0488 0C26.465 0 34.0986 7.63363 34.0986 17.0498C34.0985 26.4659 26.4649 34.0986 17.0488 34.0986C7.63293 34.0984 9.70534e-05 26.4657 0 17.0498C0 7.63379 7.63287 0.000254809 17.0488 0ZM18.8076 8.83398C17.9519 7.97908 16.5643 7.97875 15.708 8.83496C14.8518 9.69126 14.853 11.0789 15.708 11.9346L18.9414 15.168H9.43652C8.22585 15.168 7.24414 16.1497 7.24414 17.3604C7.2444 18.5708 8.22601 19.5518 9.43652 19.5518H18.9414L15.708 22.7861C14.853 23.6418 14.8517 25.0295 15.708 25.8857C16.5643 26.7416 17.952 26.7406 18.8076 25.8857L25.7832 18.9102C26.6391 18.0542 26.6389 16.6666 25.7832 15.8105L18.8076 8.83496V8.83398Z" fill="white"/>
</svg>
