<svg width="353" height="341" viewBox="0 0 353 341" fill="none" xmlns="http://www.w3.org/2000/svg">
<path fill-rule="evenodd" clip-rule="evenodd" d="M20.1143 7.386C14.8212 14.6463 12.7698 25.2963 14.1689 38.8903C15.5639 52.4431 20.3573 68.5528 28.2736 86.3054C43.6059 120.688 70.4542 160.788 105.992 199.64L109.459 203.396L109.461 203.397C148.438 245.325 189.871 277.427 225.264 295.489C242.972 304.526 259.016 309.969 272.387 311.461C285.771 312.953 296.067 310.459 302.899 304.172C309.726 297.888 313.022 287.873 312.563 274.481C312.104 261.099 307.893 244.753 300.21 226.472C284.853 189.935 255.896 146.303 216.918 104.34C196.245 82.1572 174.914 62.6601 154.142 46.6053L157.751 41.6274C183.582 59.0437 210.508 80.8244 236.68 106.279C281.917 150.275 316.416 196.86 335.582 236.705C345.159 256.615 350.983 274.999 352.311 290.631C353.637 306.251 350.491 319.535 341.591 328.607C332.695 337.676 319.438 341.123 303.728 340.177C288.006 339.23 269.412 333.874 249.197 324.818C208.742 306.694 161.159 273.466 115.921 229.469C70.6842 185.473 36.1856 138.887 17.0198 99.0422C7.44305 79.1321 1.61853 60.7487 0.291 45.1175C-1.0355 29.4969 2.11088 16.2133 11.0101 7.1415C12.5544 5.56733 14.1768 4.23109 15.8631 3.05713L20.1143 7.386Z" fill="white"/>
<path d="M106.284 252.945C47.6114 298.262 16.0382 265.414 3.08594 243.963C4.25422 259.391 7.89354 274.931 14.2081 289.944C19.1432 301.644 25.3368 312.337 32.6475 322.026C39.2412 330.731 48.4877 336.997 59.099 339.28C72.0443 342.031 87.5405 339.652 106.048 329.305C208.264 272.353 346.489 0 346.489 0C346.489 0 177.965 197.629 106.284 252.945Z" fill="white"/>
<path d="M14.1097 38.8906C12.7164 25.2965 14.7594 14.6464 20.0304 7.38602L15.7954 3.05713C14.116 4.23124 12.5028 5.56808 10.9656 7.1415C2.10341 16.2132 -1.03111 29.4957 0.289626 45.1164C1.61141 60.7479 7.41185 79.1323 16.9488 99.043C36.0345 138.889 70.3896 185.474 115.439 229.471C159.521 272.525 205.836 305.262 245.547 323.628C265.393 332.806 283.726 338.458 299.389 339.938C315.021 341.415 328.395 338.764 337.796 330.813L340.337 328.662L307.902 295.915L305.837 299.137C304.636 301.011 303.239 302.693 301.636 304.175C294.833 310.461 284.581 312.956 271.253 311.463C257.937 309.971 241.959 304.529 224.324 295.492C189.079 277.429 147.818 245.327 109.003 203.399L109.002 203.396C71.8972 163.381 43.9166 121.798 28.1557 86.3062C20.2723 68.5534 15.499 52.4434 14.1097 38.8906Z" fill="white"/>
</svg>
