<svg width="104" height="123" viewBox="0 0 104 123" fill="none" xmlns="http://www.w3.org/2000/svg">
<path d="M83.291 0.108894C83.0726 0.87414 53.708 93.3598 0 122.221C39.5168 85.8167 61.349 33.6704 71.0645 5.02834L28.6008 5.1383C28.6487 5.25684 45.1954 46.2482 46.6127 50.6154L17.029 0L83.291 0.108894Z" fill="url(#paint0_linear_117_102)"/>
<path d="M95.8447 118.942H25.6532L33.7317 112.819H77.9426L60.6941 80.0231L64.7333 72.0429L95.8447 118.942Z" fill="url(#paint1_linear_117_102)"/>
<path d="M103.486 118.942H98.2465L67.1351 68.3256L68.4453 66.5769L103.486 118.942Z" fill="url(#paint2_linear_117_102)"/>
<path d="M92.3512 0.108894C79.1425 42.8534 40.1719 97.7327 13.6453 115.661C67.1072 70.3168 87.0908 0.181997 87.1116 0.108894H92.3512Z" fill="url(#paint3_linear_117_102)"/>
<path d="M96.8265 0.108894C89.5126 23.3942 66.0433 66.6854 37.1153 95.2181C42.0276 89.7521 47.1575 83.5205 52.0698 76.9613C54.3622 73.9003 56.5461 70.73 58.7293 67.669C73.5754 46.2422 86.7844 21.645 93.3341 0.108894H96.8265Z" fill="url(#paint4_linear_117_102)"/>
<path d="M37.8807 9.40224L49.8886 39.5744L32.5313 6.99697H67.2449L37.8807 9.40224Z" fill="url(#paint5_linear_117_102)"/>
<defs>
<linearGradient id="paint0_linear_117_102" x1="114.985" y1="-21.0242" x2="-20.9941" y2="104.849" gradientUnits="userSpaceOnUse">
<stop stop-color="#565656"/>
<stop offset="0.509615" stop-color="#DFDFDF"/>
<stop offset="1" stop-color="#717171"/>
</linearGradient>
<linearGradient id="paint1_linear_117_102" x1="114.985" y1="-21.0242" x2="-20.9941" y2="104.849" gradientUnits="userSpaceOnUse">
<stop stop-color="#565656"/>
<stop offset="0.509615" stop-color="#DFDFDF"/>
<stop offset="1" stop-color="#717171"/>
</linearGradient>
<linearGradient id="paint2_linear_117_102" x1="114.985" y1="-21.0242" x2="-20.9941" y2="104.849" gradientUnits="userSpaceOnUse">
<stop stop-color="#565656"/>
<stop offset="0.509615" stop-color="#DFDFDF"/>
<stop offset="1" stop-color="#717171"/>
</linearGradient>
<linearGradient id="paint3_linear_117_102" x1="114.985" y1="-21.0242" x2="-20.9941" y2="104.849" gradientUnits="userSpaceOnUse">
<stop stop-color="#565656"/>
<stop offset="0.509615" stop-color="#DFDFDF"/>
<stop offset="1" stop-color="#717171"/>
</linearGradient>
<linearGradient id="paint4_linear_117_102" x1="114.985" y1="-21.0242" x2="-20.9941" y2="104.849" gradientUnits="userSpaceOnUse">
<stop stop-color="#565656"/>
<stop offset="0.509615" stop-color="#DFDFDF"/>
<stop offset="1" stop-color="#717171"/>
</linearGradient>
<linearGradient id="paint5_linear_117_102" x1="114.985" y1="-21.0242" x2="-20.9941" y2="104.849" gradientUnits="userSpaceOnUse">
<stop stop-color="#565656"/>
<stop offset="0.509615" stop-color="#DFDFDF"/>
<stop offset="1" stop-color="#717171"/>
</linearGradient>
</defs>
</svg>
