<svg width="140" height="124" viewBox="0 0 140 124" fill="none" xmlns="http://www.w3.org/2000/svg">
<path d="M34.6346 69.0678C36.3855 71.3993 38.1368 73.7311 40.0335 75.9168C42.9517 79.2683 46.1614 82.6204 49.2255 85.9719C53.019 90.0519 57.1045 93.5488 61.3357 97.0459C65.2752 100.252 69.5074 103.313 73.8847 105.936C76.8027 107.538 79.7212 109.14 82.6392 110.597C87.7458 112.929 92.9981 114.823 98.5424 115.261C101.606 115.406 104.671 115.261 107.589 114.095C111.966 112.347 114.447 108.995 115.177 104.478C115.468 103.458 115.615 102.292 115.761 101.272C116.199 104.041 116.343 106.955 116.051 109.724C116.051 111.035 115.761 112.492 115.469 113.803C114.593 117.883 111.967 120.507 108.173 121.964C105.109 123.13 101.899 123.275 98.6892 122.983C94.7499 122.546 90.9561 121.673 87.3086 120.216C82.4936 118.321 77.9698 115.989 73.5926 113.367C67.3186 109.578 61.628 105.207 56.0835 100.544C51.4144 96.4636 46.745 92.0921 42.6596 87.4291C39.7415 84.0777 36.8235 80.726 34.1972 77.2289C34.1972 75.7719 34.1966 74.1689 34.3425 72.4205C34.4884 71.2547 34.4887 70.0879 34.6346 69.0678Z" fill="url(#paint0_linear_117_89)"/>
<path d="M27.191 99.3768C29.5255 100.105 31.7153 100.543 34.1957 101.126C35.0711 103.603 36.0915 106.08 37.4046 108.412C38.7177 110.743 40.4691 112.928 42.8035 114.385C46.4512 116.717 50.0998 116.717 53.8934 115.114C54.7687 114.677 55.6439 114.24 56.2274 113.657C54.4766 115.551 52.4342 117.009 50.2457 118.32C49.2244 118.903 48.056 119.485 46.8887 119.922C43.5329 121.525 40.3233 120.942 37.2593 118.902C34.9249 117.299 33.174 114.968 31.715 112.491C29.9641 109.431 28.796 106.225 27.9205 102.873C27.6288 101.708 27.4827 100.542 27.191 99.3768Z" fill="url(#paint1_linear_117_89)"/>
<path d="M5.7435 62.5105C5.30591 63.0933 4.86824 63.8219 4.57651 64.4046C2.24209 68.1932 1.36656 72.2731 3.11742 76.4989C4.13879 79.4132 5.89026 81.4535 8.0789 83.3479C13.0396 87.5733 19.0213 89.9055 25.1491 91.6541C30.5477 93.2569 36.2388 94.1307 41.7833 94.7136C43.0964 94.8593 44.5554 95.0053 45.8685 95.0053C47.7652 96.8996 49.6622 98.7937 51.7048 100.542C48.0574 100.251 44.5558 99.9596 40.9084 99.3768C34.3425 98.3568 27.7755 96.7533 21.5014 94.4218C18.4376 93.2562 15.5194 91.7996 12.6015 90.1969C9.53752 88.4483 6.76567 86.4075 4.43117 83.7847C2.0967 81.1619 0.345805 78.2476 0.0539057 74.6048C-0.237905 70.962 0.637109 67.9017 3.11742 65.1332C3.99288 64.2589 4.72271 63.384 5.59816 62.364L5.7435 62.5105Z" fill="url(#paint2_linear_117_89)"/>
<path d="M126.703 50.9983C129.183 52.4554 131.518 54.059 133.561 55.9532C134.582 56.9731 135.603 57.9929 136.479 59.0127C139.251 62.0728 139.689 65.7164 138.667 69.7964C137.646 73.0019 135.749 75.6247 133.561 77.956C130.788 80.8704 127.723 83.2019 124.367 85.2419C119.99 88.0103 115.467 90.0501 110.653 91.9444C103.941 94.5672 96.9373 96.4625 89.7879 97.9196C83.6598 99.2311 77.5312 100.105 71.2572 100.542C69.0687 98.9395 66.7341 97.3368 64.2538 95.297C67.4635 95.0056 70.8189 94.7132 74.0286 94.4218C79.427 93.9847 84.8261 92.9654 90.0786 91.6541C95.1854 90.4883 100.001 89.0303 104.816 87.136C107.88 85.8245 110.945 84.5133 113.863 83.0562C118.823 80.5791 123.492 77.6647 127.285 73.4394C129.474 71.1079 131.079 68.6301 131.955 65.57C133.122 61.0528 132.101 56.973 129.037 53.4758C128.307 52.6015 127.432 51.8725 126.703 50.9983Z" fill="url(#paint3_linear_117_89)"/>
<path d="M60.3126 1.59945C63.2307 0.288017 66.1498 -0.439733 69.2139 0.288848C72.4235 0.871839 74.7585 2.62052 76.5093 5.38896C77.0928 6.26301 77.6761 7.28269 78.1138 8.15674L77.9684 8.30332C77.5307 7.72044 77.0924 7.28244 76.6547 6.69957C74.0285 3.63982 70.8182 2.03675 66.7331 2.32804C64.2527 2.32804 61.9179 3.2032 59.8751 4.66038C54.9143 7.86616 51.4118 12.2377 48.3478 17.0464C45.5756 21.2721 43.3871 25.7898 41.3444 30.4527C39.1559 35.5526 37.4054 40.6526 36.0923 45.8982C35.071 49.8323 34.1957 53.7666 33.4662 57.7007C32.4448 62.5094 32.0068 67.3187 31.715 72.1273C31.4232 76.6446 31.2773 81.3081 31.715 85.8254C31.8609 87.2824 32.0066 88.7399 32.1524 90.1969C29.964 89.7598 27.9212 89.3225 25.8786 88.7397C25.4409 82.6196 25.7325 76.3534 26.3161 70.2333C26.8997 64.6962 27.6291 59.1589 28.9422 53.7675C29.8176 49.9788 30.8398 46.189 32.0071 42.4004C33.4662 37.592 35.3628 32.9291 37.5514 28.4121C40.1777 23.0206 43.0951 17.9198 46.8887 13.2569C48.6395 10.9256 50.6825 8.74034 52.725 6.84614C55.0596 4.66038 57.5403 2.91091 60.3126 1.59945Z" fill="url(#paint4_linear_117_89)"/>
<path d="M128.308 3.49492C111.967 25.4983 95.6243 47.5022 79.5743 69.6513C76.9479 73.1486 72.5711 79.2688 69.9449 82.7659L67.9016 86.2622C71.5491 68.3391 59.7311 55.6625 41.4926 57.9939C43.6811 56.8282 46.161 55.9527 48.6413 55.3698C57.104 53.184 66.8808 49.8328 77.2403 44.7327C102.628 32.201 118.97 15.1523 128.308 3.49492Z" fill="url(#paint5_linear_117_89)"/>
<path d="M19.7516 15.7358C22.378 13.2586 25.4426 12.0931 29.0904 12.3845C30.2576 12.5303 31.5708 12.5306 32.7381 12.6763V12.9666C32.0085 12.9666 31.279 13.1131 30.5494 13.1131C26.0263 13.5503 22.3783 15.4443 20.0437 19.3787C18.5847 21.7102 18.001 24.4794 17.8551 27.248C17.5634 33.8051 19.3151 39.9253 21.6496 45.8996C22.8168 48.8137 24.129 51.5825 25.588 54.3509C25.1503 56.5366 24.7133 58.868 24.2756 61.3451C21.5035 55.9538 19.0232 50.5625 17.2723 44.7341C16.3968 41.5283 15.6667 38.3217 15.229 35.1159C14.7913 31.6189 14.6454 28.1219 15.229 24.7705C15.8126 21.2734 17.1254 18.2129 19.7516 15.7358Z" fill="url(#paint6_linear_117_89)"/>
<defs>
<linearGradient id="paint0_linear_117_89" x1="154.634" y1="-21.1776" x2="20.2784" y2="144.867" gradientUnits="userSpaceOnUse">
<stop stop-color="#565656"/>
<stop offset="0.509615" stop-color="#DFDFDF"/>
<stop offset="1" stop-color="#717171"/>
</linearGradient>
<linearGradient id="paint1_linear_117_89" x1="154.634" y1="-21.1776" x2="20.2784" y2="144.867" gradientUnits="userSpaceOnUse">
<stop stop-color="#565656"/>
<stop offset="0.509615" stop-color="#DFDFDF"/>
<stop offset="1" stop-color="#717171"/>
</linearGradient>
<linearGradient id="paint2_linear_117_89" x1="154.634" y1="-21.1776" x2="20.2784" y2="144.867" gradientUnits="userSpaceOnUse">
<stop stop-color="#565656"/>
<stop offset="0.509615" stop-color="#DFDFDF"/>
<stop offset="1" stop-color="#717171"/>
</linearGradient>
<linearGradient id="paint3_linear_117_89" x1="154.634" y1="-21.1776" x2="20.2784" y2="144.867" gradientUnits="userSpaceOnUse">
<stop stop-color="#565656"/>
<stop offset="0.509615" stop-color="#DFDFDF"/>
<stop offset="1" stop-color="#717171"/>
</linearGradient>
<linearGradient id="paint4_linear_117_89" x1="154.634" y1="-21.1776" x2="20.2784" y2="144.867" gradientUnits="userSpaceOnUse">
<stop stop-color="#565656"/>
<stop offset="0.509615" stop-color="#DFDFDF"/>
<stop offset="1" stop-color="#717171"/>
</linearGradient>
<linearGradient id="paint5_linear_117_89" x1="154.634" y1="-21.1776" x2="20.2784" y2="144.867" gradientUnits="userSpaceOnUse">
<stop stop-color="#565656"/>
<stop offset="0.509615" stop-color="#DFDFDF"/>
<stop offset="1" stop-color="#717171"/>
</linearGradient>
<linearGradient id="paint6_linear_117_89" x1="154.634" y1="-21.1776" x2="20.2784" y2="144.867" gradientUnits="userSpaceOnUse">
<stop stop-color="#565656"/>
<stop offset="0.509615" stop-color="#DFDFDF"/>
<stop offset="1" stop-color="#717171"/>
</linearGradient>
</defs>
</svg>
