<svg width="110" height="116" viewBox="0 0 110 116" fill="none" xmlns="http://www.w3.org/2000/svg">
<path d="M109.731 25.0926H0C0 29.883 3.8863 33.875 8.80133 33.875H9.83006V115.084C23.2035 115.084 34.0623 104.248 34.0623 90.9035V68.0921C34.0623 56.8004 42.9779 47.2196 54.2939 46.8775C66.0671 46.5353 75.6686 56.002 75.6686 67.6359V90.7895C75.6686 104.134 86.5274 114.97 99.9008 114.97V33.875H100.93C105.845 33.875 109.731 29.883 109.731 25.0926Z" fill="url(#paint0_linear_117_76)"/>
<path d="M99.4436 12.5463H10.2873C10.2873 16.7664 13.7164 20.1881 17.9456 20.1881H91.7853C96.0145 20.1881 99.4436 16.7664 99.4436 12.5463Z" fill="url(#paint1_linear_117_76)"/>
<path d="M83.556 0H26.1758C26.1758 4.22011 29.6049 7.64183 33.8341 7.64183H75.8977C80.1269 7.64183 83.556 4.22011 83.556 0Z" fill="url(#paint2_linear_117_76)"/>
<path d="M54.8668 51.7813C45.8368 51.7813 38.5215 59.0809 38.5215 68.0914C38.5215 77.1019 45.8368 84.4016 54.8668 84.4016C63.8967 84.4016 71.2121 77.1019 71.2121 68.0914C71.2121 59.0809 63.8967 51.7813 54.8668 51.7813ZM63.2109 66.8368L59.7818 69.3461C59.4389 69.5742 59.2103 70.1445 59.4389 70.6007L60.8106 74.7067C61.1535 75.7333 60.0104 76.5317 59.096 75.9614L55.5526 73.4521C55.2097 73.224 54.6382 73.224 54.2953 73.4521L50.7519 75.9614C49.9518 76.5317 48.8087 75.7333 49.0373 74.7067L50.409 70.6007C50.5233 70.1445 50.409 69.6882 50.0661 69.3461L46.637 66.8368C45.8369 66.2665 46.1798 64.8978 47.3228 64.8978H51.6663C52.1235 64.8978 52.5807 64.5557 52.695 64.0994L54.0667 59.9934C54.4096 58.9669 55.7812 58.9669 56.1241 59.9934L57.4958 64.0994C57.6101 64.5557 58.0673 64.8978 58.5245 64.8978H62.868C63.6681 64.8978 64.1253 66.2665 63.2109 66.8368Z" fill="url(#paint3_linear_117_76)"/>
<defs>
<linearGradient id="paint0_linear_117_76" x1="121.923" y1="-19.7965" x2="-6.38637" y2="113.955" gradientUnits="userSpaceOnUse">
<stop stop-color="#565656"/>
<stop offset="0.509615" stop-color="#DFDFDF"/>
<stop offset="1" stop-color="#717171"/>
</linearGradient>
<linearGradient id="paint1_linear_117_76" x1="121.923" y1="-19.7965" x2="-6.38637" y2="113.955" gradientUnits="userSpaceOnUse">
<stop stop-color="#565656"/>
<stop offset="0.509615" stop-color="#DFDFDF"/>
<stop offset="1" stop-color="#717171"/>
</linearGradient>
<linearGradient id="paint2_linear_117_76" x1="121.923" y1="-19.7965" x2="-6.38637" y2="113.955" gradientUnits="userSpaceOnUse">
<stop stop-color="#565656"/>
<stop offset="0.509615" stop-color="#DFDFDF"/>
<stop offset="1" stop-color="#717171"/>
</linearGradient>
<linearGradient id="paint3_linear_117_76" x1="121.923" y1="-19.7965" x2="-6.38637" y2="113.955" gradientUnits="userSpaceOnUse">
<stop stop-color="#565656"/>
<stop offset="0.509615" stop-color="#DFDFDF"/>
<stop offset="1" stop-color="#717171"/>
</linearGradient>
</defs>
</svg>
