<svg width="50" height="50" viewBox="0 0 50 50" fill="none" xmlns="http://www.w3.org/2000/svg">
<path d="M24.96 0C38.7449 0.000101078 49.9198 11.175 49.9199 24.96C49.9199 38.745 38.745 49.9198 24.96 49.9199C11.1749 49.9199 0 38.745 0 24.96C0.000123698 11.175 11.175 0 24.96 0ZM37.6221 15.3486C38.088 13.4687 36.9888 12.9048 35.7588 13.4688L9.01758 23.6768C7.56445 24.1093 7.60189 25.5569 8.68262 25.9141L15.3721 28.0195L17.9443 35.9531C18.2611 36.8177 18.5036 37.1562 19.0439 37.1562C19.568 37.1562 19.7805 36.9735 20.2969 36.5322C20.331 36.503 20.3672 36.4728 20.4043 36.4414C21.075 35.8022 22.1184 34.7872 23.7578 33.1709L30.7275 38.3594C32.0134 39.0737 32.9264 38.6976 33.2617 37.1562L37.6221 15.3486ZM31.6777 17.8867C32.4231 17.3791 32.6655 17.9431 32.3301 18.3379L19.6953 29.8057L19.0439 35.5391L16.4531 27.5303L31.6777 17.8867Z" fill="white"/>
</svg>
