<svg width="35" height="35" viewBox="0 0 35 35" fill="none" xmlns="http://www.w3.org/2000/svg">
<circle cx="17.5" cy="17.5" r="17.5" fill="#FF4433"/>
<path d="M8.12774 16.5402C8.13649 16.5707 8.3002 16.5541 8.44253 16.654C8.60964 16.7709 8.60964 16.8976 8.78307 16.8557C8.97933 16.8081 8.79764 15.9934 9.08911 15.5201C9.85471 14.2772 12.0801 13.4982 12.3196 13.3208C12.7991 12.9665 13.0847 12.6649 13.2523 12.1776C13.4063 11.7287 13.4855 10.9605 13.3524 10.1102C13.2814 9.65707 13.4937 9.71552 13.5904 9.8619C13.6803 9.99846 14.2729 11.0873 14.1175 12.0856C13.8858 13.5742 12.5819 13.7967 12.4182 13.7868C11.4685 13.7304 9.66817 14.9848 9.27614 15.6898C9.07357 16.054 9.27954 16.8505 8.92638 17.0336C8.60964 17.1976 8.40707 17.029 8.23996 16.8464C8.03059 16.6172 7.32037 17.1133 7.10031 17.1697C6.8409 17.2359 6.15545 17.3052 6.16711 17.2762C6.41146 16.6736 6 16.1372 6 16.0917C6 15.6701 6.19771 15.0919 6.38377 14.721C6.63444 14.2213 7.60358 13.0456 7.83141 11.6428C8.08791 10.0616 8.68008 9.51172 8.85205 9.27844C8.9254 9.17861 8.86808 9.04516 8.78258 8.93653C8.37258 8.41618 7.80907 8.41152 7.87951 8.14876C7.9412 7.91806 8.58098 8.08048 8.65628 7.97289C8.76509 7.81616 7.47922 5.98456 7.63516 5.84129C7.82121 5.67007 9.20036 7.45564 9.34318 7.3946C9.46366 7.34339 9.38253 6.65131 9.54527 6.59751C9.8382 6.50027 9.77504 7.28391 10.3488 7.6434C10.6082 7.80633 10.8744 7.44633 10.9254 7.26632C10.9895 7.03976 11.0531 6.39216 11.1124 6.12319C11.2003 5.72542 11.3801 5.36748 11.6458 5.07523C11.9305 4.76229 12.8506 3.81055 12.9482 4.03348C12.9982 4.14728 12.7296 4.27659 12.6621 4.62781C12.5945 4.97902 12.6494 5.50559 12.5202 5.89146C12.4192 6.19354 11.93 6.70251 11.794 6.89338C11.741 6.96786 11.741 7.10856 11.8464 7.10959C11.9956 7.11114 13.878 7.09563 14.1991 7.1039C14.7709 7.11942 17.3446 7.10132 17.8746 7.11114C19.8357 7.1489 23.1905 7.20528 24.7999 9.56552C26.7334 12.4011 25.9328 15.7183 25.1463 16.9157C23.9168 18.7882 22.3909 18.8254 21.7113 18.9754C21.2012 19.0876 18.6669 19.1259 18.4988 19.1006V19.984H21.0909C21.0909 19.984 21.1002 23.1093 21.088 23.0803C20.9768 22.8212 20.2947 20.5251 18.4988 20.627C18.4988 20.627 18.4988 28.4505 18.4988 28.7582H22.1845V28.9998C21.6792 28.9879 17.2537 29.0019 17.022 28.9998C16.7427 28.9972 16.2797 28.9605 15.6735 28.7774C14.784 28.5079 12.3551 26.8563 12.8928 23.7497C13.3888 20.8856 16.884 20.1516 16.884 20.1516C16.8792 19.5656 16.8913 15.6805 16.884 15.0743C16.8495 12.157 16.8821 10.6621 16.203 9.54741C15.7347 8.77877 14.6587 7.89272 14.304 7.71633C13.332 7.2327 12.3551 7.25649 12.1549 7.26063C11.5851 7.27253 11.5948 7.15873 11.6026 6.97821C11.6113 6.77648 11.7935 6.63734 11.9348 6.49768C12.3104 6.12733 12.4367 5.72852 12.4508 5.14092C12.4566 4.90557 12.5329 4.58488 12.5639 4.4116C12.5712 4.37073 11.9747 4.93816 11.6443 5.36541C11.314 5.79266 11.2528 6.21629 11.1999 6.67251C11.1134 7.42098 11.2086 7.69616 10.1219 8.39704C9.80079 8.60394 8.91375 9.49569 8.49208 10.2478C8.23462 10.7071 8.15592 11.5259 7.81393 12.5087C7.40489 13.6849 7.02404 13.9942 6.52416 14.9946C6.36725 15.3081 6.16954 15.9133 6.36434 16.2883C6.45275 16.459 6.47024 16.5872 6.50279 16.7843C6.52222 16.9017 6.5742 16.94 6.6699 16.9405C7.10662 16.9426 7.61815 16.7264 7.93732 16.3219C8.23802 15.9407 8.29583 15.5465 8.15738 15.0955C8.15252 15.08 8.47848 15.4612 8.40804 15.8967C8.36238 16.1796 8.10928 16.4755 8.12872 16.5422L8.12774 16.5402ZM18.4983 18.3071C19.3484 18.3335 20.5201 18.3025 21.1298 18.0464C23.6297 16.9969 23.532 10.6797 21.5685 9.22775C20.6285 8.53256 20.0523 8.31273 18.4983 8.05875C18.4769 8.05513 18.4983 18.3071 18.4983 18.3071ZM16.8836 20.8137C16.3769 20.913 15.6574 21.8793 15.6011 24.1185C15.5204 27.3141 16.8083 28.1949 16.8836 28.1406V20.8137Z" fill="white"/>
<path d="M11.0065 10.6476C10.9905 10.6228 10.9579 10.6181 10.9356 10.6362C10.9341 10.6373 10.9327 10.6388 10.9312 10.6399C10.4979 11.0019 9.75804 11.0992 9.26108 10.8385C9.13526 10.765 9.04831 10.9755 9.18238 11.0257C9.63757 11.1587 10.1447 11.14 10.5858 10.9559C10.3599 11.2006 10.1787 11.4907 10.0816 11.8207C10.049 11.962 10.2511 12.0101 10.2793 11.8688C10.3808 11.4152 10.6606 11.018 10.9934 10.7216C10.9944 10.7211 10.9953 10.72 10.9963 10.7195C11.0172 10.7024 11.0225 10.6709 11.007 10.6476H11.0065Z" fill="white"/>
<path d="M7.07066 15.6138C7.19697 15.8346 7.23097 16.1274 7.08912 16.3462C7.04492 16.4057 6.95553 16.61 6.86858 16.535C6.8472 16.5117 6.84769 16.4755 6.86663 16.4512C6.93319 16.3555 6.99245 16.2076 6.99731 16.0917C6.99731 15.98 6.93221 15.8491 6.86663 15.7638C6.75733 15.6148 6.97788 15.4519 7.07066 15.6138Z" fill="white"/>
</svg>
