<svg width="159" height="83" viewBox="0 0 159 83" fill="none" xmlns="http://www.w3.org/2000/svg">
<path d="M6.9618 41.624C6.99041 41.7253 7.52606 41.6704 7.99177 42.0018C8.53854 42.3898 8.53854 42.8104 9.10598 42.6714C9.74811 42.5134 9.15366 39.8093 10.1073 38.2383C12.6123 34.1126 19.8936 31.527 20.6772 30.9381C22.246 29.762 23.1806 28.761 23.7289 27.1437C24.2328 25.6534 24.4919 23.1039 24.0564 20.2813C23.8243 18.7773 24.5189 18.9713 24.8352 19.4572C25.1292 19.9104 27.0684 23.5245 26.5598 26.8381C25.8016 31.7793 21.5355 32.5176 20.9998 32.485C17.8925 32.2978 12.002 36.4613 10.7193 38.8015C10.0565 40.0102 10.7304 42.6542 9.57486 43.262C8.53854 43.8062 7.87574 43.2465 7.32897 42.6404C6.64391 41.8799 4.32013 43.5264 3.60011 43.7135C2.75134 43.9333 0.508625 44.1633 0.546772 44.0672C1.34627 42.067 0 40.2866 0 40.1355C0 38.7362 0.646907 36.8167 1.25567 35.5857C2.07583 33.9272 5.24678 30.0247 5.99224 25.3684C6.83147 20.1199 8.76901 18.2948 9.33168 17.5205C9.57168 17.1891 9.38413 16.7462 9.10439 16.3856C7.76289 14.6584 5.91912 14.643 6.14959 13.7708C6.35145 13.0051 8.44476 13.5442 8.69113 13.187C9.04716 12.6668 4.83988 6.58728 5.3501 6.1117C5.95886 5.54341 10.4713 11.4701 10.9386 11.2675C11.3328 11.0976 11.0674 8.80036 11.5998 8.62181C12.5583 8.29903 12.3516 10.9001 14.2288 12.0934C15.0775 12.6342 15.9486 11.4392 16.1155 10.8418C16.3253 10.0898 16.5335 7.9402 16.7274 7.04741C17.0151 5.72711 17.6032 4.53902 18.4726 3.56897C19.404 2.53025 22.4145 -0.628847 22.7339 0.111137C22.8977 0.488855 22.0187 0.918079 21.7978 2.08385C21.5768 3.24963 21.7564 4.99743 21.3336 6.27824C21.003 7.28091 19.4024 8.97034 18.9574 9.60387C18.7842 9.85111 18.7842 10.3181 19.1291 10.3215C19.617 10.3267 25.7762 10.2752 26.8268 10.3027C28.6976 10.3542 37.1185 10.2941 38.8526 10.3267C45.2692 10.452 56.246 10.6392 61.5118 18.4734C67.8378 27.8854 65.2184 38.8959 62.6451 42.8705C58.6222 49.0857 53.6297 49.2093 51.4061 49.7072C49.7372 50.0798 41.445 50.2068 40.895 50.1227V53.0552H49.3764C49.3764 53.0552 49.4065 63.4287 49.3668 63.3325C49.0028 62.4724 46.7712 54.851 40.895 55.1893C40.895 55.1893 40.895 81.1574 40.895 82.1789H52.9542V82.9807C51.3012 82.9412 36.8213 82.9876 36.0631 82.9807C35.1492 82.9721 33.6344 82.8502 31.6508 82.2425C28.7405 81.3479 20.7932 75.8659 22.5527 65.5542C24.1756 56.0477 35.6117 53.6114 35.6117 53.6114C35.5958 51.6662 35.6355 38.7706 35.6117 36.7584C35.4988 27.075 35.6053 22.1132 33.3833 18.4133C31.851 15.862 28.3304 12.9209 27.1701 12.3355C23.9896 10.7302 20.7932 10.8091 20.1384 10.8229C18.2739 10.8624 18.3057 10.4846 18.3312 9.88544C18.3598 9.21585 18.9558 8.75401 19.4183 8.29045C20.647 7.06115 21.0602 5.73742 21.1063 3.78702C21.1254 3.00583 21.375 1.94135 21.4767 1.36619C21.5005 1.23056 19.5487 3.11399 18.4679 4.53215C17.387 5.95031 17.1868 7.35645 17.0135 8.87076C16.7306 11.3551 17.0421 12.2685 13.4865 14.5949C12.4359 15.2817 9.53354 18.2416 8.15389 20.738C7.31148 22.2626 7.05399 24.9804 5.93502 28.2425C4.5967 32.1468 3.35057 33.1735 1.71502 36.494C1.20163 37.5344 0.554719 39.5432 1.19209 40.7879C1.48137 41.3545 1.53859 41.7803 1.64508 42.4344C1.70866 42.8242 1.87873 42.9512 2.19186 42.9529C3.62077 42.9598 5.29447 42.2421 6.33874 40.8995C7.32261 39.6342 7.51175 38.3259 7.05876 36.8287C7.04287 36.7772 8.10939 38.0426 7.87892 39.4882C7.72951 40.4274 6.9014 41.4094 6.96498 41.6309L6.9618 41.624ZM40.8934 47.489C43.675 47.5765 47.5087 47.4735 49.5035 46.6237C57.6828 43.1401 57.3634 22.1716 50.9388 17.3522C47.8632 15.0447 45.9781 14.315 40.8934 13.472C40.8235 13.46 40.8934 47.489 40.8934 47.489ZM35.6101 55.8091C33.9523 56.1387 31.5983 59.3459 31.4139 66.7783C31.1501 77.3853 35.3637 80.3092 35.6101 80.129V55.8091Z" fill="white"/>
<path d="M16.3809 22.0651C16.3284 21.9827 16.222 21.9673 16.1488 22.0274C16.1441 22.0308 16.1393 22.0359 16.1345 22.0394C14.7167 23.2412 12.296 23.564 10.67 22.6987C10.2583 22.4549 9.97381 23.1536 10.4125 23.3202C11.9018 23.7614 13.5612 23.6996 15.0044 23.0884C14.2653 23.9005 13.6725 24.8637 13.3546 25.9591C13.2481 26.4278 13.9093 26.5874 14.0015 26.1187C14.3337 24.613 15.2492 23.2944 16.338 22.3106C16.3412 22.3089 16.3443 22.3055 16.3475 22.3038C16.4159 22.2471 16.4333 22.1424 16.3825 22.0651H16.3809Z" fill="white"/>
<path d="M3.50312 38.5491C3.91638 39.2822 4.02764 40.2539 3.56352 40.9802C3.41888 41.1776 3.12642 41.8558 2.84191 41.6069C2.77197 41.5296 2.77356 41.4094 2.83555 41.3287C3.05331 41.0111 3.24722 40.5201 3.26311 40.1355C3.26311 39.7646 3.05013 39.3302 2.83555 39.047C2.47792 38.5525 3.19954 38.0117 3.50312 38.5491Z" fill="white"/>
<path d="M77.5921 52.9479V32.3018H86.4851C88.6123 32.3018 90.2964 32.8622 91.5373 33.9829C92.7782 35.0841 93.3986 36.5195 93.3986 38.2891C93.3986 40.0981 92.7782 41.5728 91.5373 42.7133C90.2964 43.8537 88.6123 44.424 86.4851 44.424H80.8421V52.9479H77.5921ZM80.8421 41.445H86.2192C87.4601 41.445 88.4154 41.1796 89.0851 40.6487C89.7744 40.1178 90.1191 39.3509 90.1191 38.3481C90.1191 37.3453 89.7744 36.5883 89.0851 36.077C88.4154 35.5461 87.4601 35.2807 86.2192 35.2807H80.8421V41.445Z" fill="white"/>
<path d="M98.6313 52.9479V32.3018H108.056C110.183 32.3018 111.848 32.8425 113.049 33.924C114.27 35.0054 114.881 36.4211 114.881 38.1711C114.881 39.6065 114.487 40.8355 113.699 41.858C112.931 42.8608 111.828 43.5293 110.39 43.8636L116.89 52.9479H112.96L106.727 44.2175H101.881V52.9479H98.6313ZM101.881 41.3565H107.849C109.051 41.3565 109.976 41.1009 110.626 40.5897C111.276 40.0588 111.601 39.2919 111.601 38.2891C111.601 37.3256 111.267 36.5883 110.597 36.077C109.947 35.5461 109.031 35.2807 107.849 35.2807H101.881V41.3565Z" fill="white"/>
<path d="M121.924 52.9479V32.3018H125.174V52.9479H121.924Z" fill="white"/>
<path d="M129.899 52.9479L138.083 41.7695L131.199 32.3018H135.04L140.033 39.1445L145.026 32.3018H148.808L141.894 41.7105L150.108 52.9479H146.237L139.974 44.365L133.681 52.9479H129.899Z" fill="white"/>
<path d="M87.7555 82.7032C84.6632 82.7032 82.0731 81.7004 79.9853 79.6948C77.8974 77.6695 76.8535 75.1035 76.8535 71.9968C76.8535 68.89 77.8876 66.3338 79.9557 64.3282C82.0239 62.3029 84.6238 61.2903 87.7555 61.2903C89.8631 61.2903 91.7342 61.7524 93.3691 62.6765V65.9504C91.6751 64.8689 89.8138 64.3282 87.7851 64.3282C85.5988 64.3282 83.7867 65.0557 82.3488 66.5108C80.911 67.9462 80.1921 69.7748 80.1921 71.9968C80.1921 74.2383 80.9208 76.0768 82.3784 77.5122C83.8556 78.9476 85.6973 79.6653 87.9033 79.6653C90.2472 79.6653 92.2168 79.0361 93.8122 77.7777V81.0515C92.0986 82.1527 90.0797 82.7032 87.7555 82.7032Z" fill="white"/>
<path d="M99.266 82.3198V61.6737H102.545V79.3409H113.536V82.3198H99.266Z" fill="white"/>
<path d="M133.113 80.3437C131.498 81.9167 129.41 82.7032 126.849 82.7032C124.289 82.7032 122.201 81.9167 120.586 80.3437C118.99 78.751 118.193 76.4996 118.193 73.5895V61.6737H121.443V73.7074C121.443 75.6344 121.935 77.1091 122.92 78.1316C123.905 79.1541 125.214 79.6653 126.849 79.6653C128.504 79.6653 129.823 79.1541 130.808 78.1316C131.793 77.1091 132.286 75.6344 132.286 73.7074V61.6737H135.535V73.5895C135.535 76.4996 134.728 78.751 133.113 80.3437Z" fill="white"/>
<path d="M141.864 82.3198V61.6737H151.259C153.11 61.6737 154.588 62.1259 155.691 63.0304C156.794 63.9153 157.345 65.154 157.345 66.7467C157.345 67.8085 157.079 68.713 156.547 69.4602C156.035 70.1878 155.385 70.699 154.597 70.9939C155.878 71.2496 156.931 71.8591 157.759 72.8226C158.586 73.7664 159 74.9954 159 76.5094C159 78.2397 158.369 79.6456 157.109 80.7271C155.868 81.7889 154.174 82.3198 152.027 82.3198H141.864ZM145.114 79.3409H151.436C152.716 79.3409 153.711 79.0558 154.42 78.4855C155.129 77.8956 155.484 77.0796 155.484 76.0375C155.484 74.9954 155.129 74.2088 154.42 73.6779C153.731 73.1274 152.736 72.8521 151.436 72.8521H145.114V79.3409ZM145.114 69.9911H150.697C151.781 69.9911 152.618 69.765 153.209 69.3128C153.819 68.8605 154.125 68.192 154.125 67.3071C154.125 65.5375 152.982 64.6526 150.697 64.6526H145.114V69.9911Z" fill="white"/>
</svg>
