<svg width="83" height="51" viewBox="0 0 83 51" fill="none" xmlns="http://www.w3.org/2000/svg">
<path d="M0.73862 20.6461V0H9.6316C11.7588 0 13.4429 0.560395 14.6838 1.68118C15.9246 2.78231 16.5451 4.2177 16.5451 5.98737C16.5451 7.79636 15.9246 9.27108 14.6838 10.4115C13.4429 11.552 11.7588 12.1222 9.6316 12.1222H3.98855V20.6461H0.73862ZM3.98855 9.14327H9.3657C10.6066 9.14327 11.5619 8.87782 12.2315 8.34692C12.9209 7.81602 13.2656 7.04917 13.2656 6.04636C13.2656 5.04355 12.9209 4.28653 12.2315 3.77529C11.5619 3.24439 10.6066 2.97894 9.3657 2.97894H3.98855V9.14327Z" fill="white"/>
<path d="M21.7777 20.6461V0H31.2025C33.3297 0 34.9941 0.540731 36.1956 1.62219C37.4168 2.70366 38.0274 4.11939 38.0274 5.86939C38.0274 7.30479 37.6334 8.53372 36.8456 9.5562C36.0774 10.559 34.9744 11.2275 33.5366 11.5618L40.0364 20.6461H36.107L29.873 11.9158H25.0277V20.6461H21.7777ZM25.0277 9.05479H30.9957C32.1972 9.05479 33.1229 8.79917 33.7729 8.28794C34.4229 7.75704 34.7479 6.99018 34.7479 5.98737C34.7479 5.02389 34.4131 4.28653 33.7434 3.77529C33.0934 3.24439 32.1775 2.97894 30.9957 2.97894H25.0277V9.05479Z" fill="white"/>
<path d="M45.0708 20.6461V0H48.3207V20.6461H45.0708Z" fill="white"/>
<path d="M53.0456 20.6461L61.2295 9.46771L54.3456 0H58.1864L63.1794 6.84271L68.1725 0H71.9542L65.0408 9.40872L73.2542 20.6461H69.3839L63.1203 12.0632L56.8273 20.6461H53.0456Z" fill="white"/>
<path d="M10.902 50.4015C7.80967 50.4015 5.21958 49.3987 3.13175 47.393C1.04392 45.3678 0 42.8017 0 39.695C0 36.5882 1.03407 34.0321 3.1022 32.0264C5.17034 30.0012 7.77028 28.9885 10.902 28.9885C13.0096 28.9885 14.8807 29.4506 16.5155 30.3748V33.6486C14.8216 32.5672 12.9603 32.0264 10.9316 32.0264C8.74526 32.0264 6.93318 32.754 5.49533 34.209C4.05748 35.6444 3.33856 37.4731 3.33856 39.695C3.33856 41.9366 4.06733 43.7751 5.52487 45.2105C7.00211 46.6459 8.84374 47.3635 11.0497 47.3635C13.3936 47.3635 15.3633 46.7343 16.9587 45.4759V48.7498C15.2451 49.8509 13.2262 50.4015 10.902 50.4015Z" fill="white"/>
<path d="M22.4125 50.018V29.3719H25.692V47.0391H36.6826V50.018H22.4125Z" fill="white"/>
<path d="M56.2593 48.0419C54.6442 49.615 52.5563 50.4015 49.9958 50.4015C47.4352 50.4015 45.3474 49.615 43.7323 48.0419C42.1369 46.4492 41.3392 44.1978 41.3392 41.2877V29.3719H44.5891V41.4057C44.5891 43.3326 45.0815 44.8074 46.0663 45.8298C47.0511 46.8523 48.361 47.3635 49.9958 47.3635C51.6503 47.3635 52.9699 46.8523 53.9548 45.8298C54.9396 44.8074 55.432 43.3326 55.432 41.4057V29.3719H58.6819V41.2877C58.6819 44.1978 57.8744 46.4492 56.2593 48.0419Z" fill="white"/>
<path d="M65.0101 50.018V29.3719H74.4053C76.2568 29.3719 77.734 29.8242 78.837 30.7287C79.94 31.6135 80.4915 32.8523 80.4915 34.445C80.4915 35.5068 80.2256 36.4113 79.6938 37.1585C79.1817 37.886 78.5317 38.3972 77.7439 38.6922C79.0241 38.9478 80.0779 39.5574 80.9052 40.5208C81.7324 41.4647 82.146 42.6936 82.146 44.2076C82.146 45.938 81.5157 47.3439 80.2552 48.4254C79.0143 49.4871 77.3204 50.018 75.1735 50.018H65.0101ZM68.26 47.0391H74.5826C75.8628 47.0391 76.8575 46.754 77.5666 46.1838C78.2757 45.5939 78.6302 44.7779 78.6302 43.7357C78.6302 42.6936 78.2757 41.9071 77.5666 41.3762C76.8772 40.8256 75.8825 40.5503 74.5826 40.5503H68.26V47.0391ZM68.26 37.6894H73.8439C74.9273 37.6894 75.7644 37.4632 76.3553 37.011C76.9659 36.5588 77.2711 35.8902 77.2711 35.0054C77.2711 33.2357 76.1287 32.3509 73.8439 32.3509H68.26V37.6894Z" fill="white"/>
</svg>
