<svg width="276" height="335" viewBox="0 0 276 335" fill="none" xmlns="http://www.w3.org/2000/svg">
<path d="M29.3526 167.607C29.4733 168.015 31.7317 167.793 33.6952 169.128C36.0005 170.69 36.0005 172.384 38.393 171.824C41.1004 171.188 38.594 160.299 42.6149 153.973C53.1765 137.361 83.8761 126.949 87.18 124.578C93.7944 119.842 97.7348 115.811 100.047 109.299C102.171 103.298 103.264 93.0318 101.427 81.6662C100.449 75.61 103.378 76.3912 104.711 78.3477C105.951 80.1729 114.127 94.7256 111.982 108.068C108.786 127.965 90.7988 130.938 88.5404 130.807C75.4389 130.053 50.6031 146.818 45.195 156.241C42.4005 161.108 45.2419 171.755 40.3699 174.202C36.0005 176.394 33.206 174.14 30.9007 171.699C28.0123 168.637 18.2147 175.267 15.1789 176.02C11.6003 176.905 2.14448 177.832 2.30532 177.444C5.67618 169.39 0 162.221 0 161.613C0 155.978 2.72752 148.249 5.29419 143.292C8.75218 136.614 22.1217 120.9 25.2647 102.151C28.8031 81.0163 36.9722 73.6674 39.3446 70.5494C40.3565 69.2151 39.5657 67.4315 38.3863 65.9797C32.7302 59.0248 24.9564 58.9625 25.9282 55.4505C26.7792 52.3672 35.6051 54.538 36.6439 53.1C38.145 51.0052 20.4061 26.5249 22.5573 24.6099C25.124 22.3215 44.1496 46.1866 46.1198 45.3708C47.7818 44.6864 46.6626 35.4362 48.9076 34.7172C52.9487 33.4175 52.0774 43.8913 59.9919 48.6961C63.5705 50.8739 67.243 46.0621 67.9466 43.6563C68.8312 40.6282 69.7091 31.9726 70.5267 28.3777C71.7397 23.0612 74.2193 18.2772 77.885 14.3711C81.8121 10.1885 94.5047 -2.53216 95.8517 0.447512C96.542 1.96846 92.8361 3.69681 91.9045 8.39101C90.973 13.0852 91.7303 20.1231 89.9477 25.2805C88.5538 29.3179 81.8054 36.1207 79.9289 38.6717C79.1985 39.6672 79.1985 41.5477 80.6527 41.5615C82.7101 41.5823 108.678 41.3749 113.108 41.4855C120.996 41.6929 156.5 41.4509 163.812 41.5823C190.866 42.0869 237.146 42.8405 259.349 74.3863C286.021 112.286 274.976 156.621 264.127 172.626C247.165 197.652 226.116 198.15 216.74 200.155C209.704 201.655 174.742 202.167 172.423 201.828V213.636H208.182C208.182 213.636 208.31 255.407 208.142 255.02C206.608 251.556 197.199 220.868 172.423 222.229C172.423 222.229 172.423 326.795 172.423 330.908H223.268V334.137C216.298 333.978 155.247 334.164 152.051 334.137C148.197 334.102 141.811 333.611 133.447 331.164C121.177 327.562 87.6692 305.488 95.0878 263.966C101.93 225.686 150.147 215.876 150.147 215.876C150.08 208.043 150.248 156.117 150.147 148.014C149.672 109.022 150.121 89.0428 140.752 74.1444C134.292 63.8711 119.448 52.0284 114.556 49.6709C101.146 43.2069 87.6692 43.5249 84.9082 43.5802C77.0473 43.7392 77.1813 42.2183 77.2885 39.8055C77.4092 37.1093 79.9222 35.2496 81.8724 33.383C87.0526 28.433 88.795 23.1027 88.9894 15.2491C89.0698 12.1035 90.1219 7.8172 90.5508 5.50121C90.6514 4.95505 82.4219 12.5391 77.8649 18.2495C73.3078 23.96 72.4635 29.6221 71.733 35.7197C70.5401 45.7234 71.8536 49.4013 56.8623 58.769C52.4326 61.5343 40.1957 73.453 34.3788 83.5051C30.827 89.6442 29.7413 100.588 25.0234 113.724C19.3808 129.445 14.1268 133.579 7.23093 146.949C5.06634 151.139 2.33883 159.228 5.02613 164.24C6.24581 166.521 6.48706 168.236 6.93607 170.87C7.20413 172.439 7.92119 172.951 9.24139 172.958C15.266 172.985 22.3227 170.095 26.7256 164.689C30.8739 159.594 31.6713 154.326 29.7614 148.298C29.6944 148.09 34.1911 153.185 33.2194 159.006C32.5895 162.788 29.098 166.742 29.366 167.634L29.3526 167.607ZM172.417 191.223C184.144 191.575 200.308 191.161 208.719 187.738C243.205 173.711 241.858 89.2778 214.77 69.8719C201.803 60.5803 193.855 57.6421 172.417 54.2476C172.122 54.1992 172.417 191.223 172.417 191.223ZM150.141 224.725C143.151 226.053 133.226 238.967 132.449 268.895C131.336 311.606 149.102 323.379 150.141 322.654V224.725Z" fill="white"/>
<path d="M69.0658 88.8492C68.8446 88.5173 68.3956 88.4551 68.0873 88.6971C68.0672 88.7109 68.0471 88.7316 68.027 88.7455C62.0493 93.5848 51.8429 94.8846 44.9872 91.4002C43.2515 90.4185 42.052 93.2323 43.9016 93.9029C50.1809 95.6796 57.1773 95.4307 63.2623 92.9696C60.1461 96.2396 57.6464 100.118 56.3061 104.529C55.8571 106.416 58.6449 107.059 59.0336 105.172C60.4342 99.1087 64.2943 93.7992 68.8848 89.8378C68.8982 89.8309 68.9116 89.817 68.925 89.8101C69.2132 89.582 69.2869 89.1603 69.0725 88.8492H69.0658Z" fill="white"/>
<path d="M14.77 155.225C16.5124 158.177 16.9815 162.09 15.0247 165.014C14.4148 165.809 13.1817 168.54 11.9822 167.537C11.6873 167.226 11.694 166.742 11.9554 166.417C12.8735 165.138 13.6911 163.161 13.7581 161.613C13.7581 160.119 12.8601 158.37 11.9554 157.23C10.4475 155.238 13.49 153.061 14.77 155.225Z" fill="white"/>
</svg>
